%TF.GenerationSoftware,KiCad,Pcbnew,10.0.1*%
%TF.CreationDate,2026-05-20T00:07:00+02:00*%
%TF.ProjectId,ES8390-breakout,45533833-3930-42d6-9272-65616b6f7574,rev?*%
%TF.SameCoordinates,Original*%
%TF.FileFunction,Copper,L4,Bot*%
%TF.FilePolarity,Positive*%
%FSLAX46Y46*%
G04 Gerber Fmt 4.6, Leading zero omitted, Abs format (unit mm)*
G04 Created by KiCad (PCBNEW 10.0.1) date 2026-05-20 00:07:00*
%MOMM*%
%LPD*%
G01*
G04 APERTURE LIST*
G04 Aperture macros list*
%AMRoundRect*
0 Rectangle with rounded corners*
0 $1 Rounding radius*
0 $2 $3 $4 $5 $6 $7 $8 $9 X,Y pos of 4 corners*
0 Add a 4 corners polygon primitive as box body*
4,1,4,$2,$3,$4,$5,$6,$7,$8,$9,$2,$3,0*
0 Add four circle primitives for the rounded corners*
1,1,$1+$1,$2,$3*
1,1,$1+$1,$4,$5*
1,1,$1+$1,$6,$7*
1,1,$1+$1,$8,$9*
0 Add four rect primitives between the rounded corners*
20,1,$1+$1,$2,$3,$4,$5,0*
20,1,$1+$1,$4,$5,$6,$7,0*
20,1,$1+$1,$6,$7,$8,$9,0*
20,1,$1+$1,$8,$9,$2,$3,0*%
G04 Aperture macros list end*
%TA.AperFunction,ComponentPad*%
%ADD10RoundRect,0.250000X0.600000X0.750000X-0.600000X0.750000X-0.600000X-0.750000X0.600000X-0.750000X0*%
%TD*%
%TA.AperFunction,ComponentPad*%
%ADD11O,1.700000X2.000000*%
%TD*%
%TA.AperFunction,ComponentPad*%
%ADD12R,1.700000X1.700000*%
%TD*%
%TA.AperFunction,ComponentPad*%
%ADD13C,1.700000*%
%TD*%
%TA.AperFunction,ComponentPad*%
%ADD14O,3.200000X1.800000*%
%TD*%
%TA.AperFunction,ViaPad*%
%ADD15C,0.600000*%
%TD*%
%TA.AperFunction,ViaPad*%
%ADD16C,0.450000*%
%TD*%
%TA.AperFunction,Conductor*%
%ADD17C,0.300000*%
%TD*%
%TA.AperFunction,Conductor*%
%ADD18C,0.200000*%
%TD*%
G04 APERTURE END LIST*
D10*
%TO.P,J3,1,Pin_1_1*%
%TO.N,Net-(J3-Pin_1)*%
X96550000Y-114550000D03*
D11*
%TO.P,J3,2,Pin_2_2*%
%TO.N,Net-(J3-Pin_2)*%
X94050000Y-114550000D03*
%TD*%
D10*
%TO.P,J2,1,Pin_1_1*%
%TO.N,Net-(J2-Pin_1)*%
X105300000Y-114550000D03*
D11*
%TO.P,J2,2,Pin_2_2*%
%TO.N,Net-(J2-Pin_2)*%
X102800000Y-114550000D03*
%TD*%
D12*
%TO.P,CN1,1,Pin_1_1*%
%TO.N,GND*%
X85050000Y-105740000D03*
D13*
%TO.P,CN1,2,Pin_2_2*%
%TO.N,VAMP*%
X85050000Y-103200000D03*
%TO.P,CN1,3,Pin_3_3*%
%TO.N,VLDO*%
X85050000Y-100660000D03*
%TO.P,CN1,4,Pin_4_4*%
%TO.N,VIO*%
X85050000Y-98120000D03*
%TO.P,CN1,5,Pin_5_5*%
%TO.N,AMP_SHDN*%
X85050000Y-95580000D03*
%TO.P,CN1,6,Pin_6_6*%
%TO.N,ADOUT{slash}AD1*%
X85050000Y-93040000D03*
%TO.P,CN1,7,Pin_7_7*%
%TO.N,LRCK*%
X85050000Y-90500000D03*
%TO.P,CN1,8,Pin_8_8*%
%TO.N,DSDIN*%
X85050000Y-87960000D03*
%TO.P,CN1,9,Pin_9_9*%
%TO.N,SCLK*%
X85050000Y-85420000D03*
%TO.P,CN1,10,Pin_10_10*%
%TO.N,MCLK*%
X85050000Y-82880000D03*
%TO.P,CN1,11,Pin_11_11*%
%TO.N,CCLK*%
X85050000Y-80340000D03*
%TO.P,CN1,12,Pin_12_12*%
%TO.N,CDATA*%
X85050000Y-77800000D03*
%TO.P,CN1,13,Pin_13_13*%
%TO.N,AD0{slash}DMIC_SCL*%
X85050000Y-75260000D03*
%TO.P,CN1,14,Pin_14_14*%
%TO.N,GND*%
X85050000Y-72720000D03*
%TD*%
D14*
%TO.P,J1,2,2_2*%
%TO.N,GND*%
X116450000Y-71000000D03*
%TO.P,J1,3,3_3*%
%TO.N,unconnected-(J1-Pad3)*%
X108950000Y-68500000D03*
%TO.P,J1,4,4_4*%
%TO.N,unconnected-(J1-Pad4)*%
X101550000Y-68500000D03*
%TO.P,J1,5,5_5*%
%TO.N,Net-(C10-Pad1)*%
X101550000Y-73500000D03*
%TD*%
D15*
%TO.N,GND*%
X87550000Y-68500000D03*
X121000000Y-95000000D03*
X97300000Y-75500000D03*
X123000000Y-102000000D03*
D16*
X98050000Y-89150000D03*
D15*
X123000000Y-89250000D03*
X115000000Y-95000000D03*
D16*
X97250000Y-87350000D03*
D15*
X109400000Y-59200000D03*
X90000000Y-60000000D03*
X91500000Y-105250000D03*
X110000000Y-95000000D03*
X103550000Y-88850000D03*
D16*
X94400000Y-107250000D03*
D15*
X121000000Y-96250000D03*
X120000000Y-100000000D03*
X121000000Y-93750000D03*
D16*
X97250000Y-89150000D03*
D15*
X96500000Y-109250000D03*
D16*
X96350000Y-89150000D03*
D15*
X100000000Y-70000000D03*
X110000000Y-110000000D03*
D16*
X95600000Y-108000000D03*
D15*
X90000000Y-100000000D03*
D16*
X95600000Y-107250000D03*
D15*
X90400000Y-88450000D03*
X105000000Y-99650000D03*
X110000000Y-99650000D03*
X103550000Y-90350000D03*
X120000000Y-75000000D03*
X90000000Y-110000000D03*
X115000000Y-80000000D03*
X115000000Y-115000000D03*
D16*
X98050000Y-88250000D03*
X95000000Y-107250000D03*
D15*
X115000000Y-75000000D03*
X115950000Y-61475000D03*
D16*
X96350000Y-88250000D03*
D15*
X116750000Y-84750000D03*
X90000000Y-115000000D03*
X110000000Y-65000000D03*
X103950000Y-81450000D03*
X121000000Y-110250000D03*
X87550000Y-70000000D03*
X90000000Y-105250000D03*
X105000000Y-90000000D03*
X90400000Y-86950000D03*
D16*
X95000000Y-106500000D03*
X98050000Y-87350000D03*
D15*
X85000000Y-70000000D03*
X120000000Y-65000000D03*
X123000000Y-86750000D03*
X100000000Y-65000000D03*
X116750000Y-79750000D03*
X85000000Y-110000000D03*
X95800000Y-94750000D03*
X95000000Y-95000000D03*
X98500000Y-100700000D03*
X110000000Y-90000000D03*
X102650000Y-78800000D03*
X105550000Y-77450000D03*
X103550000Y-87350000D03*
D16*
X95600000Y-106500000D03*
D15*
X85000000Y-65000000D03*
X105000000Y-110000000D03*
X123000000Y-88000000D03*
D16*
X97250000Y-88250000D03*
X95000000Y-108000000D03*
X94400000Y-108000000D03*
D15*
X96300000Y-70700000D03*
X120000000Y-70000000D03*
X87550000Y-65500000D03*
X110000000Y-115000000D03*
D16*
X96350000Y-87350000D03*
D15*
X105000000Y-105000000D03*
X115950000Y-62525000D03*
X121000000Y-107750000D03*
X100000000Y-100700000D03*
D16*
X94400000Y-106500000D03*
D15*
X115000000Y-70000000D03*
X123000000Y-100750000D03*
X115000000Y-65000000D03*
X121000000Y-109000000D03*
X123000000Y-103250000D03*
X93400000Y-103450000D03*
%TO.N,Net-(U1B--)*%
X91150000Y-72000000D03*
X94350000Y-66900000D03*
D16*
%TO.N,Net-(J3-Pin_1)*%
X92400000Y-106450000D03*
%TO.N,Net-(J3-Pin_2)*%
X92400000Y-107100003D03*
%TO.N,VLDO*%
X90200000Y-83850000D03*
X88100000Y-84250000D03*
D15*
X87500000Y-94100000D03*
%TO.N,VDDA*%
X100300000Y-81450000D03*
X101050000Y-91400000D03*
%TO.N,Net-(U5-GAIN)*%
X94500000Y-100900000D03*
D16*
X97600000Y-106650000D03*
%TO.N,Net-(U3-LOUTN)*%
X97900000Y-91750000D03*
X97700000Y-94200000D03*
D15*
%TO.N,AMP_SHDN*%
X103100000Y-102650000D03*
X88250000Y-95550000D03*
D16*
%TO.N,ADOUT{slash}AD1*%
X94650000Y-90450000D03*
%TO.N,LRCK*%
X94100000Y-89900000D03*
%TO.N,DSDIN*%
X94000000Y-89050000D03*
%TO.N,SCLK*%
X94350000Y-88450000D03*
%TO.N,MCLK*%
X94050000Y-86600000D03*
%TO.N,CCLK*%
X94350000Y-85750000D03*
%TO.N,CDATA*%
X95800000Y-85250000D03*
%TO.N,AD0{slash}DMIC_SCL*%
X96550000Y-85150000D03*
%TO.N,Net-(U3-RIN2)*%
X112350000Y-81800000D03*
X110300000Y-83850000D03*
%TO.N,Net-(U3-ROUTN)*%
X98600000Y-92400000D03*
X97000000Y-97100000D03*
%TD*%
%TO.N,Net-(U1B--)*%
D17*
X94350000Y-66900000D02*
X91150000Y-70100000D01*
X91150000Y-70100000D02*
X91150000Y-72000000D01*
%TO.N,Net-(J3-Pin_1)*%
D18*
X93350000Y-111300000D02*
X93350000Y-107307540D01*
X96550000Y-114500000D02*
X93350000Y-111300000D01*
X93350000Y-107307540D02*
X92492460Y-106450000D01*
X92492460Y-106450000D02*
X92400000Y-106450000D01*
X96550000Y-114550000D02*
X96550000Y-114500000D01*
%TO.N,Net-(J3-Pin_2)*%
X92400000Y-112900000D02*
X92400000Y-107100003D01*
X94050000Y-114550000D02*
X92400000Y-112900000D01*
%TO.N,VLDO*%
D17*
X85050000Y-100660000D02*
X87500000Y-98210000D01*
X88100000Y-84250000D02*
X89800000Y-84250000D01*
X87500000Y-98210000D02*
X87500000Y-94100000D01*
X89800000Y-84250000D02*
X90200000Y-83850000D01*
%TO.N,VDDA*%
X101050000Y-82200000D02*
X101050000Y-91400000D01*
X100300000Y-81450000D02*
X101050000Y-82200000D01*
%TO.N,Net-(U5-GAIN)*%
D18*
X97600000Y-103900000D02*
X94600000Y-100900000D01*
X97600000Y-106650000D02*
X97600000Y-103900000D01*
X94600000Y-100900000D02*
X94500000Y-100900000D01*
%TO.N,Net-(U3-LOUTN)*%
X97700000Y-91950000D02*
X97900000Y-91750000D01*
X97700000Y-94200000D02*
X97700000Y-91950000D01*
%TO.N,AMP_SHDN*%
X91350000Y-95550000D02*
X88250000Y-95550000D01*
X103100000Y-102650000D02*
X98450000Y-102650000D01*
X98450000Y-102650000D02*
X91350000Y-95550000D01*
%TO.N,ADOUT{slash}AD1*%
X92060000Y-93040000D02*
X85050000Y-93040000D01*
X94650000Y-90450000D02*
X92060000Y-93040000D01*
%TO.N,LRCK*%
X93500000Y-90500000D02*
X85050000Y-90500000D01*
X94100000Y-89900000D02*
X93500000Y-90500000D01*
%TO.N,DSDIN*%
X93300000Y-89750000D02*
X86840000Y-89750000D01*
X94000000Y-89050000D02*
X93300000Y-89750000D01*
X86840000Y-89750000D02*
X85050000Y-87960000D01*
%TO.N,SCLK*%
X91320000Y-85420000D02*
X85050000Y-85420000D01*
X94350000Y-88450000D02*
X91320000Y-85420000D01*
%TO.N,MCLK*%
X94050000Y-86600000D02*
X90330000Y-82880000D01*
X90330000Y-82880000D02*
X85050000Y-82880000D01*
%TO.N,CCLK*%
X88940000Y-80340000D02*
X85050000Y-80340000D01*
X94350000Y-85750000D02*
X88940000Y-80340000D01*
%TO.N,CDATA*%
X88350000Y-77800000D02*
X85050000Y-77800000D01*
X95800000Y-85250000D02*
X88350000Y-77800000D01*
%TO.N,AD0{slash}DMIC_SCL*%
X86660000Y-75260000D02*
X85050000Y-75260000D01*
X96550000Y-85150000D02*
X86660000Y-75260000D01*
%TO.N,Net-(U3-RIN2)*%
X110300000Y-83850000D02*
X112350000Y-81800000D01*
%TO.N,Net-(U3-ROUTN)*%
X97000000Y-97100000D02*
X98600000Y-95500000D01*
X98600000Y-95500000D02*
X98600000Y-92400000D01*
%TD*%
%TA.AperFunction,Conductor*%
%TO.N,GND*%
G36*
X121554043Y-58000765D02*
G01*
X121802895Y-58017075D01*
X121818953Y-58019190D01*
X122026105Y-58060395D01*
X122059535Y-58067045D01*
X122075202Y-58071243D01*
X122244947Y-58128863D01*
X122307481Y-58150091D01*
X122322458Y-58156294D01*
X122531799Y-58259529D01*
X122542460Y-58264787D01*
X122556506Y-58272897D01*
X122760460Y-58409174D01*
X122773329Y-58419048D01*
X122957749Y-58580781D01*
X122969218Y-58592250D01*
X123019425Y-58649500D01*
X123102253Y-58743947D01*
X123130951Y-58776670D01*
X123140825Y-58789539D01*
X123277102Y-58993493D01*
X123285212Y-59007539D01*
X123393702Y-59227534D01*
X123399909Y-59242520D01*
X123478756Y-59474797D01*
X123482954Y-59490464D01*
X123530807Y-59731035D01*
X123532925Y-59747116D01*
X123549235Y-59995956D01*
X123549500Y-60004066D01*
X123549500Y-114995933D01*
X123549235Y-115004043D01*
X123532925Y-115252883D01*
X123530807Y-115268964D01*
X123482954Y-115509535D01*
X123478756Y-115525202D01*
X123399909Y-115757479D01*
X123393702Y-115772465D01*
X123285212Y-115992460D01*
X123277102Y-116006506D01*
X123140825Y-116210460D01*
X123130951Y-116223329D01*
X122969218Y-116407749D01*
X122957749Y-116419218D01*
X122773329Y-116580951D01*
X122760460Y-116590825D01*
X122556506Y-116727102D01*
X122542460Y-116735212D01*
X122322465Y-116843702D01*
X122307479Y-116849909D01*
X122075202Y-116928756D01*
X122059535Y-116932954D01*
X121818964Y-116980807D01*
X121802883Y-116982925D01*
X121554043Y-116999235D01*
X121545933Y-116999500D01*
X86054067Y-116999500D01*
X86045957Y-116999235D01*
X85797116Y-116982925D01*
X85781035Y-116980807D01*
X85540464Y-116932954D01*
X85524797Y-116928756D01*
X85292520Y-116849909D01*
X85277534Y-116843702D01*
X85057539Y-116735212D01*
X85043493Y-116727102D01*
X84839539Y-116590825D01*
X84826670Y-116580951D01*
X84642250Y-116419218D01*
X84630781Y-116407749D01*
X84497747Y-116256054D01*
X84469045Y-116223325D01*
X84459174Y-116210460D01*
X84322897Y-116006506D01*
X84314787Y-115992460D01*
X84266363Y-115894266D01*
X84206294Y-115772458D01*
X84200090Y-115757479D01*
X84190797Y-115730104D01*
X84151344Y-115613878D01*
X84121243Y-115525202D01*
X84117045Y-115509535D01*
X84105759Y-115452795D01*
X84069190Y-115268953D01*
X84067075Y-115252895D01*
X84050765Y-115004043D01*
X84050500Y-114995933D01*
X84050500Y-114378711D01*
X84699500Y-114378711D01*
X84699500Y-114621288D01*
X84731161Y-114861785D01*
X84793947Y-115096104D01*
X84819275Y-115157250D01*
X84886776Y-115320212D01*
X85008064Y-115530289D01*
X85008066Y-115530292D01*
X85008067Y-115530293D01*
X85155733Y-115722736D01*
X85155739Y-115722743D01*
X85327256Y-115894260D01*
X85327263Y-115894266D01*
X85440321Y-115981018D01*
X85519711Y-116041936D01*
X85729788Y-116163224D01*
X85953900Y-116256054D01*
X86188211Y-116318838D01*
X86368586Y-116342584D01*
X86428711Y-116350500D01*
X86428712Y-116350500D01*
X86671289Y-116350500D01*
X86719388Y-116344167D01*
X86911789Y-116318838D01*
X87146100Y-116256054D01*
X87370212Y-116163224D01*
X87580289Y-116041936D01*
X87772738Y-115894265D01*
X87944265Y-115722738D01*
X88091936Y-115530289D01*
X88213224Y-115320212D01*
X88306054Y-115096100D01*
X88368838Y-114861789D01*
X88400500Y-114621288D01*
X88400500Y-114378712D01*
X88368838Y-114138211D01*
X88306054Y-113903900D01*
X88213224Y-113679788D01*
X88091936Y-113469711D01*
X88023498Y-113380521D01*
X87944266Y-113277263D01*
X87944260Y-113277256D01*
X87772743Y-113105739D01*
X87772736Y-113105733D01*
X87580293Y-112958067D01*
X87580292Y-112958066D01*
X87580289Y-112958064D01*
X87370212Y-112836776D01*
X87313652Y-112813348D01*
X87146104Y-112743947D01*
X86911785Y-112681161D01*
X86671289Y-112649500D01*
X86671288Y-112649500D01*
X86428712Y-112649500D01*
X86428711Y-112649500D01*
X86188214Y-112681161D01*
X85953895Y-112743947D01*
X85729794Y-112836773D01*
X85729785Y-112836777D01*
X85519706Y-112958067D01*
X85327263Y-113105733D01*
X85327256Y-113105739D01*
X85155739Y-113277256D01*
X85155733Y-113277263D01*
X85008067Y-113469706D01*
X84886777Y-113679785D01*
X84886773Y-113679794D01*
X84793947Y-113903895D01*
X84731161Y-114138214D01*
X84699500Y-114378711D01*
X84050500Y-114378711D01*
X84050500Y-106521457D01*
X91674499Y-106521457D01*
X91702379Y-106661614D01*
X91702382Y-106661624D01*
X91729689Y-106727549D01*
X91737158Y-106797018D01*
X91729690Y-106822452D01*
X91702381Y-106888383D01*
X91702380Y-106888386D01*
X91702380Y-106888387D01*
X91702379Y-106888388D01*
X91674500Y-107028545D01*
X91674500Y-107028548D01*
X91674500Y-107171458D01*
X91674500Y-107171460D01*
X91674499Y-107171460D01*
X91702379Y-107311617D01*
X91702381Y-107311623D01*
X91757070Y-107443654D01*
X91778601Y-107475877D01*
X91799480Y-107542554D01*
X91799500Y-107544769D01*
X91799500Y-112813330D01*
X91799499Y-112813348D01*
X91799499Y-112979054D01*
X91799498Y-112979054D01*
X91840423Y-113131785D01*
X91850041Y-113148443D01*
X91850042Y-113148446D01*
X91919475Y-113268709D01*
X91919481Y-113268717D01*
X92038349Y-113387585D01*
X92038355Y-113387590D01*
X92688319Y-114037554D01*
X92721804Y-114098877D01*
X92723111Y-114144632D01*
X92699500Y-114293712D01*
X92699500Y-114806286D01*
X92730821Y-115004043D01*
X92732754Y-115016243D01*
X92778570Y-115157250D01*
X92798444Y-115218414D01*
X92894951Y-115407820D01*
X93019890Y-115579786D01*
X93170213Y-115730109D01*
X93342179Y-115855048D01*
X93342181Y-115855049D01*
X93342184Y-115855051D01*
X93531588Y-115951557D01*
X93733757Y-116017246D01*
X93943713Y-116050500D01*
X93943714Y-116050500D01*
X94156286Y-116050500D01*
X94156287Y-116050500D01*
X94366243Y-116017246D01*
X94568412Y-115951557D01*
X94757816Y-115855051D01*
X94929792Y-115730104D01*
X95068604Y-115591291D01*
X95129923Y-115557809D01*
X95199615Y-115562793D01*
X95255549Y-115604664D01*
X95261821Y-115613878D01*
X95265185Y-115619333D01*
X95265186Y-115619334D01*
X95357288Y-115768656D01*
X95481344Y-115892712D01*
X95630666Y-115984814D01*
X95797203Y-116039999D01*
X95899991Y-116050500D01*
X97200008Y-116050499D01*
X97302797Y-116039999D01*
X97469334Y-115984814D01*
X97618656Y-115892712D01*
X97742712Y-115768656D01*
X97834814Y-115619334D01*
X97889999Y-115452797D01*
X97900500Y-115350009D01*
X97900499Y-114293713D01*
X101449500Y-114293713D01*
X101449500Y-114806286D01*
X101480821Y-115004043D01*
X101482754Y-115016243D01*
X101528570Y-115157250D01*
X101548444Y-115218414D01*
X101644951Y-115407820D01*
X101769890Y-115579786D01*
X101920213Y-115730109D01*
X102092179Y-115855048D01*
X102092181Y-115855049D01*
X102092184Y-115855051D01*
X102281588Y-115951557D01*
X102483757Y-116017246D01*
X102693713Y-116050500D01*
X102693714Y-116050500D01*
X102906286Y-116050500D01*
X102906287Y-116050500D01*
X103116243Y-116017246D01*
X103318412Y-115951557D01*
X103507816Y-115855051D01*
X103679792Y-115730104D01*
X103818604Y-115591291D01*
X103879923Y-115557809D01*
X103949615Y-115562793D01*
X104005549Y-115604664D01*
X104011821Y-115613878D01*
X104015185Y-115619333D01*
X104015186Y-115619334D01*
X104107288Y-115768656D01*
X104231344Y-115892712D01*
X104380666Y-115984814D01*
X104547203Y-116039999D01*
X104649991Y-116050500D01*
X105950008Y-116050499D01*
X106052797Y-116039999D01*
X106219334Y-115984814D01*
X106368656Y-115892712D01*
X106492712Y-115768656D01*
X106584814Y-115619334D01*
X106639999Y-115452797D01*
X106650500Y-115350009D01*
X106650499Y-114378711D01*
X119199500Y-114378711D01*
X119199500Y-114621288D01*
X119231161Y-114861785D01*
X119293947Y-115096104D01*
X119319275Y-115157250D01*
X119386776Y-115320212D01*
X119508064Y-115530289D01*
X119508066Y-115530292D01*
X119508067Y-115530293D01*
X119655733Y-115722736D01*
X119655739Y-115722743D01*
X119827256Y-115894260D01*
X119827263Y-115894266D01*
X119940321Y-115981018D01*
X120019711Y-116041936D01*
X120229788Y-116163224D01*
X120453900Y-116256054D01*
X120688211Y-116318838D01*
X120868586Y-116342584D01*
X120928711Y-116350500D01*
X120928712Y-116350500D01*
X121171289Y-116350500D01*
X121219388Y-116344167D01*
X121411789Y-116318838D01*
X121646100Y-116256054D01*
X121870212Y-116163224D01*
X122080289Y-116041936D01*
X122272738Y-115894265D01*
X122444265Y-115722738D01*
X122591936Y-115530289D01*
X122713224Y-115320212D01*
X122806054Y-115096100D01*
X122868838Y-114861789D01*
X122900500Y-114621288D01*
X122900500Y-114378712D01*
X122868838Y-114138211D01*
X122806054Y-113903900D01*
X122713224Y-113679788D01*
X122591936Y-113469711D01*
X122523498Y-113380521D01*
X122444266Y-113277263D01*
X122444260Y-113277256D01*
X122272743Y-113105739D01*
X122272736Y-113105733D01*
X122080293Y-112958067D01*
X122080292Y-112958066D01*
X122080289Y-112958064D01*
X121870212Y-112836776D01*
X121813652Y-112813348D01*
X121646104Y-112743947D01*
X121411785Y-112681161D01*
X121171289Y-112649500D01*
X121171288Y-112649500D01*
X120928712Y-112649500D01*
X120928711Y-112649500D01*
X120688214Y-112681161D01*
X120453895Y-112743947D01*
X120229794Y-112836773D01*
X120229785Y-112836777D01*
X120019706Y-112958067D01*
X119827263Y-113105733D01*
X119827256Y-113105739D01*
X119655739Y-113277256D01*
X119655733Y-113277263D01*
X119508067Y-113469706D01*
X119386777Y-113679785D01*
X119386773Y-113679794D01*
X119293947Y-113903895D01*
X119231161Y-114138214D01*
X119199500Y-114378711D01*
X106650499Y-114378711D01*
X106650499Y-113749992D01*
X106639999Y-113647203D01*
X106584814Y-113480666D01*
X106492712Y-113331344D01*
X106368656Y-113207288D01*
X106251899Y-113135272D01*
X106219336Y-113115187D01*
X106219331Y-113115185D01*
X106190825Y-113105739D01*
X106052797Y-113060001D01*
X106052795Y-113060000D01*
X105950010Y-113049500D01*
X104649998Y-113049500D01*
X104649981Y-113049501D01*
X104547203Y-113060000D01*
X104547200Y-113060001D01*
X104380668Y-113115185D01*
X104380663Y-113115187D01*
X104231342Y-113207289D01*
X104107289Y-113331342D01*
X104011821Y-113486121D01*
X103959873Y-113532845D01*
X103890910Y-113544068D01*
X103826828Y-113516224D01*
X103818601Y-113508705D01*
X103679786Y-113369890D01*
X103507820Y-113244951D01*
X103318414Y-113148444D01*
X103318413Y-113148443D01*
X103318412Y-113148443D01*
X103116243Y-113082754D01*
X103116241Y-113082753D01*
X103116240Y-113082753D01*
X102954957Y-113057208D01*
X102906287Y-113049500D01*
X102693713Y-113049500D01*
X102645042Y-113057208D01*
X102483760Y-113082753D01*
X102281585Y-113148444D01*
X102092179Y-113244951D01*
X101920213Y-113369890D01*
X101769890Y-113520213D01*
X101644951Y-113692179D01*
X101548444Y-113881585D01*
X101482753Y-114083760D01*
X101449500Y-114293713D01*
X97900499Y-114293713D01*
X97900499Y-113749992D01*
X97889999Y-113647203D01*
X97834814Y-113480666D01*
X97742712Y-113331344D01*
X97618656Y-113207288D01*
X97501899Y-113135272D01*
X97469336Y-113115187D01*
X97469331Y-113115185D01*
X97440825Y-113105739D01*
X97302797Y-113060001D01*
X97302795Y-113060000D01*
X97200016Y-113049500D01*
X97200009Y-113049500D01*
X96000097Y-113049500D01*
X95933058Y-113029815D01*
X95912416Y-113013181D01*
X93986819Y-111087584D01*
X93953334Y-111026261D01*
X93950500Y-110999903D01*
X93950500Y-107396600D01*
X93950501Y-107396587D01*
X93950501Y-107228484D01*
X93919417Y-107112479D01*
X93909577Y-107075756D01*
X93862179Y-106993659D01*
X93830524Y-106938830D01*
X93830518Y-106938822D01*
X93092109Y-106200414D01*
X93065229Y-106160185D01*
X93042932Y-106106353D01*
X93042930Y-106106349D01*
X93042929Y-106106347D01*
X93000042Y-106042162D01*
X92963532Y-105987520D01*
X92862482Y-105886470D01*
X92862478Y-105886467D01*
X92743659Y-105807074D01*
X92743650Y-105807069D01*
X92611620Y-105752381D01*
X92611614Y-105752379D01*
X92471457Y-105724500D01*
X92471455Y-105724500D01*
X92328545Y-105724500D01*
X92328543Y-105724500D01*
X92188385Y-105752379D01*
X92188379Y-105752381D01*
X92056349Y-105807069D01*
X92056340Y-105807074D01*
X91937521Y-105886467D01*
X91937517Y-105886470D01*
X91836470Y-105987517D01*
X91836467Y-105987521D01*
X91757074Y-106106340D01*
X91757069Y-106106349D01*
X91702381Y-106238379D01*
X91702379Y-106238385D01*
X91674500Y-106378542D01*
X91674500Y-106378545D01*
X91674500Y-106521455D01*
X91674500Y-106521457D01*
X91674499Y-106521457D01*
X84050500Y-106521457D01*
X84050500Y-104386494D01*
X84070185Y-104319455D01*
X84122989Y-104273700D01*
X84192147Y-104263756D01*
X84247385Y-104286176D01*
X84342184Y-104355051D01*
X84531588Y-104451557D01*
X84733757Y-104517246D01*
X84943713Y-104550500D01*
X84943714Y-104550500D01*
X85156286Y-104550500D01*
X85156287Y-104550500D01*
X85366243Y-104517246D01*
X85568412Y-104451557D01*
X85757816Y-104355051D01*
X85883474Y-104263756D01*
X85929786Y-104230109D01*
X85929788Y-104230106D01*
X85929792Y-104230104D01*
X86080104Y-104079792D01*
X86080106Y-104079788D01*
X86080109Y-104079786D01*
X86205048Y-103907820D01*
X86205047Y-103907820D01*
X86205051Y-103907816D01*
X86301557Y-103718412D01*
X86367246Y-103516243D01*
X86400500Y-103306287D01*
X86400500Y-103093713D01*
X86367246Y-102883757D01*
X86301557Y-102681588D01*
X86205051Y-102492184D01*
X86205049Y-102492181D01*
X86205048Y-102492179D01*
X86080109Y-102320213D01*
X85929786Y-102169890D01*
X85757820Y-102044951D01*
X85757115Y-102044591D01*
X85749054Y-102040485D01*
X85698259Y-101992512D01*
X85681463Y-101924692D01*
X85703999Y-101858556D01*
X85749054Y-101819515D01*
X85757816Y-101815051D01*
X85888389Y-101720185D01*
X85929786Y-101690109D01*
X85929788Y-101690106D01*
X85929792Y-101690104D01*
X86080104Y-101539792D01*
X86080106Y-101539788D01*
X86080109Y-101539786D01*
X86205048Y-101367820D01*
X86205047Y-101367820D01*
X86205051Y-101367816D01*
X86301557Y-101178412D01*
X86367246Y-100976243D01*
X86400500Y-100766287D01*
X86400500Y-100553713D01*
X86388642Y-100478847D01*
X86366484Y-100338945D01*
X86368123Y-100338685D01*
X86371257Y-100276126D01*
X86400655Y-100229289D01*
X88005276Y-98624669D01*
X88076465Y-98518127D01*
X88125501Y-98399744D01*
X88150500Y-98274069D01*
X88150500Y-96474500D01*
X88170185Y-96407461D01*
X88222989Y-96361706D01*
X88274500Y-96350500D01*
X88328844Y-96350500D01*
X88328845Y-96350499D01*
X88483497Y-96319737D01*
X88629179Y-96259394D01*
X88629185Y-96259390D01*
X88760875Y-96171398D01*
X88827553Y-96150520D01*
X88829766Y-96150500D01*
X91049903Y-96150500D01*
X91116942Y-96170185D01*
X91137584Y-96186819D01*
X94885966Y-99935201D01*
X94919451Y-99996524D01*
X94914467Y-100066216D01*
X94872595Y-100122149D01*
X94807131Y-100146566D01*
X94750835Y-100137444D01*
X94733501Y-100130264D01*
X94733489Y-100130261D01*
X94578845Y-100099500D01*
X94578842Y-100099500D01*
X94421158Y-100099500D01*
X94421155Y-100099500D01*
X94266510Y-100130261D01*
X94266498Y-100130264D01*
X94120827Y-100190602D01*
X94120814Y-100190609D01*
X93989711Y-100278210D01*
X93989707Y-100278213D01*
X93878213Y-100389707D01*
X93878210Y-100389711D01*
X93790609Y-100520814D01*
X93790602Y-100520827D01*
X93730264Y-100666498D01*
X93730261Y-100666510D01*
X93699500Y-100821153D01*
X93699500Y-100978846D01*
X93730261Y-101133489D01*
X93730264Y-101133501D01*
X93790602Y-101279172D01*
X93790609Y-101279185D01*
X93878210Y-101410288D01*
X93878213Y-101410292D01*
X93989707Y-101521786D01*
X93989711Y-101521789D01*
X94120814Y-101609390D01*
X94120827Y-101609397D01*
X94266498Y-101669735D01*
X94266503Y-101669737D01*
X94421153Y-101700499D01*
X94421156Y-101700500D01*
X94421158Y-101700500D01*
X94499903Y-101700500D01*
X94566942Y-101720185D01*
X94587584Y-101736819D01*
X96963181Y-104112416D01*
X96996666Y-104173739D01*
X96999500Y-104200097D01*
X96999500Y-106205232D01*
X96979815Y-106272271D01*
X96978603Y-106274122D01*
X96957070Y-106306348D01*
X96902381Y-106438379D01*
X96902379Y-106438385D01*
X96874500Y-106578542D01*
X96874500Y-106578545D01*
X96874500Y-106721455D01*
X96874500Y-106721457D01*
X96874499Y-106721457D01*
X96902379Y-106861614D01*
X96902381Y-106861620D01*
X96957069Y-106993650D01*
X96957074Y-106993659D01*
X97036467Y-107112478D01*
X97036470Y-107112482D01*
X97137517Y-107213529D01*
X97137521Y-107213532D01*
X97256340Y-107292925D01*
X97256346Y-107292928D01*
X97256347Y-107292929D01*
X97388380Y-107347619D01*
X97388384Y-107347619D01*
X97388385Y-107347620D01*
X97528542Y-107375500D01*
X97528545Y-107375500D01*
X97671457Y-107375500D01*
X97765751Y-107356742D01*
X97811620Y-107347619D01*
X97943653Y-107292929D01*
X98062479Y-107213532D01*
X98163532Y-107112479D01*
X98242929Y-106993653D01*
X98297619Y-106861620D01*
X98325500Y-106721455D01*
X98325500Y-106578545D01*
X98325500Y-106578542D01*
X98297620Y-106438385D01*
X98297619Y-106438384D01*
X98297619Y-106438380D01*
X98242929Y-106306347D01*
X98221396Y-106274121D01*
X98200520Y-106207444D01*
X98200500Y-106205232D01*
X98200500Y-105416228D01*
X114149500Y-105416228D01*
X114149500Y-105583771D01*
X114182182Y-105748074D01*
X114182184Y-105748082D01*
X114246295Y-105902860D01*
X114339373Y-106042162D01*
X114457837Y-106160626D01*
X114524595Y-106205232D01*
X114597137Y-106253703D01*
X114751918Y-106317816D01*
X114916228Y-106350499D01*
X114916232Y-106350500D01*
X114916233Y-106350500D01*
X115083768Y-106350500D01*
X115083769Y-106350499D01*
X115248082Y-106317816D01*
X115402863Y-106253703D01*
X115542162Y-106160626D01*
X115660626Y-106042162D01*
X115753703Y-105902863D01*
X115817816Y-105748082D01*
X115850500Y-105583767D01*
X115850500Y-105416233D01*
X115850499Y-105416228D01*
X120149500Y-105416228D01*
X120149500Y-105583771D01*
X120182182Y-105748074D01*
X120182184Y-105748082D01*
X120246295Y-105902860D01*
X120339373Y-106042162D01*
X120457837Y-106160626D01*
X120524595Y-106205232D01*
X120597137Y-106253703D01*
X120751918Y-106317816D01*
X120916228Y-106350499D01*
X120916232Y-106350500D01*
X120916233Y-106350500D01*
X121083768Y-106350500D01*
X121083769Y-106350499D01*
X121248082Y-106317816D01*
X121402863Y-106253703D01*
X121542162Y-106160626D01*
X121660626Y-106042162D01*
X121753703Y-105902863D01*
X121817816Y-105748082D01*
X121850500Y-105583767D01*
X121850500Y-105416233D01*
X121817816Y-105251918D01*
X121753703Y-105097137D01*
X121722537Y-105050494D01*
X121660626Y-104957837D01*
X121542162Y-104839373D01*
X121402860Y-104746295D01*
X121248082Y-104682184D01*
X121248074Y-104682182D01*
X121083771Y-104649500D01*
X121083767Y-104649500D01*
X120916233Y-104649500D01*
X120916228Y-104649500D01*
X120751925Y-104682182D01*
X120751917Y-104682184D01*
X120597139Y-104746295D01*
X120457837Y-104839373D01*
X120339373Y-104957837D01*
X120246295Y-105097139D01*
X120182184Y-105251917D01*
X120182182Y-105251925D01*
X120149500Y-105416228D01*
X115850499Y-105416228D01*
X115817816Y-105251918D01*
X115753703Y-105097137D01*
X115722537Y-105050494D01*
X115660626Y-104957837D01*
X115542162Y-104839373D01*
X115402860Y-104746295D01*
X115248082Y-104682184D01*
X115248074Y-104682182D01*
X115083771Y-104649500D01*
X115083767Y-104649500D01*
X114916233Y-104649500D01*
X114916228Y-104649500D01*
X114751925Y-104682182D01*
X114751917Y-104682184D01*
X114597139Y-104746295D01*
X114457837Y-104839373D01*
X114339373Y-104957837D01*
X114246295Y-105097139D01*
X114182184Y-105251917D01*
X114182182Y-105251925D01*
X114149500Y-105416228D01*
X98200500Y-105416228D01*
X98200500Y-103989060D01*
X98200501Y-103989047D01*
X98200501Y-103820944D01*
X98200501Y-103820943D01*
X98159577Y-103668216D01*
X98159573Y-103668209D01*
X98080524Y-103531290D01*
X98080518Y-103531282D01*
X96719126Y-102169890D01*
X95309742Y-100760507D01*
X95301998Y-100747344D01*
X95292613Y-100739089D01*
X95283032Y-100715107D01*
X95278190Y-100706876D01*
X95276798Y-100702002D01*
X95269737Y-100666503D01*
X95259831Y-100642589D01*
X95257882Y-100635762D01*
X95258091Y-100607648D01*
X95255086Y-100579697D01*
X95258347Y-100573180D01*
X95258402Y-100565895D01*
X95273777Y-100542356D01*
X95286361Y-100517218D01*
X95292626Y-100513500D01*
X95296612Y-100507399D01*
X95322273Y-100495909D01*
X95346449Y-100481565D01*
X95353730Y-100481824D01*
X95360382Y-100478847D01*
X95388177Y-100483054D01*
X95416274Y-100484058D01*
X95423243Y-100488363D01*
X95429464Y-100489305D01*
X95440541Y-100499048D01*
X95464797Y-100514032D01*
X97965139Y-103014374D01*
X97965149Y-103014385D01*
X97969479Y-103018715D01*
X97969480Y-103018716D01*
X98081284Y-103130520D01*
X98132845Y-103160288D01*
X98168095Y-103180639D01*
X98168097Y-103180641D01*
X98218213Y-103209576D01*
X98218215Y-103209577D01*
X98370942Y-103250500D01*
X98370943Y-103250500D01*
X102520234Y-103250500D01*
X102587273Y-103270185D01*
X102589125Y-103271398D01*
X102720814Y-103359390D01*
X102720827Y-103359397D01*
X102866498Y-103419735D01*
X102866503Y-103419737D01*
X103021153Y-103450499D01*
X103021156Y-103450500D01*
X103021158Y-103450500D01*
X103178844Y-103450500D01*
X103178845Y-103450499D01*
X103333497Y-103419737D01*
X103479179Y-103359394D01*
X103610289Y-103271789D01*
X103721789Y-103160289D01*
X103809394Y-103029179D01*
X103869737Y-102883497D01*
X103900500Y-102728842D01*
X103900500Y-102571158D01*
X103900500Y-102571155D01*
X103900499Y-102571153D01*
X103869738Y-102416510D01*
X103869737Y-102416503D01*
X103829851Y-102320208D01*
X103809397Y-102270827D01*
X103809390Y-102270814D01*
X103721789Y-102139711D01*
X103721786Y-102139707D01*
X103610292Y-102028213D01*
X103610288Y-102028210D01*
X103479185Y-101940609D01*
X103479172Y-101940602D01*
X103333501Y-101880264D01*
X103333489Y-101880261D01*
X103178845Y-101849500D01*
X103178842Y-101849500D01*
X103021158Y-101849500D01*
X103021155Y-101849500D01*
X102866510Y-101880261D01*
X102866498Y-101880264D01*
X102720827Y-101940602D01*
X102720814Y-101940609D01*
X102589125Y-102028602D01*
X102522447Y-102049480D01*
X102520234Y-102049500D01*
X98750097Y-102049500D01*
X98683058Y-102029815D01*
X98662416Y-102013181D01*
X93820692Y-97171457D01*
X96274499Y-97171457D01*
X96302379Y-97311614D01*
X96302381Y-97311620D01*
X96357069Y-97443650D01*
X96357074Y-97443659D01*
X96436467Y-97562478D01*
X96436470Y-97562482D01*
X96537517Y-97663529D01*
X96537521Y-97663532D01*
X96656340Y-97742925D01*
X96656346Y-97742928D01*
X96656347Y-97742929D01*
X96788380Y-97797619D01*
X96788384Y-97797619D01*
X96788385Y-97797620D01*
X96928542Y-97825500D01*
X96928545Y-97825500D01*
X97071457Y-97825500D01*
X97165751Y-97806742D01*
X97211620Y-97797619D01*
X97343653Y-97742929D01*
X97462479Y-97663532D01*
X97563532Y-97562479D01*
X97642929Y-97443653D01*
X97697619Y-97311620D01*
X97705180Y-97273606D01*
X97737563Y-97211697D01*
X97739056Y-97210177D01*
X99080520Y-95868716D01*
X99159577Y-95731784D01*
X99200501Y-95579057D01*
X99200501Y-95420942D01*
X99200501Y-95413347D01*
X99200500Y-95413329D01*
X99200500Y-92844766D01*
X99220185Y-92777727D01*
X99221399Y-92775874D01*
X99242929Y-92743653D01*
X99297619Y-92611620D01*
X99325500Y-92471455D01*
X99325500Y-92328545D01*
X99325500Y-92328542D01*
X99297620Y-92188385D01*
X99297619Y-92188384D01*
X99297619Y-92188380D01*
X99242929Y-92056347D01*
X99242928Y-92056346D01*
X99242925Y-92056340D01*
X99163532Y-91937521D01*
X99163529Y-91937517D01*
X99062482Y-91836470D01*
X99062478Y-91836467D01*
X98943659Y-91757074D01*
X98943650Y-91757069D01*
X98811620Y-91702381D01*
X98811614Y-91702379D01*
X98704029Y-91680979D01*
X98642118Y-91648594D01*
X98607544Y-91587878D01*
X98606615Y-91583609D01*
X98597619Y-91538380D01*
X98542929Y-91406347D01*
X98542928Y-91406346D01*
X98542925Y-91406340D01*
X98463532Y-91287521D01*
X98463529Y-91287517D01*
X98362482Y-91186470D01*
X98362478Y-91186467D01*
X98243659Y-91107074D01*
X98243650Y-91107069D01*
X98111620Y-91052381D01*
X98111614Y-91052379D01*
X97971457Y-91024500D01*
X97971455Y-91024500D01*
X97828545Y-91024500D01*
X97828543Y-91024500D01*
X97688385Y-91052379D01*
X97688379Y-91052381D01*
X97556349Y-91107069D01*
X97556340Y-91107074D01*
X97437521Y-91186467D01*
X97437517Y-91186470D01*
X97336470Y-91287517D01*
X97336467Y-91287521D01*
X97257074Y-91406340D01*
X97257069Y-91406349D01*
X97202380Y-91538381D01*
X97202379Y-91538384D01*
X97184365Y-91628942D01*
X97170137Y-91666746D01*
X97140424Y-91718212D01*
X97140423Y-91718213D01*
X97127969Y-91764692D01*
X97099499Y-91870943D01*
X97099499Y-91870945D01*
X97099499Y-92039046D01*
X97099500Y-92039059D01*
X97099500Y-93755232D01*
X97079815Y-93822271D01*
X97078603Y-93824122D01*
X97057070Y-93856348D01*
X97002381Y-93988379D01*
X97002379Y-93988385D01*
X96974500Y-94128542D01*
X96974500Y-94128545D01*
X96974500Y-94271455D01*
X96974500Y-94271457D01*
X96974499Y-94271457D01*
X97002379Y-94411614D01*
X97002381Y-94411620D01*
X97057069Y-94543650D01*
X97057074Y-94543659D01*
X97136467Y-94662478D01*
X97136470Y-94662482D01*
X97237517Y-94763529D01*
X97237521Y-94763532D01*
X97356340Y-94842925D01*
X97356346Y-94842928D01*
X97356347Y-94842929D01*
X97488380Y-94897619D01*
X97488384Y-94897619D01*
X97488385Y-94897620D01*
X97628542Y-94925500D01*
X97628545Y-94925500D01*
X97771456Y-94925500D01*
X97851308Y-94909616D01*
X97872292Y-94911493D01*
X97893147Y-94908495D01*
X97906395Y-94914545D01*
X97920899Y-94915843D01*
X97937536Y-94928767D01*
X97956703Y-94937520D01*
X97964576Y-94949771D01*
X97976077Y-94958705D01*
X97983086Y-94978573D01*
X97994477Y-94996298D01*
X97998011Y-95020880D01*
X97999322Y-95024595D01*
X97999500Y-95031233D01*
X97999500Y-95199902D01*
X97979815Y-95266941D01*
X97963181Y-95287583D01*
X96889880Y-96360883D01*
X96828557Y-96394368D01*
X96826392Y-96394819D01*
X96788383Y-96402379D01*
X96788381Y-96402380D01*
X96656349Y-96457069D01*
X96656340Y-96457074D01*
X96537521Y-96536467D01*
X96537517Y-96536470D01*
X96436470Y-96637517D01*
X96436467Y-96637521D01*
X96357074Y-96756340D01*
X96357069Y-96756349D01*
X96302381Y-96888379D01*
X96302379Y-96888385D01*
X96274500Y-97028542D01*
X96274500Y-97028545D01*
X96274500Y-97171455D01*
X96274500Y-97171457D01*
X96274499Y-97171457D01*
X93820692Y-97171457D01*
X91837590Y-95188355D01*
X91837588Y-95188352D01*
X91718717Y-95069481D01*
X91718716Y-95069480D01*
X91631904Y-95019360D01*
X91631904Y-95019359D01*
X91631900Y-95019358D01*
X91581785Y-94990423D01*
X91429057Y-94949499D01*
X91270943Y-94949499D01*
X91263347Y-94949499D01*
X91263331Y-94949500D01*
X88829766Y-94949500D01*
X88762727Y-94929815D01*
X88760875Y-94928602D01*
X88629185Y-94840609D01*
X88629172Y-94840602D01*
X88483501Y-94780264D01*
X88483489Y-94780261D01*
X88328845Y-94749500D01*
X88328842Y-94749500D01*
X88274500Y-94749500D01*
X88265814Y-94746949D01*
X88256853Y-94748238D01*
X88232812Y-94737259D01*
X88207461Y-94729815D01*
X88201533Y-94722974D01*
X88193297Y-94719213D01*
X88179007Y-94696978D01*
X88161706Y-94677011D01*
X88159418Y-94666496D01*
X88155523Y-94660435D01*
X88150500Y-94625500D01*
X88150500Y-94604935D01*
X88170185Y-94537896D01*
X88171366Y-94536090D01*
X88209394Y-94479179D01*
X88269737Y-94333497D01*
X88300500Y-94178842D01*
X88300500Y-94021158D01*
X88300500Y-94021155D01*
X88300499Y-94021153D01*
X88280337Y-93919792D01*
X88269737Y-93866503D01*
X88265530Y-93856347D01*
X88247142Y-93811952D01*
X88239673Y-93742482D01*
X88270949Y-93680003D01*
X88331038Y-93644352D01*
X88361703Y-93640500D01*
X91973331Y-93640500D01*
X91973347Y-93640501D01*
X91980943Y-93640501D01*
X92139054Y-93640501D01*
X92139057Y-93640501D01*
X92291785Y-93599577D01*
X92341904Y-93570639D01*
X92428716Y-93520520D01*
X92540520Y-93408716D01*
X92540520Y-93408714D01*
X92550728Y-93398507D01*
X92550730Y-93398504D01*
X94760119Y-91189114D01*
X94821440Y-91155631D01*
X94823536Y-91155194D01*
X94861620Y-91147619D01*
X94993653Y-91092929D01*
X95112479Y-91013532D01*
X95213532Y-90912479D01*
X95292929Y-90793653D01*
X95347619Y-90661620D01*
X95375500Y-90521455D01*
X95375500Y-90378545D01*
X95375500Y-90378542D01*
X95347620Y-90238385D01*
X95347619Y-90238384D01*
X95347619Y-90238380D01*
X95292929Y-90106347D01*
X95292928Y-90106346D01*
X95292925Y-90106340D01*
X95213532Y-89987521D01*
X95213529Y-89987517D01*
X95112482Y-89886470D01*
X95112478Y-89886467D01*
X94993659Y-89807074D01*
X94993646Y-89807067D01*
X94863817Y-89753291D01*
X94809413Y-89709450D01*
X94796710Y-89686186D01*
X94756705Y-89589604D01*
X94742932Y-89556353D01*
X94742925Y-89556340D01*
X94676419Y-89456807D01*
X94655541Y-89390129D01*
X94664958Y-89340468D01*
X94697619Y-89261620D01*
X94707577Y-89211557D01*
X94726689Y-89115480D01*
X94729266Y-89115992D01*
X94751105Y-89061791D01*
X94779508Y-89035562D01*
X94812479Y-89013532D01*
X94913532Y-88912479D01*
X94992929Y-88793653D01*
X95047619Y-88661620D01*
X95056742Y-88615751D01*
X95075500Y-88521457D01*
X95075500Y-88378542D01*
X95047620Y-88238385D01*
X95047619Y-88238384D01*
X95047619Y-88238380D01*
X94992929Y-88106347D01*
X94992928Y-88106346D01*
X94992925Y-88106340D01*
X94913532Y-87987521D01*
X94913529Y-87987517D01*
X94812482Y-87886470D01*
X94812478Y-87886467D01*
X94693659Y-87807074D01*
X94693650Y-87807069D01*
X94561618Y-87752380D01*
X94561614Y-87752379D01*
X94523607Y-87744819D01*
X94461696Y-87712434D01*
X94460118Y-87710883D01*
X94240981Y-87491746D01*
X94207496Y-87430423D01*
X94212480Y-87360731D01*
X94254352Y-87304798D01*
X94281206Y-87289505D01*
X94393653Y-87242929D01*
X94512479Y-87163532D01*
X94613532Y-87062479D01*
X94692929Y-86943653D01*
X94747619Y-86811620D01*
X94775500Y-86671455D01*
X94775500Y-86528545D01*
X94775500Y-86528542D01*
X94758251Y-86441829D01*
X94764478Y-86372237D01*
X94807341Y-86317060D01*
X94810957Y-86314548D01*
X94812479Y-86313532D01*
X94913532Y-86212479D01*
X94992929Y-86093653D01*
X95047619Y-85961620D01*
X95075028Y-85823828D01*
X95107413Y-85761917D01*
X95168128Y-85727343D01*
X95237898Y-85731082D01*
X95284326Y-85760338D01*
X95337517Y-85813529D01*
X95337521Y-85813532D01*
X95456340Y-85892925D01*
X95456346Y-85892928D01*
X95456347Y-85892929D01*
X95588380Y-85947619D01*
X95588384Y-85947619D01*
X95588385Y-85947620D01*
X95728542Y-85975500D01*
X95728545Y-85975500D01*
X95871457Y-85975500D01*
X95965751Y-85956742D01*
X96011620Y-85947619D01*
X96143653Y-85892929D01*
X96204922Y-85851989D01*
X96271598Y-85831111D01*
X96321265Y-85840529D01*
X96338380Y-85847619D01*
X96338384Y-85847619D01*
X96338385Y-85847620D01*
X96478542Y-85875500D01*
X96478545Y-85875500D01*
X96621457Y-85875500D01*
X96715751Y-85856742D01*
X96761620Y-85847619D01*
X96893653Y-85792929D01*
X97012479Y-85713532D01*
X97113532Y-85612479D01*
X97192929Y-85493653D01*
X97247619Y-85361620D01*
X97256742Y-85315751D01*
X97275500Y-85221457D01*
X97275500Y-85078542D01*
X97247620Y-84938385D01*
X97247619Y-84938384D01*
X97247619Y-84938380D01*
X97195139Y-84811682D01*
X97192930Y-84806349D01*
X97192925Y-84806340D01*
X97113532Y-84687521D01*
X97113529Y-84687517D01*
X97012482Y-84586470D01*
X97012478Y-84586467D01*
X96893659Y-84507074D01*
X96893650Y-84507069D01*
X96761618Y-84452380D01*
X96761614Y-84452379D01*
X96723607Y-84444819D01*
X96661696Y-84412434D01*
X96660118Y-84410883D01*
X93620388Y-81371153D01*
X99499500Y-81371153D01*
X99499500Y-81528846D01*
X99530261Y-81683489D01*
X99530264Y-81683501D01*
X99590602Y-81829172D01*
X99590609Y-81829185D01*
X99678210Y-81960288D01*
X99678213Y-81960292D01*
X99789707Y-82071786D01*
X99789711Y-82071789D01*
X99920814Y-82159390D01*
X99920827Y-82159397D01*
X99951701Y-82172185D01*
X100066503Y-82219737D01*
X100133581Y-82233079D01*
X100150337Y-82241844D01*
X100168816Y-82245864D01*
X100193852Y-82264606D01*
X100195490Y-82265463D01*
X100197070Y-82267015D01*
X100363181Y-82433126D01*
X100396666Y-82494449D01*
X100399500Y-82520807D01*
X100399500Y-90895064D01*
X100379815Y-90962103D01*
X100378603Y-90963954D01*
X100340608Y-91020817D01*
X100340602Y-91020828D01*
X100280264Y-91166498D01*
X100280261Y-91166510D01*
X100249500Y-91321153D01*
X100249500Y-91478846D01*
X100280261Y-91633489D01*
X100280264Y-91633501D01*
X100340602Y-91779172D01*
X100340609Y-91779185D01*
X100428210Y-91910288D01*
X100428213Y-91910292D01*
X100539707Y-92021786D01*
X100539711Y-92021789D01*
X100670814Y-92109390D01*
X100670827Y-92109397D01*
X100793510Y-92160213D01*
X100816503Y-92169737D01*
X100971153Y-92200499D01*
X100971156Y-92200500D01*
X100971158Y-92200500D01*
X101128844Y-92200500D01*
X101128845Y-92200499D01*
X101283497Y-92169737D01*
X101429179Y-92109394D01*
X101560289Y-92021789D01*
X101671789Y-91910289D01*
X101759394Y-91779179D01*
X101819737Y-91633497D01*
X101850500Y-91478842D01*
X101850500Y-91416228D01*
X114149500Y-91416228D01*
X114149500Y-91583771D01*
X114182182Y-91748074D01*
X114182184Y-91748082D01*
X114246295Y-91902860D01*
X114339373Y-92042162D01*
X114457837Y-92160626D01*
X114499382Y-92188385D01*
X114597137Y-92253703D01*
X114751918Y-92317816D01*
X114916228Y-92350499D01*
X114916232Y-92350500D01*
X114916233Y-92350500D01*
X115083768Y-92350500D01*
X115083769Y-92350499D01*
X115248082Y-92317816D01*
X115402863Y-92253703D01*
X115542162Y-92160626D01*
X115660626Y-92042162D01*
X115753703Y-91902863D01*
X115817816Y-91748082D01*
X115850500Y-91583767D01*
X115850500Y-91416233D01*
X115850499Y-91416228D01*
X120149500Y-91416228D01*
X120149500Y-91583771D01*
X120182182Y-91748074D01*
X120182184Y-91748082D01*
X120246295Y-91902860D01*
X120339373Y-92042162D01*
X120457837Y-92160626D01*
X120499382Y-92188385D01*
X120597137Y-92253703D01*
X120751918Y-92317816D01*
X120916228Y-92350499D01*
X120916232Y-92350500D01*
X120916233Y-92350500D01*
X121083768Y-92350500D01*
X121083769Y-92350499D01*
X121248082Y-92317816D01*
X121402863Y-92253703D01*
X121542162Y-92160626D01*
X121660626Y-92042162D01*
X121753703Y-91902863D01*
X121817816Y-91748082D01*
X121850500Y-91583767D01*
X121850500Y-91416233D01*
X121817816Y-91251918D01*
X121753703Y-91097137D01*
X121702710Y-91020821D01*
X121660626Y-90957837D01*
X121542162Y-90839373D01*
X121402860Y-90746295D01*
X121248082Y-90682184D01*
X121248074Y-90682182D01*
X121083771Y-90649500D01*
X121083767Y-90649500D01*
X120916233Y-90649500D01*
X120916228Y-90649500D01*
X120751925Y-90682182D01*
X120751917Y-90682184D01*
X120597139Y-90746295D01*
X120457837Y-90839373D01*
X120339373Y-90957837D01*
X120246295Y-91097139D01*
X120182184Y-91251917D01*
X120182182Y-91251925D01*
X120149500Y-91416228D01*
X115850499Y-91416228D01*
X115817816Y-91251918D01*
X115753703Y-91097137D01*
X115702710Y-91020821D01*
X115660626Y-90957837D01*
X115542162Y-90839373D01*
X115402860Y-90746295D01*
X115248082Y-90682184D01*
X115248074Y-90682182D01*
X115083771Y-90649500D01*
X115083767Y-90649500D01*
X114916233Y-90649500D01*
X114916228Y-90649500D01*
X114751925Y-90682182D01*
X114751917Y-90682184D01*
X114597139Y-90746295D01*
X114457837Y-90839373D01*
X114339373Y-90957837D01*
X114246295Y-91097139D01*
X114182184Y-91251917D01*
X114182182Y-91251925D01*
X114149500Y-91416228D01*
X101850500Y-91416228D01*
X101850500Y-91321158D01*
X101850500Y-91321155D01*
X101850499Y-91321153D01*
X101843808Y-91287517D01*
X101819737Y-91166503D01*
X101815234Y-91155631D01*
X101759397Y-91020828D01*
X101759396Y-91020827D01*
X101759394Y-91020821D01*
X101721396Y-90963953D01*
X101700520Y-90897276D01*
X101700500Y-90895064D01*
X101700500Y-83921457D01*
X109574499Y-83921457D01*
X109602379Y-84061614D01*
X109602381Y-84061620D01*
X109657069Y-84193650D01*
X109657074Y-84193659D01*
X109736467Y-84312478D01*
X109736470Y-84312482D01*
X109837517Y-84413529D01*
X109837521Y-84413532D01*
X109956340Y-84492925D01*
X109956346Y-84492928D01*
X109956347Y-84492929D01*
X110088380Y-84547619D01*
X110088384Y-84547619D01*
X110088385Y-84547620D01*
X110228542Y-84575500D01*
X110228545Y-84575500D01*
X110371457Y-84575500D01*
X110465751Y-84556742D01*
X110511620Y-84547619D01*
X110643653Y-84492929D01*
X110762479Y-84413532D01*
X110863532Y-84312479D01*
X110942929Y-84193653D01*
X110997619Y-84061620D01*
X111005180Y-84023606D01*
X111037563Y-83961697D01*
X111039057Y-83960176D01*
X112460120Y-82539114D01*
X112521441Y-82505631D01*
X112523526Y-82505196D01*
X112561620Y-82497619D01*
X112693653Y-82442929D01*
X112812479Y-82363532D01*
X112913532Y-82262479D01*
X112992929Y-82143653D01*
X113047619Y-82011620D01*
X113075500Y-81871455D01*
X113075500Y-81728545D01*
X113075500Y-81728542D01*
X113047620Y-81588385D01*
X113047619Y-81588381D01*
X113047619Y-81588380D01*
X112992929Y-81456347D01*
X112992928Y-81456346D01*
X112992925Y-81456340D01*
X112913532Y-81337521D01*
X112913529Y-81337517D01*
X112812482Y-81236470D01*
X112812478Y-81236467D01*
X112693659Y-81157074D01*
X112693650Y-81157069D01*
X112561620Y-81102381D01*
X112561614Y-81102379D01*
X112421457Y-81074500D01*
X112421455Y-81074500D01*
X112278545Y-81074500D01*
X112278543Y-81074500D01*
X112138385Y-81102379D01*
X112138379Y-81102381D01*
X112006349Y-81157069D01*
X112006340Y-81157074D01*
X111887521Y-81236467D01*
X111887517Y-81236470D01*
X111786470Y-81337517D01*
X111786467Y-81337521D01*
X111707074Y-81456340D01*
X111707069Y-81456349D01*
X111652380Y-81588381D01*
X111652379Y-81588384D01*
X111644819Y-81626391D01*
X111612433Y-81688302D01*
X111610883Y-81689879D01*
X110189880Y-83110883D01*
X110128557Y-83144368D01*
X110126392Y-83144819D01*
X110088383Y-83152379D01*
X110088381Y-83152380D01*
X109956349Y-83207069D01*
X109956340Y-83207074D01*
X109837521Y-83286467D01*
X109837517Y-83286470D01*
X109736470Y-83387517D01*
X109736467Y-83387521D01*
X109657074Y-83506340D01*
X109657069Y-83506349D01*
X109602381Y-83638379D01*
X109602379Y-83638385D01*
X109574500Y-83778542D01*
X109574500Y-83778545D01*
X109574500Y-83921455D01*
X109574500Y-83921457D01*
X109574499Y-83921457D01*
X101700500Y-83921457D01*
X101700500Y-82135928D01*
X101675502Y-82010261D01*
X101675501Y-82010260D01*
X101675501Y-82010256D01*
X101626465Y-81891873D01*
X101626464Y-81891872D01*
X101626461Y-81891866D01*
X101555277Y-81785332D01*
X101555276Y-81785331D01*
X101464669Y-81694724D01*
X101117015Y-81347070D01*
X101083530Y-81285747D01*
X101083095Y-81283660D01*
X101069737Y-81216503D01*
X101045119Y-81157069D01*
X101009397Y-81070827D01*
X101009390Y-81070814D01*
X100921789Y-80939711D01*
X100921786Y-80939707D01*
X100810292Y-80828213D01*
X100810288Y-80828210D01*
X100679185Y-80740609D01*
X100679172Y-80740602D01*
X100533501Y-80680264D01*
X100533489Y-80680261D01*
X100378845Y-80649500D01*
X100378842Y-80649500D01*
X100221158Y-80649500D01*
X100221155Y-80649500D01*
X100066510Y-80680261D01*
X100066498Y-80680264D01*
X99920827Y-80740602D01*
X99920814Y-80740609D01*
X99789711Y-80828210D01*
X99789707Y-80828213D01*
X99678213Y-80939707D01*
X99678210Y-80939711D01*
X99590609Y-81070814D01*
X99590602Y-81070827D01*
X99530264Y-81216498D01*
X99530261Y-81216510D01*
X99499500Y-81371153D01*
X93620388Y-81371153D01*
X87147590Y-74898355D01*
X87147588Y-74898352D01*
X87028717Y-74779481D01*
X87028716Y-74779480D01*
X86941904Y-74729360D01*
X86941904Y-74729359D01*
X86941900Y-74729358D01*
X86891785Y-74700423D01*
X86739057Y-74659499D01*
X86580943Y-74659499D01*
X86573347Y-74659499D01*
X86573331Y-74659500D01*
X86335719Y-74659500D01*
X86268680Y-74639815D01*
X86225235Y-74591795D01*
X86205052Y-74552185D01*
X86205051Y-74552184D01*
X86080109Y-74380213D01*
X85929786Y-74229890D01*
X85757820Y-74104951D01*
X85568414Y-74008444D01*
X85568413Y-74008443D01*
X85568412Y-74008443D01*
X85366243Y-73942754D01*
X85366241Y-73942753D01*
X85366240Y-73942753D01*
X85204957Y-73917208D01*
X85156287Y-73909500D01*
X84943713Y-73909500D01*
X84895042Y-73917208D01*
X84733760Y-73942753D01*
X84531585Y-74008444D01*
X84342179Y-74104951D01*
X84247385Y-74173823D01*
X84181578Y-74197303D01*
X84113525Y-74181477D01*
X84064830Y-74131371D01*
X84050500Y-74073505D01*
X84050500Y-73389778D01*
X99449500Y-73389778D01*
X99449500Y-73610221D01*
X99483985Y-73827952D01*
X99552103Y-74037603D01*
X99552104Y-74037606D01*
X99652187Y-74234025D01*
X99781752Y-74412358D01*
X99781756Y-74412363D01*
X99937636Y-74568243D01*
X99937641Y-74568247D01*
X100093192Y-74681260D01*
X100115978Y-74697815D01*
X100244375Y-74763237D01*
X100312393Y-74797895D01*
X100312396Y-74797896D01*
X100417221Y-74831955D01*
X100522049Y-74866015D01*
X100739778Y-74900500D01*
X100739779Y-74900500D01*
X102360221Y-74900500D01*
X102360222Y-74900500D01*
X102577951Y-74866015D01*
X102787606Y-74797895D01*
X102984022Y-74697815D01*
X103162365Y-74568242D01*
X103318242Y-74412365D01*
X103447815Y-74234022D01*
X103547895Y-74037606D01*
X103616015Y-73827951D01*
X103650500Y-73610222D01*
X103650500Y-73389778D01*
X103616015Y-73172049D01*
X103547895Y-72962394D01*
X103547895Y-72962393D01*
X103513237Y-72894375D01*
X103447815Y-72765978D01*
X103406702Y-72709390D01*
X103318247Y-72587641D01*
X103318243Y-72587636D01*
X103162363Y-72431756D01*
X103162358Y-72431752D01*
X102984025Y-72302187D01*
X102984024Y-72302186D01*
X102984022Y-72302185D01*
X102921096Y-72270122D01*
X102787606Y-72202104D01*
X102787603Y-72202103D01*
X102577952Y-72133985D01*
X102469086Y-72116742D01*
X102360222Y-72099500D01*
X100739778Y-72099500D01*
X100667201Y-72110995D01*
X100522047Y-72133985D01*
X100312396Y-72202103D01*
X100312393Y-72202104D01*
X100115974Y-72302187D01*
X99937641Y-72431752D01*
X99937636Y-72431756D01*
X99781756Y-72587636D01*
X99781752Y-72587641D01*
X99652187Y-72765974D01*
X99552104Y-72962393D01*
X99552103Y-72962396D01*
X99483985Y-73172047D01*
X99449500Y-73389778D01*
X84050500Y-73389778D01*
X84050500Y-71921153D01*
X90349500Y-71921153D01*
X90349500Y-72078846D01*
X90380261Y-72233489D01*
X90380264Y-72233501D01*
X90440602Y-72379172D01*
X90440609Y-72379185D01*
X90528210Y-72510288D01*
X90528213Y-72510292D01*
X90639707Y-72621786D01*
X90639711Y-72621789D01*
X90770814Y-72709390D01*
X90770827Y-72709397D01*
X90907418Y-72765974D01*
X90916503Y-72769737D01*
X91071153Y-72800499D01*
X91071156Y-72800500D01*
X91071158Y-72800500D01*
X91228844Y-72800500D01*
X91228845Y-72800499D01*
X91383497Y-72769737D01*
X91529179Y-72709394D01*
X91660289Y-72621789D01*
X91771789Y-72510289D01*
X91859394Y-72379179D01*
X91919737Y-72233497D01*
X91950500Y-72078842D01*
X91950500Y-71921158D01*
X91950500Y-71921155D01*
X91950499Y-71921153D01*
X91919738Y-71766510D01*
X91919737Y-71766503D01*
X91859394Y-71620821D01*
X91821396Y-71563953D01*
X91800520Y-71497276D01*
X91800500Y-71495064D01*
X91800500Y-70420807D01*
X91820185Y-70353768D01*
X91836814Y-70333131D01*
X93780166Y-68389778D01*
X99449500Y-68389778D01*
X99449500Y-68610221D01*
X99483985Y-68827952D01*
X99552103Y-69037603D01*
X99552104Y-69037606D01*
X99652187Y-69234025D01*
X99781752Y-69412358D01*
X99781756Y-69412363D01*
X99937636Y-69568243D01*
X99937641Y-69568247D01*
X100093192Y-69681260D01*
X100115978Y-69697815D01*
X100244375Y-69763237D01*
X100312393Y-69797895D01*
X100312396Y-69797896D01*
X100417221Y-69831955D01*
X100522049Y-69866015D01*
X100739778Y-69900500D01*
X100739779Y-69900500D01*
X102360221Y-69900500D01*
X102360222Y-69900500D01*
X102577951Y-69866015D01*
X102787606Y-69797895D01*
X102984022Y-69697815D01*
X103162365Y-69568242D01*
X103318242Y-69412365D01*
X103447815Y-69234022D01*
X103547895Y-69037606D01*
X103616015Y-68827951D01*
X103650500Y-68610222D01*
X103650500Y-68389778D01*
X106849500Y-68389778D01*
X106849500Y-68610221D01*
X106883985Y-68827952D01*
X106952103Y-69037603D01*
X106952104Y-69037606D01*
X107052187Y-69234025D01*
X107181752Y-69412358D01*
X107181756Y-69412363D01*
X107337636Y-69568243D01*
X107337641Y-69568247D01*
X107493192Y-69681260D01*
X107515978Y-69697815D01*
X107644375Y-69763237D01*
X107712393Y-69797895D01*
X107712396Y-69797896D01*
X107817221Y-69831955D01*
X107922049Y-69866015D01*
X108139778Y-69900500D01*
X108139779Y-69900500D01*
X109760221Y-69900500D01*
X109760222Y-69900500D01*
X109977951Y-69866015D01*
X110187606Y-69797895D01*
X110384022Y-69697815D01*
X110562365Y-69568242D01*
X110718242Y-69412365D01*
X110847815Y-69234022D01*
X110947895Y-69037606D01*
X111016015Y-68827951D01*
X111050500Y-68610222D01*
X111050500Y-68389778D01*
X111016015Y-68172049D01*
X110947895Y-67962394D01*
X110947895Y-67962393D01*
X110913237Y-67894375D01*
X110847815Y-67765978D01*
X110792917Y-67690417D01*
X110718247Y-67587641D01*
X110718243Y-67587636D01*
X110562363Y-67431756D01*
X110562358Y-67431752D01*
X110384025Y-67302187D01*
X110384024Y-67302186D01*
X110384022Y-67302185D01*
X110321096Y-67270122D01*
X110187606Y-67202104D01*
X110187603Y-67202103D01*
X109977952Y-67133985D01*
X109869086Y-67116742D01*
X109760222Y-67099500D01*
X108139778Y-67099500D01*
X108067201Y-67110995D01*
X107922047Y-67133985D01*
X107712396Y-67202103D01*
X107712393Y-67202104D01*
X107515974Y-67302187D01*
X107337641Y-67431752D01*
X107337636Y-67431756D01*
X107181756Y-67587636D01*
X107181752Y-67587641D01*
X107052187Y-67765974D01*
X106952104Y-67962393D01*
X106952103Y-67962396D01*
X106883985Y-68172047D01*
X106849500Y-68389778D01*
X103650500Y-68389778D01*
X103616015Y-68172049D01*
X103547895Y-67962394D01*
X103547895Y-67962393D01*
X103513237Y-67894375D01*
X103447815Y-67765978D01*
X103392917Y-67690417D01*
X103318247Y-67587641D01*
X103318243Y-67587636D01*
X103162363Y-67431756D01*
X103162358Y-67431752D01*
X102984025Y-67302187D01*
X102984024Y-67302186D01*
X102984022Y-67302185D01*
X102921096Y-67270122D01*
X102787606Y-67202104D01*
X102787603Y-67202103D01*
X102577952Y-67133985D01*
X102469086Y-67116742D01*
X102360222Y-67099500D01*
X100739778Y-67099500D01*
X100667201Y-67110995D01*
X100522047Y-67133985D01*
X100312396Y-67202103D01*
X100312393Y-67202104D01*
X100115974Y-67302187D01*
X99937641Y-67431752D01*
X99937636Y-67431756D01*
X99781756Y-67587636D01*
X99781752Y-67587641D01*
X99652187Y-67765974D01*
X99552104Y-67962393D01*
X99552103Y-67962396D01*
X99483985Y-68172047D01*
X99449500Y-68389778D01*
X93780166Y-68389778D01*
X94452931Y-67717013D01*
X94514252Y-67683530D01*
X94516317Y-67683099D01*
X94583497Y-67669737D01*
X94729179Y-67609394D01*
X94860289Y-67521789D01*
X94971789Y-67410289D01*
X95059394Y-67279179D01*
X95119737Y-67133497D01*
X95150500Y-66978842D01*
X95150500Y-66821158D01*
X95150500Y-66821155D01*
X95150499Y-66821153D01*
X95119738Y-66666510D01*
X95119738Y-66666508D01*
X95119737Y-66666503D01*
X95119735Y-66666498D01*
X95059397Y-66520827D01*
X95059390Y-66520814D01*
X94971789Y-66389711D01*
X94971786Y-66389707D01*
X94860292Y-66278213D01*
X94860288Y-66278210D01*
X94729185Y-66190609D01*
X94729172Y-66190602D01*
X94583501Y-66130264D01*
X94583489Y-66130261D01*
X94428845Y-66099500D01*
X94428842Y-66099500D01*
X94271158Y-66099500D01*
X94271155Y-66099500D01*
X94116510Y-66130261D01*
X94116498Y-66130264D01*
X93970827Y-66190602D01*
X93970814Y-66190609D01*
X93839711Y-66278210D01*
X93839707Y-66278213D01*
X93728213Y-66389707D01*
X93728210Y-66389711D01*
X93640609Y-66520814D01*
X93640602Y-66520827D01*
X93580264Y-66666498D01*
X93580261Y-66666508D01*
X93566920Y-66733579D01*
X93534535Y-66795490D01*
X93532984Y-66797068D01*
X90644721Y-69685332D01*
X90644719Y-69685335D01*
X90636384Y-69697811D01*
X90636382Y-69697815D01*
X90573534Y-69791874D01*
X90524499Y-69910255D01*
X90524497Y-69910261D01*
X90499500Y-70035928D01*
X90499500Y-71495064D01*
X90479815Y-71562103D01*
X90478603Y-71563954D01*
X90440608Y-71620817D01*
X90440602Y-71620828D01*
X90380264Y-71766498D01*
X90380261Y-71766510D01*
X90349500Y-71921153D01*
X84050500Y-71921153D01*
X84050500Y-60378711D01*
X84699500Y-60378711D01*
X84699500Y-60621288D01*
X84731161Y-60861785D01*
X84793947Y-61096104D01*
X84886773Y-61320205D01*
X84886776Y-61320212D01*
X85008064Y-61530289D01*
X85008066Y-61530292D01*
X85008067Y-61530293D01*
X85155733Y-61722736D01*
X85155739Y-61722743D01*
X85327256Y-61894260D01*
X85327262Y-61894265D01*
X85519711Y-62041936D01*
X85729788Y-62163224D01*
X85953900Y-62256054D01*
X86188211Y-62318838D01*
X86368586Y-62342584D01*
X86428711Y-62350500D01*
X86428712Y-62350500D01*
X86671289Y-62350500D01*
X86719388Y-62344167D01*
X86911789Y-62318838D01*
X87146100Y-62256054D01*
X87370212Y-62163224D01*
X87580289Y-62041936D01*
X87772738Y-61894265D01*
X87944265Y-61722738D01*
X88091936Y-61530289D01*
X88213224Y-61320212D01*
X88306054Y-61096100D01*
X88368838Y-60861789D01*
X88400500Y-60621288D01*
X88400500Y-60378712D01*
X88400500Y-60378711D01*
X119199500Y-60378711D01*
X119199500Y-60621288D01*
X119231161Y-60861785D01*
X119293947Y-61096104D01*
X119386773Y-61320205D01*
X119386776Y-61320212D01*
X119508064Y-61530289D01*
X119508066Y-61530292D01*
X119508067Y-61530293D01*
X119655733Y-61722736D01*
X119655739Y-61722743D01*
X119827256Y-61894260D01*
X119827262Y-61894265D01*
X120019711Y-62041936D01*
X120229788Y-62163224D01*
X120453900Y-62256054D01*
X120688211Y-62318838D01*
X120868586Y-62342584D01*
X120928711Y-62350500D01*
X120928712Y-62350500D01*
X121171289Y-62350500D01*
X121219388Y-62344167D01*
X121411789Y-62318838D01*
X121646100Y-62256054D01*
X121870212Y-62163224D01*
X122080289Y-62041936D01*
X122272738Y-61894265D01*
X122444265Y-61722738D01*
X122591936Y-61530289D01*
X122713224Y-61320212D01*
X122806054Y-61096100D01*
X122868838Y-60861789D01*
X122900500Y-60621288D01*
X122900500Y-60378712D01*
X122868838Y-60138211D01*
X122806054Y-59903900D01*
X122713224Y-59679788D01*
X122591936Y-59469711D01*
X122444265Y-59277262D01*
X122444260Y-59277256D01*
X122272743Y-59105739D01*
X122272736Y-59105733D01*
X122080293Y-58958067D01*
X122080292Y-58958066D01*
X122080289Y-58958064D01*
X121870212Y-58836776D01*
X121756172Y-58789539D01*
X121646104Y-58743947D01*
X121411785Y-58681161D01*
X121171289Y-58649500D01*
X121171288Y-58649500D01*
X120928712Y-58649500D01*
X120928711Y-58649500D01*
X120688214Y-58681161D01*
X120453895Y-58743947D01*
X120229794Y-58836773D01*
X120229785Y-58836777D01*
X120019706Y-58958067D01*
X119827263Y-59105733D01*
X119827256Y-59105739D01*
X119655739Y-59277256D01*
X119655733Y-59277263D01*
X119508067Y-59469706D01*
X119508064Y-59469710D01*
X119508064Y-59469711D01*
X119496082Y-59490464D01*
X119386777Y-59679785D01*
X119386773Y-59679794D01*
X119293947Y-59903895D01*
X119231161Y-60138214D01*
X119199500Y-60378711D01*
X88400500Y-60378711D01*
X88368838Y-60138211D01*
X88306054Y-59903900D01*
X88213224Y-59679788D01*
X88091936Y-59469711D01*
X87944265Y-59277262D01*
X87944260Y-59277256D01*
X87772743Y-59105739D01*
X87772736Y-59105733D01*
X87580293Y-58958067D01*
X87580292Y-58958066D01*
X87580289Y-58958064D01*
X87370212Y-58836776D01*
X87256172Y-58789539D01*
X87146104Y-58743947D01*
X86911785Y-58681161D01*
X86671289Y-58649500D01*
X86671288Y-58649500D01*
X86428712Y-58649500D01*
X86428711Y-58649500D01*
X86188214Y-58681161D01*
X85953895Y-58743947D01*
X85729794Y-58836773D01*
X85729785Y-58836777D01*
X85519706Y-58958067D01*
X85327263Y-59105733D01*
X85327256Y-59105739D01*
X85155739Y-59277256D01*
X85155733Y-59277263D01*
X85008067Y-59469706D01*
X85008064Y-59469710D01*
X85008064Y-59469711D01*
X84996082Y-59490464D01*
X84886777Y-59679785D01*
X84886773Y-59679794D01*
X84793947Y-59903895D01*
X84731161Y-60138214D01*
X84699500Y-60378711D01*
X84050500Y-60378711D01*
X84050500Y-60004066D01*
X84050765Y-59995956D01*
X84054819Y-59934108D01*
X84067075Y-59747102D01*
X84069190Y-59731048D01*
X84117045Y-59490462D01*
X84121243Y-59474797D01*
X84144337Y-59406762D01*
X84200093Y-59242512D01*
X84206291Y-59227547D01*
X84314790Y-59007533D01*
X84322897Y-58993493D01*
X84427611Y-58836777D01*
X84459177Y-58789534D01*
X84469039Y-58776681D01*
X84630786Y-58592244D01*
X84642244Y-58580786D01*
X84826681Y-58419039D01*
X84839534Y-58409177D01*
X85043493Y-58272897D01*
X85057533Y-58264790D01*
X85277547Y-58156291D01*
X85292512Y-58150093D01*
X85456762Y-58094337D01*
X85524797Y-58071243D01*
X85540464Y-58067045D01*
X85781048Y-58019190D01*
X85797102Y-58017075D01*
X86045957Y-58000765D01*
X86054067Y-58000500D01*
X86115892Y-58000500D01*
X121484108Y-58000500D01*
X121545933Y-58000500D01*
X121554043Y-58000765D01*
G37*
%TD.AperFunction*%
%TA.AperFunction,Conductor*%
G36*
X91086942Y-86040185D02*
G01*
X91107584Y-86056819D01*
X93449695Y-88398930D01*
X93483180Y-88460253D01*
X93478196Y-88529945D01*
X93449698Y-88574290D01*
X93436467Y-88587521D01*
X93357074Y-88706340D01*
X93357069Y-88706349D01*
X93302380Y-88838381D01*
X93302379Y-88838383D01*
X93294819Y-88876392D01*
X93286054Y-88893146D01*
X93282035Y-88911625D01*
X93263286Y-88936670D01*
X93262433Y-88938302D01*
X93260884Y-88939880D01*
X93087582Y-89113182D01*
X93026262Y-89146666D01*
X92999903Y-89149500D01*
X87140097Y-89149500D01*
X87073058Y-89129815D01*
X87052416Y-89113181D01*
X86383757Y-88444522D01*
X86350272Y-88383199D01*
X86353507Y-88318523D01*
X86367246Y-88276243D01*
X86400500Y-88066287D01*
X86400500Y-87853713D01*
X86367246Y-87643757D01*
X86301557Y-87441588D01*
X86205051Y-87252184D01*
X86205049Y-87252181D01*
X86205048Y-87252179D01*
X86080109Y-87080213D01*
X85929786Y-86929890D01*
X85757820Y-86804951D01*
X85757115Y-86804591D01*
X85749054Y-86800485D01*
X85698259Y-86752512D01*
X85681463Y-86684692D01*
X85703999Y-86618556D01*
X85749054Y-86579515D01*
X85757816Y-86575051D01*
X85779789Y-86559086D01*
X85929786Y-86450109D01*
X85929788Y-86450106D01*
X85929792Y-86450104D01*
X86080104Y-86299792D01*
X86080106Y-86299788D01*
X86080109Y-86299786D01*
X86143541Y-86212478D01*
X86205051Y-86127816D01*
X86205349Y-86127230D01*
X86225235Y-86088205D01*
X86273209Y-86037409D01*
X86335719Y-86020500D01*
X91019903Y-86020500D01*
X91086942Y-86040185D01*
G37*
%TD.AperFunction*%
%TD*%
M02*
