M48
; DRILL file KiCad 10.0.1 date 2026-05-20T00:07:01
; FORMAT={-:-/ absolute / metric / decimal}
; #@! TF.CreationDate,2026-05-20T00:07:01+02:00
; #@! TF.GenerationSoftware,Kicad,Pcbnew,10.0.1
; #@! TF.FileFunction,Plated,1,4,PTH
FMAT,2
METRIC
; #@! TA.AperFunction,Plated,PTH,ViaDrill
T1C0.300
; #@! TA.AperFunction,Plated,PTH,ComponentDrill
T2C1.000
; #@! TA.AperFunction,Plated,PTH,ComponentDrill
T3C1.200
%
G90
G05
T1
X85.0Y-65.0
X85.0Y-70.0
X85.0Y-110.0
X87.5Y-94.1
X87.55Y-65.5
X87.55Y-68.5
X87.55Y-70.0
X88.1Y-84.25
X88.25Y-95.55
X90.0Y-60.0
X90.0Y-100.0
X90.0Y-105.25
X90.0Y-110.0
X90.0Y-115.0
X90.2Y-83.85
X90.4Y-86.95
X90.4Y-88.45
X91.15Y-72.0
X91.5Y-105.25
X92.4Y-106.45
X92.4Y-107.1
X93.4Y-103.45
X94.0Y-89.05
X94.05Y-86.6
X94.1Y-89.9
X94.35Y-66.9
X94.35Y-85.75
X94.35Y-88.45
X94.4Y-106.5
X94.4Y-107.25
X94.4Y-108.0
X94.5Y-100.9
X94.65Y-90.45
X95.0Y-95.0
X95.0Y-106.5
X95.0Y-107.25
X95.0Y-108.0
X95.6Y-106.5
X95.6Y-107.25
X95.6Y-108.0
X95.8Y-85.25
X95.8Y-94.75
X96.3Y-70.7
X96.35Y-87.35
X96.35Y-88.25
X96.35Y-89.15
X96.5Y-109.25
X96.55Y-85.15
X97.0Y-97.1
X97.25Y-87.35
X97.25Y-88.25
X97.25Y-89.15
X97.3Y-75.5
X97.6Y-106.65
X97.7Y-94.2
X97.9Y-91.75
X98.05Y-87.35
X98.05Y-88.25
X98.05Y-89.15
X98.5Y-100.7
X98.6Y-92.4
X100.0Y-65.0
X100.0Y-70.0
X100.0Y-100.7
X100.3Y-81.45
X101.05Y-91.4
X102.65Y-78.8
X103.1Y-102.65
X103.55Y-87.35
X103.55Y-88.85
X103.55Y-90.35
X103.95Y-81.45
X105.0Y-90.0
X105.0Y-99.65
X105.0Y-105.0
X105.0Y-110.0
X105.55Y-77.45
X109.4Y-59.2
X110.0Y-65.0
X110.0Y-90.0
X110.0Y-95.0
X110.0Y-99.65
X110.0Y-110.0
X110.0Y-115.0
X110.3Y-83.85
X112.35Y-81.8
X115.0Y-65.0
X115.0Y-70.0
X115.0Y-75.0
X115.0Y-80.0
X115.0Y-95.0
X115.0Y-115.0
X115.95Y-61.475
X115.95Y-62.525
X116.75Y-79.75
X116.75Y-84.75
X120.0Y-65.0
X120.0Y-70.0
X120.0Y-75.0
X120.0Y-100.0
X121.0Y-93.75
X121.0Y-95.0
X121.0Y-96.25
X121.0Y-107.75
X121.0Y-109.0
X121.0Y-110.25
X123.0Y-86.75
X123.0Y-88.0
X123.0Y-89.25
X123.0Y-100.75
X123.0Y-102.0
X123.0Y-103.25
T2
X85.05Y-72.72
X85.05Y-75.26
X85.05Y-77.8
X85.05Y-80.34
X85.05Y-82.88
X85.05Y-85.42
X85.05Y-87.96
X85.05Y-90.5
X85.05Y-93.04
X85.05Y-95.58
X85.05Y-98.12
X85.05Y-100.66
X85.05Y-103.2
X85.05Y-105.74
X94.05Y-114.55
X96.55Y-114.55
X102.8Y-114.55
X105.3Y-114.55
T3
G00X100.9Y-68.5
M15
G01X102.2Y-68.5
M16
G05
G00X100.9Y-73.5
M15
G01X102.2Y-73.5
M16
G05
G00X108.3Y-68.5
M15
G01X109.6Y-68.5
M16
G05
G00X115.8Y-71.0
M15
G01X117.1Y-71.0
M16
G05
M30
