%TF.GenerationSoftware,KiCad,Pcbnew,10.0.1*%
%TF.CreationDate,2026-05-19T00:43:51+02:00*%
%TF.ProjectId,ES8390-breakout,45533833-3930-42d6-9272-65616b6f7574,rev?*%
%TF.SameCoordinates,Original*%
%TF.FileFunction,Soldermask,Top*%
%TF.FilePolarity,Negative*%
%FSLAX46Y46*%
G04 Gerber Fmt 4.6, Leading zero omitted, Abs format (unit mm)*
G04 Created by KiCad (PCBNEW 10.0.1) date 2026-05-19 00:43:51*
%MOMM*%
%LPD*%
G01*
G04 APERTURE LIST*
G04 Aperture macros list*
%AMRoundRect*
0 Rectangle with rounded corners*
0 $1 Rounding radius*
0 $2 $3 $4 $5 $6 $7 $8 $9 X,Y pos of 4 corners*
0 Add a 4 corners polygon primitive as box body*
4,1,4,$2,$3,$4,$5,$6,$7,$8,$9,$2,$3,0*
0 Add four circle primitives for the rounded corners*
1,1,$1+$1,$2,$3*
1,1,$1+$1,$4,$5*
1,1,$1+$1,$6,$7*
1,1,$1+$1,$8,$9*
0 Add four rect primitives between the rounded corners*
20,1,$1+$1,$2,$3,$4,$5,0*
20,1,$1+$1,$4,$5,$6,$7,0*
20,1,$1+$1,$6,$7,$8,$9,0*
20,1,$1+$1,$8,$9,$2,$3,0*%
%AMFreePoly0*
4,1,14,0.318306,0.106694,0.381694,0.043306,0.400000,-0.000888,0.400000,-0.062500,0.381694,-0.106694,0.337500,-0.125000,-0.337500,-0.125000,-0.381694,-0.106694,-0.400000,-0.062500,-0.400000,0.062500,-0.381694,0.106694,-0.337500,0.125000,0.274112,0.125000,0.318306,0.106694,0.318306,0.106694,$1*%
%AMFreePoly1*
4,1,14,0.381694,0.106694,0.400000,0.062500,0.400000,0.000888,0.381694,-0.043306,0.318306,-0.106694,0.274112,-0.125000,-0.337500,-0.125000,-0.381694,-0.106694,-0.400000,-0.062500,-0.400000,0.062500,-0.381694,0.106694,-0.337500,0.125000,0.337500,0.125000,0.381694,0.106694,0.381694,0.106694,$1*%
%AMFreePoly2*
4,1,14,0.106694,0.381694,0.125000,0.337500,0.125000,-0.337500,0.106694,-0.381694,0.062500,-0.400000,-0.062500,-0.400000,-0.106694,-0.381694,-0.125000,-0.337500,-0.125000,0.274112,-0.106694,0.318306,-0.043306,0.381694,0.000888,0.400000,0.062500,0.400000,0.106694,0.381694,0.106694,0.381694,$1*%
%AMFreePoly3*
4,1,14,0.043306,0.381694,0.106694,0.318306,0.125000,0.274112,0.125000,-0.337500,0.106694,-0.381694,0.062500,-0.400000,-0.062500,-0.400000,-0.106694,-0.381694,-0.125000,-0.337500,-0.125000,0.337500,-0.106694,0.381694,-0.062500,0.400000,-0.000888,0.400000,0.043306,0.381694,0.043306,0.381694,$1*%
%AMFreePoly4*
4,1,14,0.381694,0.106694,0.400000,0.062500,0.400000,-0.062500,0.381694,-0.106694,0.337500,-0.125000,-0.274112,-0.125000,-0.318306,-0.106694,-0.381694,-0.043306,-0.400000,0.000888,-0.400000,0.062500,-0.381694,0.106694,-0.337500,0.125000,0.337500,0.125000,0.381694,0.106694,0.381694,0.106694,$1*%
%AMFreePoly5*
4,1,14,0.381694,0.106694,0.400000,0.062500,0.400000,-0.062500,0.381694,-0.106694,0.337500,-0.125000,-0.337500,-0.125000,-0.381694,-0.106694,-0.400000,-0.062500,-0.400000,-0.000888,-0.381694,0.043306,-0.318306,0.106694,-0.274112,0.125000,0.337500,0.125000,0.381694,0.106694,0.381694,0.106694,$1*%
%AMFreePoly6*
4,1,14,0.106694,0.381694,0.125000,0.337500,0.125000,-0.274112,0.106694,-0.318306,0.043306,-0.381694,-0.000888,-0.400000,-0.062500,-0.400000,-0.106694,-0.381694,-0.125000,-0.337500,-0.125000,0.337500,-0.106694,0.381694,-0.062500,0.400000,0.062500,0.400000,0.106694,0.381694,0.106694,0.381694,$1*%
%AMFreePoly7*
4,1,14,0.106694,0.381694,0.125000,0.337500,0.125000,-0.337500,0.106694,-0.381694,0.062500,-0.400000,0.000888,-0.400000,-0.043306,-0.381694,-0.106694,-0.318306,-0.125000,-0.274112,-0.125000,0.337500,-0.106694,0.381694,-0.062500,0.400000,0.062500,0.400000,0.106694,0.381694,0.106694,0.381694,$1*%
G04 Aperture macros list end*
%ADD10RoundRect,0.200000X-0.275000X0.200000X-0.275000X-0.200000X0.275000X-0.200000X0.275000X0.200000X0*%
%ADD11C,3.200000*%
%ADD12RoundRect,0.225000X0.250000X-0.225000X0.250000X0.225000X-0.250000X0.225000X-0.250000X-0.225000X0*%
%ADD13RoundRect,0.200000X0.200000X0.275000X-0.200000X0.275000X-0.200000X-0.275000X0.200000X-0.275000X0*%
%ADD14RoundRect,0.250000X0.600000X0.750000X-0.600000X0.750000X-0.600000X-0.750000X0.600000X-0.750000X0*%
%ADD15O,1.700000X2.000000*%
%ADD16RoundRect,0.225000X-0.225000X-0.250000X0.225000X-0.250000X0.225000X0.250000X-0.225000X0.250000X0*%
%ADD17RoundRect,0.225000X0.225000X0.250000X-0.225000X0.250000X-0.225000X-0.250000X0.225000X-0.250000X0*%
%ADD18RoundRect,0.225000X-0.250000X0.225000X-0.250000X-0.225000X0.250000X-0.225000X0.250000X0.225000X0*%
%ADD19RoundRect,0.200000X-0.200000X-0.275000X0.200000X-0.275000X0.200000X0.275000X-0.200000X0.275000X0*%
%ADD20RoundRect,0.050000X-0.150000X-0.300000X0.150000X-0.300000X0.150000X0.300000X-0.150000X0.300000X0*%
%ADD21RoundRect,0.050000X-0.300000X0.150000X-0.300000X-0.150000X0.300000X-0.150000X0.300000X0.150000X0*%
%ADD22RoundRect,0.218750X0.256250X-0.218750X0.256250X0.218750X-0.256250X0.218750X-0.256250X-0.218750X0*%
%ADD23C,1.200000*%
%ADD24R,1.600000X3.000000*%
%ADD25R,1.700000X1.700000*%
%ADD26C,1.700000*%
%ADD27RoundRect,0.050000X0.337500X0.050000X-0.337500X0.050000X-0.337500X-0.050000X0.337500X-0.050000X0*%
%ADD28R,1.780000X2.350000*%
%ADD29O,0.568000X1.950000*%
%ADD30O,3.200000X1.800000*%
%ADD31R,0.540000X0.600000*%
%ADD32RoundRect,0.200000X0.275000X-0.200000X0.275000X0.200000X-0.275000X0.200000X-0.275000X-0.200000X0*%
%ADD33RoundRect,0.150000X0.512500X0.150000X-0.512500X0.150000X-0.512500X-0.150000X0.512500X-0.150000X0*%
%ADD34FreePoly0,0.000000*%
%ADD35RoundRect,0.062500X-0.337500X-0.062500X0.337500X-0.062500X0.337500X0.062500X-0.337500X0.062500X0*%
%ADD36FreePoly1,0.000000*%
%ADD37FreePoly2,0.000000*%
%ADD38RoundRect,0.062500X-0.062500X-0.337500X0.062500X-0.337500X0.062500X0.337500X-0.062500X0.337500X0*%
%ADD39FreePoly3,0.000000*%
%ADD40FreePoly4,0.000000*%
%ADD41FreePoly5,0.000000*%
%ADD42FreePoly6,0.000000*%
%ADD43FreePoly7,0.000000*%
%ADD44R,2.600000X2.600000*%
G04 APERTURE END LIST*
D10*
%TO.C,R8*%
X97000000Y-101650000D03*
X97000000Y-103300000D03*
%TD*%
D11*
%TO.C,H1*%
X121050000Y-60500000D03*
%TD*%
D12*
%TO.C,C21*%
X100000000Y-103250000D03*
X100000000Y-101700000D03*
%TD*%
D13*
%TO.C,R12*%
X92825000Y-73000000D03*
X91175000Y-73000000D03*
%TD*%
D14*
%TO.C,J3*%
X96550000Y-114550000D03*
D15*
X94050000Y-114550000D03*
%TD*%
D16*
%TO.C,C13*%
X101075000Y-88850000D03*
X102625000Y-88850000D03*
%TD*%
D13*
%TO.C,R5*%
X92925000Y-89950000D03*
X91275000Y-89950000D03*
%TD*%
D16*
%TO.C,C20*%
X113450000Y-83000000D03*
X115000000Y-83000000D03*
%TD*%
D12*
%TO.C,C23*%
X91500000Y-107675000D03*
X91500000Y-106125000D03*
%TD*%
D10*
%TO.C,R6*%
X107050000Y-78375000D03*
X107050000Y-80025000D03*
%TD*%
D17*
%TO.C,C14*%
X90000000Y-65500000D03*
X88450000Y-65500000D03*
%TD*%
D18*
%TO.C,C2*%
X95800000Y-92275000D03*
X95800000Y-93825000D03*
%TD*%
D17*
%TO.C,C1*%
X92875000Y-86950000D03*
X91325000Y-86950000D03*
%TD*%
%TO.C,C11*%
X95775000Y-76000000D03*
X94225000Y-76000000D03*
%TD*%
D12*
%TO.C,C5*%
X105550000Y-79975000D03*
X105550000Y-78425000D03*
%TD*%
D16*
%TO.C,C15*%
X101075000Y-87350000D03*
X102625000Y-87350000D03*
%TD*%
D19*
%TO.C,R15*%
X96425000Y-62500000D03*
X98075000Y-62500000D03*
%TD*%
D10*
%TO.C,R19*%
X91900000Y-100875000D03*
X91900000Y-102525000D03*
%TD*%
D20*
%TO.C,D1*%
X117375000Y-79750000D03*
X118075000Y-79750000D03*
%TD*%
D13*
%TO.C,R18*%
X118050000Y-83000000D03*
X116400000Y-83000000D03*
%TD*%
D21*
%TO.C,D3*%
X110000000Y-100325000D03*
X110000000Y-101025000D03*
%TD*%
D12*
%TO.C,C22*%
X98500000Y-103250000D03*
X98500000Y-101700000D03*
%TD*%
%TO.C,C6*%
X101500000Y-100250000D03*
X101500000Y-98700000D03*
%TD*%
D22*
%TO.C,FB1*%
X88000000Y-74037500D03*
X88000000Y-72462500D03*
%TD*%
D13*
%TO.C,R3*%
X90050000Y-68500000D03*
X88400000Y-68500000D03*
%TD*%
D16*
%TO.C,C9*%
X101475000Y-81450000D03*
X103025000Y-81450000D03*
%TD*%
D13*
%TO.C,R16*%
X110575000Y-62490000D03*
X108925000Y-62490000D03*
%TD*%
D14*
%TO.C,J2*%
X105300000Y-114550000D03*
D15*
X102800000Y-114550000D03*
%TD*%
D23*
%TO.C,CN2*%
X121000000Y-91500000D03*
X115000000Y-91500000D03*
D24*
X122300000Y-95000000D03*
X113000000Y-95000000D03*
X114600000Y-88000000D03*
X121600000Y-88000000D03*
X118700000Y-95000000D03*
%TD*%
D25*
%TO.C,CN1*%
X85050000Y-105740000D03*
D26*
X85050000Y-103200000D03*
X85050000Y-100660000D03*
X85050000Y-98120000D03*
X85050000Y-95580000D03*
X85050000Y-93040000D03*
X85050000Y-90500000D03*
X85050000Y-87960000D03*
X85050000Y-85420000D03*
X85050000Y-82880000D03*
X85050000Y-80340000D03*
X85050000Y-77800000D03*
X85050000Y-75260000D03*
X85050000Y-72720000D03*
%TD*%
D17*
%TO.C,C8*%
X90000000Y-70000000D03*
X88450000Y-70000000D03*
%TD*%
D19*
%TO.C,R17*%
X116400000Y-81500000D03*
X118050000Y-81500000D03*
%TD*%
D17*
%TO.C,C10*%
X95775000Y-73000000D03*
X94225000Y-73000000D03*
%TD*%
D13*
%TO.C,R1*%
X92925000Y-85450000D03*
X91275000Y-85450000D03*
%TD*%
%TO.C,R13*%
X94550000Y-62500000D03*
X92900000Y-62500000D03*
%TD*%
D12*
%TO.C,C12*%
X108250000Y-97950000D03*
X108250000Y-96400000D03*
%TD*%
D11*
%TO.C,H3*%
X86550000Y-60500000D03*
%TD*%
D16*
%TO.C,C18*%
X105975000Y-62500000D03*
X107525000Y-62500000D03*
%TD*%
D27*
%TO.C,U5*%
X96475000Y-108450000D03*
X96475000Y-108050000D03*
X96475000Y-107650000D03*
X96475000Y-107250000D03*
X96475000Y-106850000D03*
X96475000Y-106450000D03*
X96475000Y-106050000D03*
X93500000Y-106050000D03*
X93500000Y-106450000D03*
X93500000Y-106850000D03*
X93500000Y-107250000D03*
X93500000Y-107650000D03*
X93500000Y-108050000D03*
X93500000Y-108450000D03*
D28*
X94987500Y-107250000D03*
%TD*%
D29*
%TO.C,U1*%
X91825000Y-70710000D03*
X93095000Y-70710000D03*
X94355000Y-70710000D03*
X95625000Y-70710000D03*
X95625000Y-65290000D03*
X94355000Y-65290000D03*
X93095000Y-65290000D03*
X91825000Y-65290000D03*
%TD*%
D30*
%TO.C,J1*%
X116450000Y-71000000D03*
X108950000Y-68500000D03*
X101550000Y-68500000D03*
X101550000Y-73500000D03*
%TD*%
D10*
%TO.C,R9*%
X97275000Y-72925000D03*
X97275000Y-74575000D03*
%TD*%
D31*
%TO.C,U4*%
X113040000Y-61480000D03*
X113040000Y-62520000D03*
X114960000Y-62520000D03*
X114960000Y-61480000D03*
%TD*%
D21*
%TO.C,D4*%
X105000000Y-100325000D03*
X105000000Y-101025000D03*
%TD*%
D10*
%TO.C,R4*%
X106750000Y-99350000D03*
X106750000Y-101000000D03*
%TD*%
D17*
%TO.C,C16*%
X101025000Y-62500000D03*
X99475000Y-62500000D03*
%TD*%
D12*
%TO.C,C3*%
X106750000Y-97950000D03*
X106750000Y-96400000D03*
%TD*%
D13*
%TO.C,R10*%
X92825000Y-74500000D03*
X91175000Y-74500000D03*
%TD*%
D17*
%TO.C,C4*%
X92875000Y-88450000D03*
X91325000Y-88450000D03*
%TD*%
D11*
%TO.C,H4*%
X86550000Y-114500000D03*
%TD*%
D12*
%TO.C,C25*%
X110600000Y-60775000D03*
X110600000Y-59225000D03*
%TD*%
D19*
%TO.C,R2*%
X88400000Y-67000000D03*
X90050000Y-67000000D03*
%TD*%
D17*
%TO.C,C19*%
X115000000Y-81500000D03*
X113450000Y-81500000D03*
%TD*%
D20*
%TO.C,D2*%
X117375000Y-84750000D03*
X118075000Y-84750000D03*
%TD*%
D23*
%TO.C,CN3*%
X121000000Y-105500000D03*
X115000000Y-105500000D03*
D24*
X122300000Y-109000000D03*
X113000000Y-109000000D03*
X114600000Y-102000000D03*
X121600000Y-102000000D03*
X118700000Y-109000000D03*
%TD*%
D10*
%TO.C,R14*%
X108250000Y-99350000D03*
X108250000Y-101000000D03*
%TD*%
%TO.C,R7*%
X101510000Y-101650000D03*
X101510000Y-103300000D03*
%TD*%
D32*
%TO.C,R20*%
X93400000Y-102525000D03*
X93400000Y-100875000D03*
%TD*%
D16*
%TO.C,C17*%
X101075000Y-90350000D03*
X102625000Y-90350000D03*
%TD*%
D33*
%TO.C,U2*%
X103800000Y-79700000D03*
X103800000Y-78750000D03*
X103800000Y-77800000D03*
X101525000Y-77800000D03*
X101525000Y-79700000D03*
%TD*%
D12*
%TO.C,C24*%
X90000000Y-107675000D03*
X90000000Y-106125000D03*
%TD*%
D34*
%TO.C,U3*%
X95300000Y-86900000D03*
D35*
X95300000Y-87350000D03*
X95300000Y-87800000D03*
X95300000Y-88250000D03*
X95300000Y-88700000D03*
X95300000Y-89150000D03*
D36*
X95300000Y-89600000D03*
D37*
X95900000Y-90200000D03*
D38*
X96350000Y-90200000D03*
X96800000Y-90200000D03*
X97250000Y-90200000D03*
X97700000Y-90200000D03*
X98150000Y-90200000D03*
D39*
X98600000Y-90200000D03*
D40*
X99200000Y-89600000D03*
D35*
X99200000Y-89150000D03*
X99200000Y-88700000D03*
X99200000Y-88250000D03*
X99200000Y-87800000D03*
X99200000Y-87350000D03*
D41*
X99200000Y-86900000D03*
D42*
X98600000Y-86300000D03*
D38*
X98150000Y-86300000D03*
X97700000Y-86300000D03*
X97250000Y-86300000D03*
X96800000Y-86300000D03*
X96350000Y-86300000D03*
D43*
X95900000Y-86300000D03*
D44*
X97250000Y-88250000D03*
%TD*%
D11*
%TO.C,H2*%
X121050000Y-114500000D03*
%TD*%
D12*
%TO.C,C7*%
X97000000Y-100250000D03*
X97000000Y-98700000D03*
%TD*%
D19*
%TO.C,R11*%
X94175000Y-74500000D03*
X95825000Y-74500000D03*
%TD*%
M02*
