%TF.GenerationSoftware,KiCad,Pcbnew,10.0.1*%
%TF.CreationDate,2026-05-19T00:43:51+02:00*%
%TF.ProjectId,ES8390-breakout,45533833-3930-42d6-9272-65616b6f7574,rev?*%
%TF.SameCoordinates,Original*%
%TF.FileFunction,Legend,Top*%
%TF.FilePolarity,Positive*%
%FSLAX46Y46*%
G04 Gerber Fmt 4.6, Leading zero omitted, Abs format (unit mm)*
G04 Created by KiCad (PCBNEW 10.0.1) date 2026-05-19 00:43:51*
%MOMM*%
%LPD*%
G01*
G04 APERTURE LIST*
%ADD10C,0.150000*%
%ADD11C,0.120000*%
%ADD12C,0.250000*%
%ADD13C,0.060000*%
%ADD14C,0.300000*%
%ADD15C,0.000000*%
G04 APERTURE END LIST*
D10*
X95854819Y-102537897D02*
X95378628Y-102871230D01*
X95854819Y-103109325D02*
X94854819Y-103109325D01*
X94854819Y-103109325D02*
X94854819Y-102728373D01*
X94854819Y-102728373D02*
X94902438Y-102633135D01*
X94902438Y-102633135D02*
X94950057Y-102585516D01*
X94950057Y-102585516D02*
X95045295Y-102537897D01*
X95045295Y-102537897D02*
X95188152Y-102537897D01*
X95188152Y-102537897D02*
X95283390Y-102585516D01*
X95283390Y-102585516D02*
X95331009Y-102633135D01*
X95331009Y-102633135D02*
X95378628Y-102728373D01*
X95378628Y-102728373D02*
X95378628Y-103109325D01*
X95283390Y-101966468D02*
X95235771Y-102061706D01*
X95235771Y-102061706D02*
X95188152Y-102109325D01*
X95188152Y-102109325D02*
X95092914Y-102156944D01*
X95092914Y-102156944D02*
X95045295Y-102156944D01*
X95045295Y-102156944D02*
X94950057Y-102109325D01*
X94950057Y-102109325D02*
X94902438Y-102061706D01*
X94902438Y-102061706D02*
X94854819Y-101966468D01*
X94854819Y-101966468D02*
X94854819Y-101775992D01*
X94854819Y-101775992D02*
X94902438Y-101680754D01*
X94902438Y-101680754D02*
X94950057Y-101633135D01*
X94950057Y-101633135D02*
X95045295Y-101585516D01*
X95045295Y-101585516D02*
X95092914Y-101585516D01*
X95092914Y-101585516D02*
X95188152Y-101633135D01*
X95188152Y-101633135D02*
X95235771Y-101680754D01*
X95235771Y-101680754D02*
X95283390Y-101775992D01*
X95283390Y-101775992D02*
X95283390Y-101966468D01*
X95283390Y-101966468D02*
X95331009Y-102061706D01*
X95331009Y-102061706D02*
X95378628Y-102109325D01*
X95378628Y-102109325D02*
X95473866Y-102156944D01*
X95473866Y-102156944D02*
X95664342Y-102156944D01*
X95664342Y-102156944D02*
X95759580Y-102109325D01*
X95759580Y-102109325D02*
X95807200Y-102061706D01*
X95807200Y-102061706D02*
X95854819Y-101966468D01*
X95854819Y-101966468D02*
X95854819Y-101775992D01*
X95854819Y-101775992D02*
X95807200Y-101680754D01*
X95807200Y-101680754D02*
X95759580Y-101633135D01*
X95759580Y-101633135D02*
X95664342Y-101585516D01*
X95664342Y-101585516D02*
X95473866Y-101585516D01*
X95473866Y-101585516D02*
X95378628Y-101633135D01*
X95378628Y-101633135D02*
X95331009Y-101680754D01*
X95331009Y-101680754D02*
X95283390Y-101775992D01*
X100309580Y-100114088D02*
X100357200Y-100161707D01*
X100357200Y-100161707D02*
X100404819Y-100304564D01*
X100404819Y-100304564D02*
X100404819Y-100399802D01*
X100404819Y-100399802D02*
X100357200Y-100542659D01*
X100357200Y-100542659D02*
X100261961Y-100637897D01*
X100261961Y-100637897D02*
X100166723Y-100685516D01*
X100166723Y-100685516D02*
X99976247Y-100733135D01*
X99976247Y-100733135D02*
X99833390Y-100733135D01*
X99833390Y-100733135D02*
X99642914Y-100685516D01*
X99642914Y-100685516D02*
X99547676Y-100637897D01*
X99547676Y-100637897D02*
X99452438Y-100542659D01*
X99452438Y-100542659D02*
X99404819Y-100399802D01*
X99404819Y-100399802D02*
X99404819Y-100304564D01*
X99404819Y-100304564D02*
X99452438Y-100161707D01*
X99452438Y-100161707D02*
X99500057Y-100114088D01*
X99500057Y-99733135D02*
X99452438Y-99685516D01*
X99452438Y-99685516D02*
X99404819Y-99590278D01*
X99404819Y-99590278D02*
X99404819Y-99352183D01*
X99404819Y-99352183D02*
X99452438Y-99256945D01*
X99452438Y-99256945D02*
X99500057Y-99209326D01*
X99500057Y-99209326D02*
X99595295Y-99161707D01*
X99595295Y-99161707D02*
X99690533Y-99161707D01*
X99690533Y-99161707D02*
X99833390Y-99209326D01*
X99833390Y-99209326D02*
X100404819Y-99780754D01*
X100404819Y-99780754D02*
X100404819Y-99161707D01*
X100404819Y-98209326D02*
X100404819Y-98780754D01*
X100404819Y-98495040D02*
X99404819Y-98495040D01*
X99404819Y-98495040D02*
X99547676Y-98590278D01*
X99547676Y-98590278D02*
X99642914Y-98685516D01*
X99642914Y-98685516D02*
X99690533Y-98780754D01*
X91357142Y-76554819D02*
X91023809Y-76078628D01*
X90785714Y-76554819D02*
X90785714Y-75554819D01*
X90785714Y-75554819D02*
X91166666Y-75554819D01*
X91166666Y-75554819D02*
X91261904Y-75602438D01*
X91261904Y-75602438D02*
X91309523Y-75650057D01*
X91309523Y-75650057D02*
X91357142Y-75745295D01*
X91357142Y-75745295D02*
X91357142Y-75888152D01*
X91357142Y-75888152D02*
X91309523Y-75983390D01*
X91309523Y-75983390D02*
X91261904Y-76031009D01*
X91261904Y-76031009D02*
X91166666Y-76078628D01*
X91166666Y-76078628D02*
X90785714Y-76078628D01*
X92309523Y-76554819D02*
X91738095Y-76554819D01*
X92023809Y-76554819D02*
X92023809Y-75554819D01*
X92023809Y-75554819D02*
X91928571Y-75697676D01*
X91928571Y-75697676D02*
X91833333Y-75792914D01*
X91833333Y-75792914D02*
X91738095Y-75840533D01*
X92690476Y-75650057D02*
X92738095Y-75602438D01*
X92738095Y-75602438D02*
X92833333Y-75554819D01*
X92833333Y-75554819D02*
X93071428Y-75554819D01*
X93071428Y-75554819D02*
X93166666Y-75602438D01*
X93166666Y-75602438D02*
X93214285Y-75650057D01*
X93214285Y-75650057D02*
X93261904Y-75745295D01*
X93261904Y-75745295D02*
X93261904Y-75840533D01*
X93261904Y-75840533D02*
X93214285Y-75983390D01*
X93214285Y-75983390D02*
X92642857Y-76554819D01*
X92642857Y-76554819D02*
X93261904Y-76554819D01*
X106466666Y-109454819D02*
X106466666Y-110169104D01*
X106466666Y-110169104D02*
X106419047Y-110311961D01*
X106419047Y-110311961D02*
X106323809Y-110407200D01*
X106323809Y-110407200D02*
X106180952Y-110454819D01*
X106180952Y-110454819D02*
X106085714Y-110454819D01*
X106847619Y-109454819D02*
X107466666Y-109454819D01*
X107466666Y-109454819D02*
X107133333Y-109835771D01*
X107133333Y-109835771D02*
X107276190Y-109835771D01*
X107276190Y-109835771D02*
X107371428Y-109883390D01*
X107371428Y-109883390D02*
X107419047Y-109931009D01*
X107419047Y-109931009D02*
X107466666Y-110026247D01*
X107466666Y-110026247D02*
X107466666Y-110264342D01*
X107466666Y-110264342D02*
X107419047Y-110359580D01*
X107419047Y-110359580D02*
X107371428Y-110407200D01*
X107371428Y-110407200D02*
X107276190Y-110454819D01*
X107276190Y-110454819D02*
X106990476Y-110454819D01*
X106990476Y-110454819D02*
X106895238Y-110407200D01*
X106895238Y-110407200D02*
X106847619Y-110359580D01*
X104207142Y-89209580D02*
X104159523Y-89257200D01*
X104159523Y-89257200D02*
X104016666Y-89304819D01*
X104016666Y-89304819D02*
X103921428Y-89304819D01*
X103921428Y-89304819D02*
X103778571Y-89257200D01*
X103778571Y-89257200D02*
X103683333Y-89161961D01*
X103683333Y-89161961D02*
X103635714Y-89066723D01*
X103635714Y-89066723D02*
X103588095Y-88876247D01*
X103588095Y-88876247D02*
X103588095Y-88733390D01*
X103588095Y-88733390D02*
X103635714Y-88542914D01*
X103635714Y-88542914D02*
X103683333Y-88447676D01*
X103683333Y-88447676D02*
X103778571Y-88352438D01*
X103778571Y-88352438D02*
X103921428Y-88304819D01*
X103921428Y-88304819D02*
X104016666Y-88304819D01*
X104016666Y-88304819D02*
X104159523Y-88352438D01*
X104159523Y-88352438D02*
X104207142Y-88400057D01*
X105159523Y-89304819D02*
X104588095Y-89304819D01*
X104873809Y-89304819D02*
X104873809Y-88304819D01*
X104873809Y-88304819D02*
X104778571Y-88447676D01*
X104778571Y-88447676D02*
X104683333Y-88542914D01*
X104683333Y-88542914D02*
X104588095Y-88590533D01*
X105492857Y-88304819D02*
X106111904Y-88304819D01*
X106111904Y-88304819D02*
X105778571Y-88685771D01*
X105778571Y-88685771D02*
X105921428Y-88685771D01*
X105921428Y-88685771D02*
X106016666Y-88733390D01*
X106016666Y-88733390D02*
X106064285Y-88781009D01*
X106064285Y-88781009D02*
X106111904Y-88876247D01*
X106111904Y-88876247D02*
X106111904Y-89114342D01*
X106111904Y-89114342D02*
X106064285Y-89209580D01*
X106064285Y-89209580D02*
X106016666Y-89257200D01*
X106016666Y-89257200D02*
X105921428Y-89304819D01*
X105921428Y-89304819D02*
X105635714Y-89304819D01*
X105635714Y-89304819D02*
X105540476Y-89257200D01*
X105540476Y-89257200D02*
X105492857Y-89209580D01*
X89433333Y-90404819D02*
X89100000Y-89928628D01*
X88861905Y-90404819D02*
X88861905Y-89404819D01*
X88861905Y-89404819D02*
X89242857Y-89404819D01*
X89242857Y-89404819D02*
X89338095Y-89452438D01*
X89338095Y-89452438D02*
X89385714Y-89500057D01*
X89385714Y-89500057D02*
X89433333Y-89595295D01*
X89433333Y-89595295D02*
X89433333Y-89738152D01*
X89433333Y-89738152D02*
X89385714Y-89833390D01*
X89385714Y-89833390D02*
X89338095Y-89881009D01*
X89338095Y-89881009D02*
X89242857Y-89928628D01*
X89242857Y-89928628D02*
X88861905Y-89928628D01*
X90338095Y-89404819D02*
X89861905Y-89404819D01*
X89861905Y-89404819D02*
X89814286Y-89881009D01*
X89814286Y-89881009D02*
X89861905Y-89833390D01*
X89861905Y-89833390D02*
X89957143Y-89785771D01*
X89957143Y-89785771D02*
X90195238Y-89785771D01*
X90195238Y-89785771D02*
X90290476Y-89833390D01*
X90290476Y-89833390D02*
X90338095Y-89881009D01*
X90338095Y-89881009D02*
X90385714Y-89976247D01*
X90385714Y-89976247D02*
X90385714Y-90214342D01*
X90385714Y-90214342D02*
X90338095Y-90309580D01*
X90338095Y-90309580D02*
X90290476Y-90357200D01*
X90290476Y-90357200D02*
X90195238Y-90404819D01*
X90195238Y-90404819D02*
X89957143Y-90404819D01*
X89957143Y-90404819D02*
X89861905Y-90357200D01*
X89861905Y-90357200D02*
X89814286Y-90309580D01*
X113582142Y-80359580D02*
X113534523Y-80407200D01*
X113534523Y-80407200D02*
X113391666Y-80454819D01*
X113391666Y-80454819D02*
X113296428Y-80454819D01*
X113296428Y-80454819D02*
X113153571Y-80407200D01*
X113153571Y-80407200D02*
X113058333Y-80311961D01*
X113058333Y-80311961D02*
X113010714Y-80216723D01*
X113010714Y-80216723D02*
X112963095Y-80026247D01*
X112963095Y-80026247D02*
X112963095Y-79883390D01*
X112963095Y-79883390D02*
X113010714Y-79692914D01*
X113010714Y-79692914D02*
X113058333Y-79597676D01*
X113058333Y-79597676D02*
X113153571Y-79502438D01*
X113153571Y-79502438D02*
X113296428Y-79454819D01*
X113296428Y-79454819D02*
X113391666Y-79454819D01*
X113391666Y-79454819D02*
X113534523Y-79502438D01*
X113534523Y-79502438D02*
X113582142Y-79550057D01*
X113963095Y-79550057D02*
X114010714Y-79502438D01*
X114010714Y-79502438D02*
X114105952Y-79454819D01*
X114105952Y-79454819D02*
X114344047Y-79454819D01*
X114344047Y-79454819D02*
X114439285Y-79502438D01*
X114439285Y-79502438D02*
X114486904Y-79550057D01*
X114486904Y-79550057D02*
X114534523Y-79645295D01*
X114534523Y-79645295D02*
X114534523Y-79740533D01*
X114534523Y-79740533D02*
X114486904Y-79883390D01*
X114486904Y-79883390D02*
X113915476Y-80454819D01*
X113915476Y-80454819D02*
X114534523Y-80454819D01*
X115153571Y-79454819D02*
X115248809Y-79454819D01*
X115248809Y-79454819D02*
X115344047Y-79502438D01*
X115344047Y-79502438D02*
X115391666Y-79550057D01*
X115391666Y-79550057D02*
X115439285Y-79645295D01*
X115439285Y-79645295D02*
X115486904Y-79835771D01*
X115486904Y-79835771D02*
X115486904Y-80073866D01*
X115486904Y-80073866D02*
X115439285Y-80264342D01*
X115439285Y-80264342D02*
X115391666Y-80359580D01*
X115391666Y-80359580D02*
X115344047Y-80407200D01*
X115344047Y-80407200D02*
X115248809Y-80454819D01*
X115248809Y-80454819D02*
X115153571Y-80454819D01*
X115153571Y-80454819D02*
X115058333Y-80407200D01*
X115058333Y-80407200D02*
X115010714Y-80359580D01*
X115010714Y-80359580D02*
X114963095Y-80264342D01*
X114963095Y-80264342D02*
X114915476Y-80073866D01*
X114915476Y-80073866D02*
X114915476Y-79835771D01*
X114915476Y-79835771D02*
X114963095Y-79645295D01*
X114963095Y-79645295D02*
X115010714Y-79550057D01*
X115010714Y-79550057D02*
X115058333Y-79502438D01*
X115058333Y-79502438D02*
X115153571Y-79454819D01*
X90309580Y-110642857D02*
X90357200Y-110690476D01*
X90357200Y-110690476D02*
X90404819Y-110833333D01*
X90404819Y-110833333D02*
X90404819Y-110928571D01*
X90404819Y-110928571D02*
X90357200Y-111071428D01*
X90357200Y-111071428D02*
X90261961Y-111166666D01*
X90261961Y-111166666D02*
X90166723Y-111214285D01*
X90166723Y-111214285D02*
X89976247Y-111261904D01*
X89976247Y-111261904D02*
X89833390Y-111261904D01*
X89833390Y-111261904D02*
X89642914Y-111214285D01*
X89642914Y-111214285D02*
X89547676Y-111166666D01*
X89547676Y-111166666D02*
X89452438Y-111071428D01*
X89452438Y-111071428D02*
X89404819Y-110928571D01*
X89404819Y-110928571D02*
X89404819Y-110833333D01*
X89404819Y-110833333D02*
X89452438Y-110690476D01*
X89452438Y-110690476D02*
X89500057Y-110642857D01*
X89500057Y-110261904D02*
X89452438Y-110214285D01*
X89452438Y-110214285D02*
X89404819Y-110119047D01*
X89404819Y-110119047D02*
X89404819Y-109880952D01*
X89404819Y-109880952D02*
X89452438Y-109785714D01*
X89452438Y-109785714D02*
X89500057Y-109738095D01*
X89500057Y-109738095D02*
X89595295Y-109690476D01*
X89595295Y-109690476D02*
X89690533Y-109690476D01*
X89690533Y-109690476D02*
X89833390Y-109738095D01*
X89833390Y-109738095D02*
X90404819Y-110309523D01*
X90404819Y-110309523D02*
X90404819Y-109690476D01*
X89404819Y-109357142D02*
X89404819Y-108738095D01*
X89404819Y-108738095D02*
X89785771Y-109071428D01*
X89785771Y-109071428D02*
X89785771Y-108928571D01*
X89785771Y-108928571D02*
X89833390Y-108833333D01*
X89833390Y-108833333D02*
X89881009Y-108785714D01*
X89881009Y-108785714D02*
X89976247Y-108738095D01*
X89976247Y-108738095D02*
X90214342Y-108738095D01*
X90214342Y-108738095D02*
X90309580Y-108785714D01*
X90309580Y-108785714D02*
X90357200Y-108833333D01*
X90357200Y-108833333D02*
X90404819Y-108928571D01*
X90404819Y-108928571D02*
X90404819Y-109214285D01*
X90404819Y-109214285D02*
X90357200Y-109309523D01*
X90357200Y-109309523D02*
X90309580Y-109357142D01*
X107654819Y-81966666D02*
X107178628Y-82299999D01*
X107654819Y-82538094D02*
X106654819Y-82538094D01*
X106654819Y-82538094D02*
X106654819Y-82157142D01*
X106654819Y-82157142D02*
X106702438Y-82061904D01*
X106702438Y-82061904D02*
X106750057Y-82014285D01*
X106750057Y-82014285D02*
X106845295Y-81966666D01*
X106845295Y-81966666D02*
X106988152Y-81966666D01*
X106988152Y-81966666D02*
X107083390Y-82014285D01*
X107083390Y-82014285D02*
X107131009Y-82061904D01*
X107131009Y-82061904D02*
X107178628Y-82157142D01*
X107178628Y-82157142D02*
X107178628Y-82538094D01*
X106654819Y-81109523D02*
X106654819Y-81299999D01*
X106654819Y-81299999D02*
X106702438Y-81395237D01*
X106702438Y-81395237D02*
X106750057Y-81442856D01*
X106750057Y-81442856D02*
X106892914Y-81538094D01*
X106892914Y-81538094D02*
X107083390Y-81585713D01*
X107083390Y-81585713D02*
X107464342Y-81585713D01*
X107464342Y-81585713D02*
X107559580Y-81538094D01*
X107559580Y-81538094D02*
X107607200Y-81490475D01*
X107607200Y-81490475D02*
X107654819Y-81395237D01*
X107654819Y-81395237D02*
X107654819Y-81204761D01*
X107654819Y-81204761D02*
X107607200Y-81109523D01*
X107607200Y-81109523D02*
X107559580Y-81061904D01*
X107559580Y-81061904D02*
X107464342Y-81014285D01*
X107464342Y-81014285D02*
X107226247Y-81014285D01*
X107226247Y-81014285D02*
X107131009Y-81061904D01*
X107131009Y-81061904D02*
X107083390Y-81109523D01*
X107083390Y-81109523D02*
X107035771Y-81204761D01*
X107035771Y-81204761D02*
X107035771Y-81395237D01*
X107035771Y-81395237D02*
X107083390Y-81490475D01*
X107083390Y-81490475D02*
X107131009Y-81538094D01*
X107131009Y-81538094D02*
X107226247Y-81585713D01*
X85407142Y-65859580D02*
X85359523Y-65907200D01*
X85359523Y-65907200D02*
X85216666Y-65954819D01*
X85216666Y-65954819D02*
X85121428Y-65954819D01*
X85121428Y-65954819D02*
X84978571Y-65907200D01*
X84978571Y-65907200D02*
X84883333Y-65811961D01*
X84883333Y-65811961D02*
X84835714Y-65716723D01*
X84835714Y-65716723D02*
X84788095Y-65526247D01*
X84788095Y-65526247D02*
X84788095Y-65383390D01*
X84788095Y-65383390D02*
X84835714Y-65192914D01*
X84835714Y-65192914D02*
X84883333Y-65097676D01*
X84883333Y-65097676D02*
X84978571Y-65002438D01*
X84978571Y-65002438D02*
X85121428Y-64954819D01*
X85121428Y-64954819D02*
X85216666Y-64954819D01*
X85216666Y-64954819D02*
X85359523Y-65002438D01*
X85359523Y-65002438D02*
X85407142Y-65050057D01*
X86359523Y-65954819D02*
X85788095Y-65954819D01*
X86073809Y-65954819D02*
X86073809Y-64954819D01*
X86073809Y-64954819D02*
X85978571Y-65097676D01*
X85978571Y-65097676D02*
X85883333Y-65192914D01*
X85883333Y-65192914D02*
X85788095Y-65240533D01*
X87216666Y-65288152D02*
X87216666Y-65954819D01*
X86978571Y-64907200D02*
X86740476Y-65621485D01*
X86740476Y-65621485D02*
X87359523Y-65621485D01*
X97589580Y-93216666D02*
X97637200Y-93264285D01*
X97637200Y-93264285D02*
X97684819Y-93407142D01*
X97684819Y-93407142D02*
X97684819Y-93502380D01*
X97684819Y-93502380D02*
X97637200Y-93645237D01*
X97637200Y-93645237D02*
X97541961Y-93740475D01*
X97541961Y-93740475D02*
X97446723Y-93788094D01*
X97446723Y-93788094D02*
X97256247Y-93835713D01*
X97256247Y-93835713D02*
X97113390Y-93835713D01*
X97113390Y-93835713D02*
X96922914Y-93788094D01*
X96922914Y-93788094D02*
X96827676Y-93740475D01*
X96827676Y-93740475D02*
X96732438Y-93645237D01*
X96732438Y-93645237D02*
X96684819Y-93502380D01*
X96684819Y-93502380D02*
X96684819Y-93407142D01*
X96684819Y-93407142D02*
X96732438Y-93264285D01*
X96732438Y-93264285D02*
X96780057Y-93216666D01*
X96780057Y-92835713D02*
X96732438Y-92788094D01*
X96732438Y-92788094D02*
X96684819Y-92692856D01*
X96684819Y-92692856D02*
X96684819Y-92454761D01*
X96684819Y-92454761D02*
X96732438Y-92359523D01*
X96732438Y-92359523D02*
X96780057Y-92311904D01*
X96780057Y-92311904D02*
X96875295Y-92264285D01*
X96875295Y-92264285D02*
X96970533Y-92264285D01*
X96970533Y-92264285D02*
X97113390Y-92311904D01*
X97113390Y-92311904D02*
X97684819Y-92883332D01*
X97684819Y-92883332D02*
X97684819Y-92264285D01*
X89433333Y-87309580D02*
X89385714Y-87357200D01*
X89385714Y-87357200D02*
X89242857Y-87404819D01*
X89242857Y-87404819D02*
X89147619Y-87404819D01*
X89147619Y-87404819D02*
X89004762Y-87357200D01*
X89004762Y-87357200D02*
X88909524Y-87261961D01*
X88909524Y-87261961D02*
X88861905Y-87166723D01*
X88861905Y-87166723D02*
X88814286Y-86976247D01*
X88814286Y-86976247D02*
X88814286Y-86833390D01*
X88814286Y-86833390D02*
X88861905Y-86642914D01*
X88861905Y-86642914D02*
X88909524Y-86547676D01*
X88909524Y-86547676D02*
X89004762Y-86452438D01*
X89004762Y-86452438D02*
X89147619Y-86404819D01*
X89147619Y-86404819D02*
X89242857Y-86404819D01*
X89242857Y-86404819D02*
X89385714Y-86452438D01*
X89385714Y-86452438D02*
X89433333Y-86500057D01*
X90385714Y-87404819D02*
X89814286Y-87404819D01*
X90100000Y-87404819D02*
X90100000Y-86404819D01*
X90100000Y-86404819D02*
X90004762Y-86547676D01*
X90004762Y-86547676D02*
X89909524Y-86642914D01*
X89909524Y-86642914D02*
X89814286Y-86690533D01*
X94357142Y-80559580D02*
X94309523Y-80607200D01*
X94309523Y-80607200D02*
X94166666Y-80654819D01*
X94166666Y-80654819D02*
X94071428Y-80654819D01*
X94071428Y-80654819D02*
X93928571Y-80607200D01*
X93928571Y-80607200D02*
X93833333Y-80511961D01*
X93833333Y-80511961D02*
X93785714Y-80416723D01*
X93785714Y-80416723D02*
X93738095Y-80226247D01*
X93738095Y-80226247D02*
X93738095Y-80083390D01*
X93738095Y-80083390D02*
X93785714Y-79892914D01*
X93785714Y-79892914D02*
X93833333Y-79797676D01*
X93833333Y-79797676D02*
X93928571Y-79702438D01*
X93928571Y-79702438D02*
X94071428Y-79654819D01*
X94071428Y-79654819D02*
X94166666Y-79654819D01*
X94166666Y-79654819D02*
X94309523Y-79702438D01*
X94309523Y-79702438D02*
X94357142Y-79750057D01*
X95309523Y-80654819D02*
X94738095Y-80654819D01*
X95023809Y-80654819D02*
X95023809Y-79654819D01*
X95023809Y-79654819D02*
X94928571Y-79797676D01*
X94928571Y-79797676D02*
X94833333Y-79892914D01*
X94833333Y-79892914D02*
X94738095Y-79940533D01*
X96261904Y-80654819D02*
X95690476Y-80654819D01*
X95976190Y-80654819D02*
X95976190Y-79654819D01*
X95976190Y-79654819D02*
X95880952Y-79797676D01*
X95880952Y-79797676D02*
X95785714Y-79892914D01*
X95785714Y-79892914D02*
X95690476Y-79940533D01*
X105909580Y-81866666D02*
X105957200Y-81914285D01*
X105957200Y-81914285D02*
X106004819Y-82057142D01*
X106004819Y-82057142D02*
X106004819Y-82152380D01*
X106004819Y-82152380D02*
X105957200Y-82295237D01*
X105957200Y-82295237D02*
X105861961Y-82390475D01*
X105861961Y-82390475D02*
X105766723Y-82438094D01*
X105766723Y-82438094D02*
X105576247Y-82485713D01*
X105576247Y-82485713D02*
X105433390Y-82485713D01*
X105433390Y-82485713D02*
X105242914Y-82438094D01*
X105242914Y-82438094D02*
X105147676Y-82390475D01*
X105147676Y-82390475D02*
X105052438Y-82295237D01*
X105052438Y-82295237D02*
X105004819Y-82152380D01*
X105004819Y-82152380D02*
X105004819Y-82057142D01*
X105004819Y-82057142D02*
X105052438Y-81914285D01*
X105052438Y-81914285D02*
X105100057Y-81866666D01*
X105004819Y-80961904D02*
X105004819Y-81438094D01*
X105004819Y-81438094D02*
X105481009Y-81485713D01*
X105481009Y-81485713D02*
X105433390Y-81438094D01*
X105433390Y-81438094D02*
X105385771Y-81342856D01*
X105385771Y-81342856D02*
X105385771Y-81104761D01*
X105385771Y-81104761D02*
X105433390Y-81009523D01*
X105433390Y-81009523D02*
X105481009Y-80961904D01*
X105481009Y-80961904D02*
X105576247Y-80914285D01*
X105576247Y-80914285D02*
X105814342Y-80914285D01*
X105814342Y-80914285D02*
X105909580Y-80961904D01*
X105909580Y-80961904D02*
X105957200Y-81009523D01*
X105957200Y-81009523D02*
X106004819Y-81104761D01*
X106004819Y-81104761D02*
X106004819Y-81342856D01*
X106004819Y-81342856D02*
X105957200Y-81438094D01*
X105957200Y-81438094D02*
X105909580Y-81485713D01*
X104207142Y-87709580D02*
X104159523Y-87757200D01*
X104159523Y-87757200D02*
X104016666Y-87804819D01*
X104016666Y-87804819D02*
X103921428Y-87804819D01*
X103921428Y-87804819D02*
X103778571Y-87757200D01*
X103778571Y-87757200D02*
X103683333Y-87661961D01*
X103683333Y-87661961D02*
X103635714Y-87566723D01*
X103635714Y-87566723D02*
X103588095Y-87376247D01*
X103588095Y-87376247D02*
X103588095Y-87233390D01*
X103588095Y-87233390D02*
X103635714Y-87042914D01*
X103635714Y-87042914D02*
X103683333Y-86947676D01*
X103683333Y-86947676D02*
X103778571Y-86852438D01*
X103778571Y-86852438D02*
X103921428Y-86804819D01*
X103921428Y-86804819D02*
X104016666Y-86804819D01*
X104016666Y-86804819D02*
X104159523Y-86852438D01*
X104159523Y-86852438D02*
X104207142Y-86900057D01*
X105159523Y-87804819D02*
X104588095Y-87804819D01*
X104873809Y-87804819D02*
X104873809Y-86804819D01*
X104873809Y-86804819D02*
X104778571Y-86947676D01*
X104778571Y-86947676D02*
X104683333Y-87042914D01*
X104683333Y-87042914D02*
X104588095Y-87090533D01*
X106064285Y-86804819D02*
X105588095Y-86804819D01*
X105588095Y-86804819D02*
X105540476Y-87281009D01*
X105540476Y-87281009D02*
X105588095Y-87233390D01*
X105588095Y-87233390D02*
X105683333Y-87185771D01*
X105683333Y-87185771D02*
X105921428Y-87185771D01*
X105921428Y-87185771D02*
X106016666Y-87233390D01*
X106016666Y-87233390D02*
X106064285Y-87281009D01*
X106064285Y-87281009D02*
X106111904Y-87376247D01*
X106111904Y-87376247D02*
X106111904Y-87614342D01*
X106111904Y-87614342D02*
X106064285Y-87709580D01*
X106064285Y-87709580D02*
X106016666Y-87757200D01*
X106016666Y-87757200D02*
X105921428Y-87804819D01*
X105921428Y-87804819D02*
X105683333Y-87804819D01*
X105683333Y-87804819D02*
X105588095Y-87757200D01*
X105588095Y-87757200D02*
X105540476Y-87709580D01*
X96607142Y-61454819D02*
X96273809Y-60978628D01*
X96035714Y-61454819D02*
X96035714Y-60454819D01*
X96035714Y-60454819D02*
X96416666Y-60454819D01*
X96416666Y-60454819D02*
X96511904Y-60502438D01*
X96511904Y-60502438D02*
X96559523Y-60550057D01*
X96559523Y-60550057D02*
X96607142Y-60645295D01*
X96607142Y-60645295D02*
X96607142Y-60788152D01*
X96607142Y-60788152D02*
X96559523Y-60883390D01*
X96559523Y-60883390D02*
X96511904Y-60931009D01*
X96511904Y-60931009D02*
X96416666Y-60978628D01*
X96416666Y-60978628D02*
X96035714Y-60978628D01*
X97559523Y-61454819D02*
X96988095Y-61454819D01*
X97273809Y-61454819D02*
X97273809Y-60454819D01*
X97273809Y-60454819D02*
X97178571Y-60597676D01*
X97178571Y-60597676D02*
X97083333Y-60692914D01*
X97083333Y-60692914D02*
X96988095Y-60740533D01*
X98464285Y-60454819D02*
X97988095Y-60454819D01*
X97988095Y-60454819D02*
X97940476Y-60931009D01*
X97940476Y-60931009D02*
X97988095Y-60883390D01*
X97988095Y-60883390D02*
X98083333Y-60835771D01*
X98083333Y-60835771D02*
X98321428Y-60835771D01*
X98321428Y-60835771D02*
X98416666Y-60883390D01*
X98416666Y-60883390D02*
X98464285Y-60931009D01*
X98464285Y-60931009D02*
X98511904Y-61026247D01*
X98511904Y-61026247D02*
X98511904Y-61264342D01*
X98511904Y-61264342D02*
X98464285Y-61359580D01*
X98464285Y-61359580D02*
X98416666Y-61407200D01*
X98416666Y-61407200D02*
X98321428Y-61454819D01*
X98321428Y-61454819D02*
X98083333Y-61454819D01*
X98083333Y-61454819D02*
X97988095Y-61407200D01*
X97988095Y-61407200D02*
X97940476Y-61359580D01*
X92354819Y-99392857D02*
X91878628Y-99726190D01*
X92354819Y-99964285D02*
X91354819Y-99964285D01*
X91354819Y-99964285D02*
X91354819Y-99583333D01*
X91354819Y-99583333D02*
X91402438Y-99488095D01*
X91402438Y-99488095D02*
X91450057Y-99440476D01*
X91450057Y-99440476D02*
X91545295Y-99392857D01*
X91545295Y-99392857D02*
X91688152Y-99392857D01*
X91688152Y-99392857D02*
X91783390Y-99440476D01*
X91783390Y-99440476D02*
X91831009Y-99488095D01*
X91831009Y-99488095D02*
X91878628Y-99583333D01*
X91878628Y-99583333D02*
X91878628Y-99964285D01*
X92354819Y-98440476D02*
X92354819Y-99011904D01*
X92354819Y-98726190D02*
X91354819Y-98726190D01*
X91354819Y-98726190D02*
X91497676Y-98821428D01*
X91497676Y-98821428D02*
X91592914Y-98916666D01*
X91592914Y-98916666D02*
X91640533Y-99011904D01*
X92354819Y-97964285D02*
X92354819Y-97773809D01*
X92354819Y-97773809D02*
X92307200Y-97678571D01*
X92307200Y-97678571D02*
X92259580Y-97630952D01*
X92259580Y-97630952D02*
X92116723Y-97535714D01*
X92116723Y-97535714D02*
X91926247Y-97488095D01*
X91926247Y-97488095D02*
X91545295Y-97488095D01*
X91545295Y-97488095D02*
X91450057Y-97535714D01*
X91450057Y-97535714D02*
X91402438Y-97583333D01*
X91402438Y-97583333D02*
X91354819Y-97678571D01*
X91354819Y-97678571D02*
X91354819Y-97869047D01*
X91354819Y-97869047D02*
X91402438Y-97964285D01*
X91402438Y-97964285D02*
X91450057Y-98011904D01*
X91450057Y-98011904D02*
X91545295Y-98059523D01*
X91545295Y-98059523D02*
X91783390Y-98059523D01*
X91783390Y-98059523D02*
X91878628Y-98011904D01*
X91878628Y-98011904D02*
X91926247Y-97964285D01*
X91926247Y-97964285D02*
X91973866Y-97869047D01*
X91973866Y-97869047D02*
X91973866Y-97678571D01*
X91973866Y-97678571D02*
X91926247Y-97583333D01*
X91926247Y-97583333D02*
X91878628Y-97535714D01*
X91878628Y-97535714D02*
X91783390Y-97488095D01*
X118986905Y-80204819D02*
X118986905Y-79204819D01*
X118986905Y-79204819D02*
X119225000Y-79204819D01*
X119225000Y-79204819D02*
X119367857Y-79252438D01*
X119367857Y-79252438D02*
X119463095Y-79347676D01*
X119463095Y-79347676D02*
X119510714Y-79442914D01*
X119510714Y-79442914D02*
X119558333Y-79633390D01*
X119558333Y-79633390D02*
X119558333Y-79776247D01*
X119558333Y-79776247D02*
X119510714Y-79966723D01*
X119510714Y-79966723D02*
X119463095Y-80061961D01*
X119463095Y-80061961D02*
X119367857Y-80157200D01*
X119367857Y-80157200D02*
X119225000Y-80204819D01*
X119225000Y-80204819D02*
X118986905Y-80204819D01*
X120510714Y-80204819D02*
X119939286Y-80204819D01*
X120225000Y-80204819D02*
X120225000Y-79204819D01*
X120225000Y-79204819D02*
X120129762Y-79347676D01*
X120129762Y-79347676D02*
X120034524Y-79442914D01*
X120034524Y-79442914D02*
X119939286Y-79490533D01*
X119832142Y-83454819D02*
X119498809Y-82978628D01*
X119260714Y-83454819D02*
X119260714Y-82454819D01*
X119260714Y-82454819D02*
X119641666Y-82454819D01*
X119641666Y-82454819D02*
X119736904Y-82502438D01*
X119736904Y-82502438D02*
X119784523Y-82550057D01*
X119784523Y-82550057D02*
X119832142Y-82645295D01*
X119832142Y-82645295D02*
X119832142Y-82788152D01*
X119832142Y-82788152D02*
X119784523Y-82883390D01*
X119784523Y-82883390D02*
X119736904Y-82931009D01*
X119736904Y-82931009D02*
X119641666Y-82978628D01*
X119641666Y-82978628D02*
X119260714Y-82978628D01*
X120784523Y-83454819D02*
X120213095Y-83454819D01*
X120498809Y-83454819D02*
X120498809Y-82454819D01*
X120498809Y-82454819D02*
X120403571Y-82597676D01*
X120403571Y-82597676D02*
X120308333Y-82692914D01*
X120308333Y-82692914D02*
X120213095Y-82740533D01*
X121355952Y-82883390D02*
X121260714Y-82835771D01*
X121260714Y-82835771D02*
X121213095Y-82788152D01*
X121213095Y-82788152D02*
X121165476Y-82692914D01*
X121165476Y-82692914D02*
X121165476Y-82645295D01*
X121165476Y-82645295D02*
X121213095Y-82550057D01*
X121213095Y-82550057D02*
X121260714Y-82502438D01*
X121260714Y-82502438D02*
X121355952Y-82454819D01*
X121355952Y-82454819D02*
X121546428Y-82454819D01*
X121546428Y-82454819D02*
X121641666Y-82502438D01*
X121641666Y-82502438D02*
X121689285Y-82550057D01*
X121689285Y-82550057D02*
X121736904Y-82645295D01*
X121736904Y-82645295D02*
X121736904Y-82692914D01*
X121736904Y-82692914D02*
X121689285Y-82788152D01*
X121689285Y-82788152D02*
X121641666Y-82835771D01*
X121641666Y-82835771D02*
X121546428Y-82883390D01*
X121546428Y-82883390D02*
X121355952Y-82883390D01*
X121355952Y-82883390D02*
X121260714Y-82931009D01*
X121260714Y-82931009D02*
X121213095Y-82978628D01*
X121213095Y-82978628D02*
X121165476Y-83073866D01*
X121165476Y-83073866D02*
X121165476Y-83264342D01*
X121165476Y-83264342D02*
X121213095Y-83359580D01*
X121213095Y-83359580D02*
X121260714Y-83407200D01*
X121260714Y-83407200D02*
X121355952Y-83454819D01*
X121355952Y-83454819D02*
X121546428Y-83454819D01*
X121546428Y-83454819D02*
X121641666Y-83407200D01*
X121641666Y-83407200D02*
X121689285Y-83359580D01*
X121689285Y-83359580D02*
X121736904Y-83264342D01*
X121736904Y-83264342D02*
X121736904Y-83073866D01*
X121736904Y-83073866D02*
X121689285Y-82978628D01*
X121689285Y-82978628D02*
X121641666Y-82931009D01*
X121641666Y-82931009D02*
X121546428Y-82883390D01*
X110454819Y-103413094D02*
X109454819Y-103413094D01*
X109454819Y-103413094D02*
X109454819Y-103174999D01*
X109454819Y-103174999D02*
X109502438Y-103032142D01*
X109502438Y-103032142D02*
X109597676Y-102936904D01*
X109597676Y-102936904D02*
X109692914Y-102889285D01*
X109692914Y-102889285D02*
X109883390Y-102841666D01*
X109883390Y-102841666D02*
X110026247Y-102841666D01*
X110026247Y-102841666D02*
X110216723Y-102889285D01*
X110216723Y-102889285D02*
X110311961Y-102936904D01*
X110311961Y-102936904D02*
X110407200Y-103032142D01*
X110407200Y-103032142D02*
X110454819Y-103174999D01*
X110454819Y-103174999D02*
X110454819Y-103413094D01*
X109454819Y-102508332D02*
X109454819Y-101889285D01*
X109454819Y-101889285D02*
X109835771Y-102222618D01*
X109835771Y-102222618D02*
X109835771Y-102079761D01*
X109835771Y-102079761D02*
X109883390Y-101984523D01*
X109883390Y-101984523D02*
X109931009Y-101936904D01*
X109931009Y-101936904D02*
X110026247Y-101889285D01*
X110026247Y-101889285D02*
X110264342Y-101889285D01*
X110264342Y-101889285D02*
X110359580Y-101936904D01*
X110359580Y-101936904D02*
X110407200Y-101984523D01*
X110407200Y-101984523D02*
X110454819Y-102079761D01*
X110454819Y-102079761D02*
X110454819Y-102365475D01*
X110454819Y-102365475D02*
X110407200Y-102460713D01*
X110407200Y-102460713D02*
X110359580Y-102508332D01*
X98859580Y-100114088D02*
X98907200Y-100161707D01*
X98907200Y-100161707D02*
X98954819Y-100304564D01*
X98954819Y-100304564D02*
X98954819Y-100399802D01*
X98954819Y-100399802D02*
X98907200Y-100542659D01*
X98907200Y-100542659D02*
X98811961Y-100637897D01*
X98811961Y-100637897D02*
X98716723Y-100685516D01*
X98716723Y-100685516D02*
X98526247Y-100733135D01*
X98526247Y-100733135D02*
X98383390Y-100733135D01*
X98383390Y-100733135D02*
X98192914Y-100685516D01*
X98192914Y-100685516D02*
X98097676Y-100637897D01*
X98097676Y-100637897D02*
X98002438Y-100542659D01*
X98002438Y-100542659D02*
X97954819Y-100399802D01*
X97954819Y-100399802D02*
X97954819Y-100304564D01*
X97954819Y-100304564D02*
X98002438Y-100161707D01*
X98002438Y-100161707D02*
X98050057Y-100114088D01*
X98050057Y-99733135D02*
X98002438Y-99685516D01*
X98002438Y-99685516D02*
X97954819Y-99590278D01*
X97954819Y-99590278D02*
X97954819Y-99352183D01*
X97954819Y-99352183D02*
X98002438Y-99256945D01*
X98002438Y-99256945D02*
X98050057Y-99209326D01*
X98050057Y-99209326D02*
X98145295Y-99161707D01*
X98145295Y-99161707D02*
X98240533Y-99161707D01*
X98240533Y-99161707D02*
X98383390Y-99209326D01*
X98383390Y-99209326D02*
X98954819Y-99780754D01*
X98954819Y-99780754D02*
X98954819Y-99161707D01*
X98050057Y-98780754D02*
X98002438Y-98733135D01*
X98002438Y-98733135D02*
X97954819Y-98637897D01*
X97954819Y-98637897D02*
X97954819Y-98399802D01*
X97954819Y-98399802D02*
X98002438Y-98304564D01*
X98002438Y-98304564D02*
X98050057Y-98256945D01*
X98050057Y-98256945D02*
X98145295Y-98209326D01*
X98145295Y-98209326D02*
X98240533Y-98209326D01*
X98240533Y-98209326D02*
X98383390Y-98256945D01*
X98383390Y-98256945D02*
X98954819Y-98828373D01*
X98954819Y-98828373D02*
X98954819Y-98209326D01*
X101859580Y-97037897D02*
X101907200Y-97085516D01*
X101907200Y-97085516D02*
X101954819Y-97228373D01*
X101954819Y-97228373D02*
X101954819Y-97323611D01*
X101954819Y-97323611D02*
X101907200Y-97466468D01*
X101907200Y-97466468D02*
X101811961Y-97561706D01*
X101811961Y-97561706D02*
X101716723Y-97609325D01*
X101716723Y-97609325D02*
X101526247Y-97656944D01*
X101526247Y-97656944D02*
X101383390Y-97656944D01*
X101383390Y-97656944D02*
X101192914Y-97609325D01*
X101192914Y-97609325D02*
X101097676Y-97561706D01*
X101097676Y-97561706D02*
X101002438Y-97466468D01*
X101002438Y-97466468D02*
X100954819Y-97323611D01*
X100954819Y-97323611D02*
X100954819Y-97228373D01*
X100954819Y-97228373D02*
X101002438Y-97085516D01*
X101002438Y-97085516D02*
X101050057Y-97037897D01*
X100954819Y-96180754D02*
X100954819Y-96371230D01*
X100954819Y-96371230D02*
X101002438Y-96466468D01*
X101002438Y-96466468D02*
X101050057Y-96514087D01*
X101050057Y-96514087D02*
X101192914Y-96609325D01*
X101192914Y-96609325D02*
X101383390Y-96656944D01*
X101383390Y-96656944D02*
X101764342Y-96656944D01*
X101764342Y-96656944D02*
X101859580Y-96609325D01*
X101859580Y-96609325D02*
X101907200Y-96561706D01*
X101907200Y-96561706D02*
X101954819Y-96466468D01*
X101954819Y-96466468D02*
X101954819Y-96275992D01*
X101954819Y-96275992D02*
X101907200Y-96180754D01*
X101907200Y-96180754D02*
X101859580Y-96133135D01*
X101859580Y-96133135D02*
X101764342Y-96085516D01*
X101764342Y-96085516D02*
X101526247Y-96085516D01*
X101526247Y-96085516D02*
X101431009Y-96133135D01*
X101431009Y-96133135D02*
X101383390Y-96180754D01*
X101383390Y-96180754D02*
X101335771Y-96275992D01*
X101335771Y-96275992D02*
X101335771Y-96466468D01*
X101335771Y-96466468D02*
X101383390Y-96561706D01*
X101383390Y-96561706D02*
X101431009Y-96609325D01*
X101431009Y-96609325D02*
X101526247Y-96656944D01*
X87931009Y-77083333D02*
X87931009Y-77416666D01*
X88454819Y-77416666D02*
X87454819Y-77416666D01*
X87454819Y-77416666D02*
X87454819Y-76940476D01*
X87931009Y-76226190D02*
X87978628Y-76083333D01*
X87978628Y-76083333D02*
X88026247Y-76035714D01*
X88026247Y-76035714D02*
X88121485Y-75988095D01*
X88121485Y-75988095D02*
X88264342Y-75988095D01*
X88264342Y-75988095D02*
X88359580Y-76035714D01*
X88359580Y-76035714D02*
X88407200Y-76083333D01*
X88407200Y-76083333D02*
X88454819Y-76178571D01*
X88454819Y-76178571D02*
X88454819Y-76559523D01*
X88454819Y-76559523D02*
X87454819Y-76559523D01*
X87454819Y-76559523D02*
X87454819Y-76226190D01*
X87454819Y-76226190D02*
X87502438Y-76130952D01*
X87502438Y-76130952D02*
X87550057Y-76083333D01*
X87550057Y-76083333D02*
X87645295Y-76035714D01*
X87645295Y-76035714D02*
X87740533Y-76035714D01*
X87740533Y-76035714D02*
X87835771Y-76083333D01*
X87835771Y-76083333D02*
X87883390Y-76130952D01*
X87883390Y-76130952D02*
X87931009Y-76226190D01*
X87931009Y-76226190D02*
X87931009Y-76559523D01*
X88454819Y-75035714D02*
X88454819Y-75607142D01*
X88454819Y-75321428D02*
X87454819Y-75321428D01*
X87454819Y-75321428D02*
X87597676Y-75416666D01*
X87597676Y-75416666D02*
X87692914Y-75511904D01*
X87692914Y-75511904D02*
X87740533Y-75607142D01*
X86383333Y-68954819D02*
X86050000Y-68478628D01*
X85811905Y-68954819D02*
X85811905Y-67954819D01*
X85811905Y-67954819D02*
X86192857Y-67954819D01*
X86192857Y-67954819D02*
X86288095Y-68002438D01*
X86288095Y-68002438D02*
X86335714Y-68050057D01*
X86335714Y-68050057D02*
X86383333Y-68145295D01*
X86383333Y-68145295D02*
X86383333Y-68288152D01*
X86383333Y-68288152D02*
X86335714Y-68383390D01*
X86335714Y-68383390D02*
X86288095Y-68431009D01*
X86288095Y-68431009D02*
X86192857Y-68478628D01*
X86192857Y-68478628D02*
X85811905Y-68478628D01*
X86716667Y-67954819D02*
X87335714Y-67954819D01*
X87335714Y-67954819D02*
X87002381Y-68335771D01*
X87002381Y-68335771D02*
X87145238Y-68335771D01*
X87145238Y-68335771D02*
X87240476Y-68383390D01*
X87240476Y-68383390D02*
X87288095Y-68431009D01*
X87288095Y-68431009D02*
X87335714Y-68526247D01*
X87335714Y-68526247D02*
X87335714Y-68764342D01*
X87335714Y-68764342D02*
X87288095Y-68859580D01*
X87288095Y-68859580D02*
X87240476Y-68907200D01*
X87240476Y-68907200D02*
X87145238Y-68954819D01*
X87145238Y-68954819D02*
X86859524Y-68954819D01*
X86859524Y-68954819D02*
X86764286Y-68907200D01*
X86764286Y-68907200D02*
X86716667Y-68859580D01*
X102083333Y-83409580D02*
X102035714Y-83457200D01*
X102035714Y-83457200D02*
X101892857Y-83504819D01*
X101892857Y-83504819D02*
X101797619Y-83504819D01*
X101797619Y-83504819D02*
X101654762Y-83457200D01*
X101654762Y-83457200D02*
X101559524Y-83361961D01*
X101559524Y-83361961D02*
X101511905Y-83266723D01*
X101511905Y-83266723D02*
X101464286Y-83076247D01*
X101464286Y-83076247D02*
X101464286Y-82933390D01*
X101464286Y-82933390D02*
X101511905Y-82742914D01*
X101511905Y-82742914D02*
X101559524Y-82647676D01*
X101559524Y-82647676D02*
X101654762Y-82552438D01*
X101654762Y-82552438D02*
X101797619Y-82504819D01*
X101797619Y-82504819D02*
X101892857Y-82504819D01*
X101892857Y-82504819D02*
X102035714Y-82552438D01*
X102035714Y-82552438D02*
X102083333Y-82600057D01*
X102559524Y-83504819D02*
X102750000Y-83504819D01*
X102750000Y-83504819D02*
X102845238Y-83457200D01*
X102845238Y-83457200D02*
X102892857Y-83409580D01*
X102892857Y-83409580D02*
X102988095Y-83266723D01*
X102988095Y-83266723D02*
X103035714Y-83076247D01*
X103035714Y-83076247D02*
X103035714Y-82695295D01*
X103035714Y-82695295D02*
X102988095Y-82600057D01*
X102988095Y-82600057D02*
X102940476Y-82552438D01*
X102940476Y-82552438D02*
X102845238Y-82504819D01*
X102845238Y-82504819D02*
X102654762Y-82504819D01*
X102654762Y-82504819D02*
X102559524Y-82552438D01*
X102559524Y-82552438D02*
X102511905Y-82600057D01*
X102511905Y-82600057D02*
X102464286Y-82695295D01*
X102464286Y-82695295D02*
X102464286Y-82933390D01*
X102464286Y-82933390D02*
X102511905Y-83028628D01*
X102511905Y-83028628D02*
X102559524Y-83076247D01*
X102559524Y-83076247D02*
X102654762Y-83123866D01*
X102654762Y-83123866D02*
X102845238Y-83123866D01*
X102845238Y-83123866D02*
X102940476Y-83076247D01*
X102940476Y-83076247D02*
X102988095Y-83028628D01*
X102988095Y-83028628D02*
X103035714Y-82933390D01*
X109107142Y-64454819D02*
X108773809Y-63978628D01*
X108535714Y-64454819D02*
X108535714Y-63454819D01*
X108535714Y-63454819D02*
X108916666Y-63454819D01*
X108916666Y-63454819D02*
X109011904Y-63502438D01*
X109011904Y-63502438D02*
X109059523Y-63550057D01*
X109059523Y-63550057D02*
X109107142Y-63645295D01*
X109107142Y-63645295D02*
X109107142Y-63788152D01*
X109107142Y-63788152D02*
X109059523Y-63883390D01*
X109059523Y-63883390D02*
X109011904Y-63931009D01*
X109011904Y-63931009D02*
X108916666Y-63978628D01*
X108916666Y-63978628D02*
X108535714Y-63978628D01*
X110059523Y-64454819D02*
X109488095Y-64454819D01*
X109773809Y-64454819D02*
X109773809Y-63454819D01*
X109773809Y-63454819D02*
X109678571Y-63597676D01*
X109678571Y-63597676D02*
X109583333Y-63692914D01*
X109583333Y-63692914D02*
X109488095Y-63740533D01*
X110916666Y-63454819D02*
X110726190Y-63454819D01*
X110726190Y-63454819D02*
X110630952Y-63502438D01*
X110630952Y-63502438D02*
X110583333Y-63550057D01*
X110583333Y-63550057D02*
X110488095Y-63692914D01*
X110488095Y-63692914D02*
X110440476Y-63883390D01*
X110440476Y-63883390D02*
X110440476Y-64264342D01*
X110440476Y-64264342D02*
X110488095Y-64359580D01*
X110488095Y-64359580D02*
X110535714Y-64407200D01*
X110535714Y-64407200D02*
X110630952Y-64454819D01*
X110630952Y-64454819D02*
X110821428Y-64454819D01*
X110821428Y-64454819D02*
X110916666Y-64407200D01*
X110916666Y-64407200D02*
X110964285Y-64359580D01*
X110964285Y-64359580D02*
X111011904Y-64264342D01*
X111011904Y-64264342D02*
X111011904Y-64026247D01*
X111011904Y-64026247D02*
X110964285Y-63931009D01*
X110964285Y-63931009D02*
X110916666Y-63883390D01*
X110916666Y-63883390D02*
X110821428Y-63835771D01*
X110821428Y-63835771D02*
X110630952Y-63835771D01*
X110630952Y-63835771D02*
X110535714Y-63883390D01*
X110535714Y-63883390D02*
X110488095Y-63931009D01*
X110488095Y-63931009D02*
X110440476Y-64026247D01*
X97466666Y-109454819D02*
X97466666Y-110169104D01*
X97466666Y-110169104D02*
X97419047Y-110311961D01*
X97419047Y-110311961D02*
X97323809Y-110407200D01*
X97323809Y-110407200D02*
X97180952Y-110454819D01*
X97180952Y-110454819D02*
X97085714Y-110454819D01*
X97895238Y-109550057D02*
X97942857Y-109502438D01*
X97942857Y-109502438D02*
X98038095Y-109454819D01*
X98038095Y-109454819D02*
X98276190Y-109454819D01*
X98276190Y-109454819D02*
X98371428Y-109502438D01*
X98371428Y-109502438D02*
X98419047Y-109550057D01*
X98419047Y-109550057D02*
X98466666Y-109645295D01*
X98466666Y-109645295D02*
X98466666Y-109740533D01*
X98466666Y-109740533D02*
X98419047Y-109883390D01*
X98419047Y-109883390D02*
X97847619Y-110454819D01*
X97847619Y-110454819D02*
X98466666Y-110454819D01*
X115359523Y-95859580D02*
X115311904Y-95907200D01*
X115311904Y-95907200D02*
X115169047Y-95954819D01*
X115169047Y-95954819D02*
X115073809Y-95954819D01*
X115073809Y-95954819D02*
X114930952Y-95907200D01*
X114930952Y-95907200D02*
X114835714Y-95811961D01*
X114835714Y-95811961D02*
X114788095Y-95716723D01*
X114788095Y-95716723D02*
X114740476Y-95526247D01*
X114740476Y-95526247D02*
X114740476Y-95383390D01*
X114740476Y-95383390D02*
X114788095Y-95192914D01*
X114788095Y-95192914D02*
X114835714Y-95097676D01*
X114835714Y-95097676D02*
X114930952Y-95002438D01*
X114930952Y-95002438D02*
X115073809Y-94954819D01*
X115073809Y-94954819D02*
X115169047Y-94954819D01*
X115169047Y-94954819D02*
X115311904Y-95002438D01*
X115311904Y-95002438D02*
X115359523Y-95050057D01*
X115788095Y-95954819D02*
X115788095Y-94954819D01*
X115788095Y-94954819D02*
X116359523Y-95954819D01*
X116359523Y-95954819D02*
X116359523Y-94954819D01*
X116788095Y-95050057D02*
X116835714Y-95002438D01*
X116835714Y-95002438D02*
X116930952Y-94954819D01*
X116930952Y-94954819D02*
X117169047Y-94954819D01*
X117169047Y-94954819D02*
X117264285Y-95002438D01*
X117264285Y-95002438D02*
X117311904Y-95050057D01*
X117311904Y-95050057D02*
X117359523Y-95145295D01*
X117359523Y-95145295D02*
X117359523Y-95240533D01*
X117359523Y-95240533D02*
X117311904Y-95383390D01*
X117311904Y-95383390D02*
X116740476Y-95954819D01*
X116740476Y-95954819D02*
X117359523Y-95954819D01*
X84359523Y-108479580D02*
X84311904Y-108527200D01*
X84311904Y-108527200D02*
X84169047Y-108574819D01*
X84169047Y-108574819D02*
X84073809Y-108574819D01*
X84073809Y-108574819D02*
X83930952Y-108527200D01*
X83930952Y-108527200D02*
X83835714Y-108431961D01*
X83835714Y-108431961D02*
X83788095Y-108336723D01*
X83788095Y-108336723D02*
X83740476Y-108146247D01*
X83740476Y-108146247D02*
X83740476Y-108003390D01*
X83740476Y-108003390D02*
X83788095Y-107812914D01*
X83788095Y-107812914D02*
X83835714Y-107717676D01*
X83835714Y-107717676D02*
X83930952Y-107622438D01*
X83930952Y-107622438D02*
X84073809Y-107574819D01*
X84073809Y-107574819D02*
X84169047Y-107574819D01*
X84169047Y-107574819D02*
X84311904Y-107622438D01*
X84311904Y-107622438D02*
X84359523Y-107670057D01*
X84788095Y-108574819D02*
X84788095Y-107574819D01*
X84788095Y-107574819D02*
X85359523Y-108574819D01*
X85359523Y-108574819D02*
X85359523Y-107574819D01*
X86359523Y-108574819D02*
X85788095Y-108574819D01*
X86073809Y-108574819D02*
X86073809Y-107574819D01*
X86073809Y-107574819D02*
X85978571Y-107717676D01*
X85978571Y-107717676D02*
X85883333Y-107812914D01*
X85883333Y-107812914D02*
X85788095Y-107860533D01*
X86383333Y-70359580D02*
X86335714Y-70407200D01*
X86335714Y-70407200D02*
X86192857Y-70454819D01*
X86192857Y-70454819D02*
X86097619Y-70454819D01*
X86097619Y-70454819D02*
X85954762Y-70407200D01*
X85954762Y-70407200D02*
X85859524Y-70311961D01*
X85859524Y-70311961D02*
X85811905Y-70216723D01*
X85811905Y-70216723D02*
X85764286Y-70026247D01*
X85764286Y-70026247D02*
X85764286Y-69883390D01*
X85764286Y-69883390D02*
X85811905Y-69692914D01*
X85811905Y-69692914D02*
X85859524Y-69597676D01*
X85859524Y-69597676D02*
X85954762Y-69502438D01*
X85954762Y-69502438D02*
X86097619Y-69454819D01*
X86097619Y-69454819D02*
X86192857Y-69454819D01*
X86192857Y-69454819D02*
X86335714Y-69502438D01*
X86335714Y-69502438D02*
X86383333Y-69550057D01*
X86954762Y-69883390D02*
X86859524Y-69835771D01*
X86859524Y-69835771D02*
X86811905Y-69788152D01*
X86811905Y-69788152D02*
X86764286Y-69692914D01*
X86764286Y-69692914D02*
X86764286Y-69645295D01*
X86764286Y-69645295D02*
X86811905Y-69550057D01*
X86811905Y-69550057D02*
X86859524Y-69502438D01*
X86859524Y-69502438D02*
X86954762Y-69454819D01*
X86954762Y-69454819D02*
X87145238Y-69454819D01*
X87145238Y-69454819D02*
X87240476Y-69502438D01*
X87240476Y-69502438D02*
X87288095Y-69550057D01*
X87288095Y-69550057D02*
X87335714Y-69645295D01*
X87335714Y-69645295D02*
X87335714Y-69692914D01*
X87335714Y-69692914D02*
X87288095Y-69788152D01*
X87288095Y-69788152D02*
X87240476Y-69835771D01*
X87240476Y-69835771D02*
X87145238Y-69883390D01*
X87145238Y-69883390D02*
X86954762Y-69883390D01*
X86954762Y-69883390D02*
X86859524Y-69931009D01*
X86859524Y-69931009D02*
X86811905Y-69978628D01*
X86811905Y-69978628D02*
X86764286Y-70073866D01*
X86764286Y-70073866D02*
X86764286Y-70264342D01*
X86764286Y-70264342D02*
X86811905Y-70359580D01*
X86811905Y-70359580D02*
X86859524Y-70407200D01*
X86859524Y-70407200D02*
X86954762Y-70454819D01*
X86954762Y-70454819D02*
X87145238Y-70454819D01*
X87145238Y-70454819D02*
X87240476Y-70407200D01*
X87240476Y-70407200D02*
X87288095Y-70359580D01*
X87288095Y-70359580D02*
X87335714Y-70264342D01*
X87335714Y-70264342D02*
X87335714Y-70073866D01*
X87335714Y-70073866D02*
X87288095Y-69978628D01*
X87288095Y-69978628D02*
X87240476Y-69931009D01*
X87240476Y-69931009D02*
X87145238Y-69883390D01*
X119832142Y-81954819D02*
X119498809Y-81478628D01*
X119260714Y-81954819D02*
X119260714Y-80954819D01*
X119260714Y-80954819D02*
X119641666Y-80954819D01*
X119641666Y-80954819D02*
X119736904Y-81002438D01*
X119736904Y-81002438D02*
X119784523Y-81050057D01*
X119784523Y-81050057D02*
X119832142Y-81145295D01*
X119832142Y-81145295D02*
X119832142Y-81288152D01*
X119832142Y-81288152D02*
X119784523Y-81383390D01*
X119784523Y-81383390D02*
X119736904Y-81431009D01*
X119736904Y-81431009D02*
X119641666Y-81478628D01*
X119641666Y-81478628D02*
X119260714Y-81478628D01*
X120784523Y-81954819D02*
X120213095Y-81954819D01*
X120498809Y-81954819D02*
X120498809Y-80954819D01*
X120498809Y-80954819D02*
X120403571Y-81097676D01*
X120403571Y-81097676D02*
X120308333Y-81192914D01*
X120308333Y-81192914D02*
X120213095Y-81240533D01*
X121117857Y-80954819D02*
X121784523Y-80954819D01*
X121784523Y-80954819D02*
X121355952Y-81954819D01*
X94357142Y-79159580D02*
X94309523Y-79207200D01*
X94309523Y-79207200D02*
X94166666Y-79254819D01*
X94166666Y-79254819D02*
X94071428Y-79254819D01*
X94071428Y-79254819D02*
X93928571Y-79207200D01*
X93928571Y-79207200D02*
X93833333Y-79111961D01*
X93833333Y-79111961D02*
X93785714Y-79016723D01*
X93785714Y-79016723D02*
X93738095Y-78826247D01*
X93738095Y-78826247D02*
X93738095Y-78683390D01*
X93738095Y-78683390D02*
X93785714Y-78492914D01*
X93785714Y-78492914D02*
X93833333Y-78397676D01*
X93833333Y-78397676D02*
X93928571Y-78302438D01*
X93928571Y-78302438D02*
X94071428Y-78254819D01*
X94071428Y-78254819D02*
X94166666Y-78254819D01*
X94166666Y-78254819D02*
X94309523Y-78302438D01*
X94309523Y-78302438D02*
X94357142Y-78350057D01*
X95309523Y-79254819D02*
X94738095Y-79254819D01*
X95023809Y-79254819D02*
X95023809Y-78254819D01*
X95023809Y-78254819D02*
X94928571Y-78397676D01*
X94928571Y-78397676D02*
X94833333Y-78492914D01*
X94833333Y-78492914D02*
X94738095Y-78540533D01*
X95928571Y-78254819D02*
X96023809Y-78254819D01*
X96023809Y-78254819D02*
X96119047Y-78302438D01*
X96119047Y-78302438D02*
X96166666Y-78350057D01*
X96166666Y-78350057D02*
X96214285Y-78445295D01*
X96214285Y-78445295D02*
X96261904Y-78635771D01*
X96261904Y-78635771D02*
X96261904Y-78873866D01*
X96261904Y-78873866D02*
X96214285Y-79064342D01*
X96214285Y-79064342D02*
X96166666Y-79159580D01*
X96166666Y-79159580D02*
X96119047Y-79207200D01*
X96119047Y-79207200D02*
X96023809Y-79254819D01*
X96023809Y-79254819D02*
X95928571Y-79254819D01*
X95928571Y-79254819D02*
X95833333Y-79207200D01*
X95833333Y-79207200D02*
X95785714Y-79159580D01*
X95785714Y-79159580D02*
X95738095Y-79064342D01*
X95738095Y-79064342D02*
X95690476Y-78873866D01*
X95690476Y-78873866D02*
X95690476Y-78635771D01*
X95690476Y-78635771D02*
X95738095Y-78445295D01*
X95738095Y-78445295D02*
X95785714Y-78350057D01*
X95785714Y-78350057D02*
X95833333Y-78302438D01*
X95833333Y-78302438D02*
X95928571Y-78254819D01*
X89433333Y-85904819D02*
X89100000Y-85428628D01*
X88861905Y-85904819D02*
X88861905Y-84904819D01*
X88861905Y-84904819D02*
X89242857Y-84904819D01*
X89242857Y-84904819D02*
X89338095Y-84952438D01*
X89338095Y-84952438D02*
X89385714Y-85000057D01*
X89385714Y-85000057D02*
X89433333Y-85095295D01*
X89433333Y-85095295D02*
X89433333Y-85238152D01*
X89433333Y-85238152D02*
X89385714Y-85333390D01*
X89385714Y-85333390D02*
X89338095Y-85381009D01*
X89338095Y-85381009D02*
X89242857Y-85428628D01*
X89242857Y-85428628D02*
X88861905Y-85428628D01*
X90385714Y-85904819D02*
X89814286Y-85904819D01*
X90100000Y-85904819D02*
X90100000Y-84904819D01*
X90100000Y-84904819D02*
X90004762Y-85047676D01*
X90004762Y-85047676D02*
X89909524Y-85142914D01*
X89909524Y-85142914D02*
X89814286Y-85190533D01*
X93082142Y-61454819D02*
X92748809Y-60978628D01*
X92510714Y-61454819D02*
X92510714Y-60454819D01*
X92510714Y-60454819D02*
X92891666Y-60454819D01*
X92891666Y-60454819D02*
X92986904Y-60502438D01*
X92986904Y-60502438D02*
X93034523Y-60550057D01*
X93034523Y-60550057D02*
X93082142Y-60645295D01*
X93082142Y-60645295D02*
X93082142Y-60788152D01*
X93082142Y-60788152D02*
X93034523Y-60883390D01*
X93034523Y-60883390D02*
X92986904Y-60931009D01*
X92986904Y-60931009D02*
X92891666Y-60978628D01*
X92891666Y-60978628D02*
X92510714Y-60978628D01*
X94034523Y-61454819D02*
X93463095Y-61454819D01*
X93748809Y-61454819D02*
X93748809Y-60454819D01*
X93748809Y-60454819D02*
X93653571Y-60597676D01*
X93653571Y-60597676D02*
X93558333Y-60692914D01*
X93558333Y-60692914D02*
X93463095Y-60740533D01*
X94367857Y-60454819D02*
X94986904Y-60454819D01*
X94986904Y-60454819D02*
X94653571Y-60835771D01*
X94653571Y-60835771D02*
X94796428Y-60835771D01*
X94796428Y-60835771D02*
X94891666Y-60883390D01*
X94891666Y-60883390D02*
X94939285Y-60931009D01*
X94939285Y-60931009D02*
X94986904Y-61026247D01*
X94986904Y-61026247D02*
X94986904Y-61264342D01*
X94986904Y-61264342D02*
X94939285Y-61359580D01*
X94939285Y-61359580D02*
X94891666Y-61407200D01*
X94891666Y-61407200D02*
X94796428Y-61454819D01*
X94796428Y-61454819D02*
X94510714Y-61454819D01*
X94510714Y-61454819D02*
X94415476Y-61407200D01*
X94415476Y-61407200D02*
X94367857Y-61359580D01*
X110109580Y-97817857D02*
X110157200Y-97865476D01*
X110157200Y-97865476D02*
X110204819Y-98008333D01*
X110204819Y-98008333D02*
X110204819Y-98103571D01*
X110204819Y-98103571D02*
X110157200Y-98246428D01*
X110157200Y-98246428D02*
X110061961Y-98341666D01*
X110061961Y-98341666D02*
X109966723Y-98389285D01*
X109966723Y-98389285D02*
X109776247Y-98436904D01*
X109776247Y-98436904D02*
X109633390Y-98436904D01*
X109633390Y-98436904D02*
X109442914Y-98389285D01*
X109442914Y-98389285D02*
X109347676Y-98341666D01*
X109347676Y-98341666D02*
X109252438Y-98246428D01*
X109252438Y-98246428D02*
X109204819Y-98103571D01*
X109204819Y-98103571D02*
X109204819Y-98008333D01*
X109204819Y-98008333D02*
X109252438Y-97865476D01*
X109252438Y-97865476D02*
X109300057Y-97817857D01*
X110204819Y-96865476D02*
X110204819Y-97436904D01*
X110204819Y-97151190D02*
X109204819Y-97151190D01*
X109204819Y-97151190D02*
X109347676Y-97246428D01*
X109347676Y-97246428D02*
X109442914Y-97341666D01*
X109442914Y-97341666D02*
X109490533Y-97436904D01*
X109300057Y-96484523D02*
X109252438Y-96436904D01*
X109252438Y-96436904D02*
X109204819Y-96341666D01*
X109204819Y-96341666D02*
X109204819Y-96103571D01*
X109204819Y-96103571D02*
X109252438Y-96008333D01*
X109252438Y-96008333D02*
X109300057Y-95960714D01*
X109300057Y-95960714D02*
X109395295Y-95913095D01*
X109395295Y-95913095D02*
X109490533Y-95913095D01*
X109490533Y-95913095D02*
X109633390Y-95960714D01*
X109633390Y-95960714D02*
X110204819Y-96532142D01*
X110204819Y-96532142D02*
X110204819Y-95913095D01*
X106107142Y-64359580D02*
X106059523Y-64407200D01*
X106059523Y-64407200D02*
X105916666Y-64454819D01*
X105916666Y-64454819D02*
X105821428Y-64454819D01*
X105821428Y-64454819D02*
X105678571Y-64407200D01*
X105678571Y-64407200D02*
X105583333Y-64311961D01*
X105583333Y-64311961D02*
X105535714Y-64216723D01*
X105535714Y-64216723D02*
X105488095Y-64026247D01*
X105488095Y-64026247D02*
X105488095Y-63883390D01*
X105488095Y-63883390D02*
X105535714Y-63692914D01*
X105535714Y-63692914D02*
X105583333Y-63597676D01*
X105583333Y-63597676D02*
X105678571Y-63502438D01*
X105678571Y-63502438D02*
X105821428Y-63454819D01*
X105821428Y-63454819D02*
X105916666Y-63454819D01*
X105916666Y-63454819D02*
X106059523Y-63502438D01*
X106059523Y-63502438D02*
X106107142Y-63550057D01*
X107059523Y-64454819D02*
X106488095Y-64454819D01*
X106773809Y-64454819D02*
X106773809Y-63454819D01*
X106773809Y-63454819D02*
X106678571Y-63597676D01*
X106678571Y-63597676D02*
X106583333Y-63692914D01*
X106583333Y-63692914D02*
X106488095Y-63740533D01*
X107630952Y-63883390D02*
X107535714Y-63835771D01*
X107535714Y-63835771D02*
X107488095Y-63788152D01*
X107488095Y-63788152D02*
X107440476Y-63692914D01*
X107440476Y-63692914D02*
X107440476Y-63645295D01*
X107440476Y-63645295D02*
X107488095Y-63550057D01*
X107488095Y-63550057D02*
X107535714Y-63502438D01*
X107535714Y-63502438D02*
X107630952Y-63454819D01*
X107630952Y-63454819D02*
X107821428Y-63454819D01*
X107821428Y-63454819D02*
X107916666Y-63502438D01*
X107916666Y-63502438D02*
X107964285Y-63550057D01*
X107964285Y-63550057D02*
X108011904Y-63645295D01*
X108011904Y-63645295D02*
X108011904Y-63692914D01*
X108011904Y-63692914D02*
X107964285Y-63788152D01*
X107964285Y-63788152D02*
X107916666Y-63835771D01*
X107916666Y-63835771D02*
X107821428Y-63883390D01*
X107821428Y-63883390D02*
X107630952Y-63883390D01*
X107630952Y-63883390D02*
X107535714Y-63931009D01*
X107535714Y-63931009D02*
X107488095Y-63978628D01*
X107488095Y-63978628D02*
X107440476Y-64073866D01*
X107440476Y-64073866D02*
X107440476Y-64264342D01*
X107440476Y-64264342D02*
X107488095Y-64359580D01*
X107488095Y-64359580D02*
X107535714Y-64407200D01*
X107535714Y-64407200D02*
X107630952Y-64454819D01*
X107630952Y-64454819D02*
X107821428Y-64454819D01*
X107821428Y-64454819D02*
X107916666Y-64407200D01*
X107916666Y-64407200D02*
X107964285Y-64359580D01*
X107964285Y-64359580D02*
X108011904Y-64264342D01*
X108011904Y-64264342D02*
X108011904Y-64073866D01*
X108011904Y-64073866D02*
X107964285Y-63978628D01*
X107964285Y-63978628D02*
X107916666Y-63931009D01*
X107916666Y-63931009D02*
X107821428Y-63883390D01*
X94238095Y-104204819D02*
X94238095Y-105014342D01*
X94238095Y-105014342D02*
X94285714Y-105109580D01*
X94285714Y-105109580D02*
X94333333Y-105157200D01*
X94333333Y-105157200D02*
X94428571Y-105204819D01*
X94428571Y-105204819D02*
X94619047Y-105204819D01*
X94619047Y-105204819D02*
X94714285Y-105157200D01*
X94714285Y-105157200D02*
X94761904Y-105109580D01*
X94761904Y-105109580D02*
X94809523Y-105014342D01*
X94809523Y-105014342D02*
X94809523Y-104204819D01*
X95761904Y-104204819D02*
X95285714Y-104204819D01*
X95285714Y-104204819D02*
X95238095Y-104681009D01*
X95238095Y-104681009D02*
X95285714Y-104633390D01*
X95285714Y-104633390D02*
X95380952Y-104585771D01*
X95380952Y-104585771D02*
X95619047Y-104585771D01*
X95619047Y-104585771D02*
X95714285Y-104633390D01*
X95714285Y-104633390D02*
X95761904Y-104681009D01*
X95761904Y-104681009D02*
X95809523Y-104776247D01*
X95809523Y-104776247D02*
X95809523Y-105014342D01*
X95809523Y-105014342D02*
X95761904Y-105109580D01*
X95761904Y-105109580D02*
X95714285Y-105157200D01*
X95714285Y-105157200D02*
X95619047Y-105204819D01*
X95619047Y-105204819D02*
X95380952Y-105204819D01*
X95380952Y-105204819D02*
X95285714Y-105157200D01*
X95285714Y-105157200D02*
X95238095Y-105109580D01*
X96504819Y-68761904D02*
X97314342Y-68761904D01*
X97314342Y-68761904D02*
X97409580Y-68714285D01*
X97409580Y-68714285D02*
X97457200Y-68666666D01*
X97457200Y-68666666D02*
X97504819Y-68571428D01*
X97504819Y-68571428D02*
X97504819Y-68380952D01*
X97504819Y-68380952D02*
X97457200Y-68285714D01*
X97457200Y-68285714D02*
X97409580Y-68238095D01*
X97409580Y-68238095D02*
X97314342Y-68190476D01*
X97314342Y-68190476D02*
X96504819Y-68190476D01*
X97504819Y-67190476D02*
X97504819Y-67761904D01*
X97504819Y-67476190D02*
X96504819Y-67476190D01*
X96504819Y-67476190D02*
X96647676Y-67571428D01*
X96647676Y-67571428D02*
X96742914Y-67666666D01*
X96742914Y-67666666D02*
X96790533Y-67761904D01*
X119904819Y-71333333D02*
X120619104Y-71333333D01*
X120619104Y-71333333D02*
X120761961Y-71380952D01*
X120761961Y-71380952D02*
X120857200Y-71476190D01*
X120857200Y-71476190D02*
X120904819Y-71619047D01*
X120904819Y-71619047D02*
X120904819Y-71714285D01*
X120904819Y-70333333D02*
X120904819Y-70904761D01*
X120904819Y-70619047D02*
X119904819Y-70619047D01*
X119904819Y-70619047D02*
X120047676Y-70714285D01*
X120047676Y-70714285D02*
X120142914Y-70809523D01*
X120142914Y-70809523D02*
X120190533Y-70904761D01*
X97854819Y-76966666D02*
X97378628Y-77299999D01*
X97854819Y-77538094D02*
X96854819Y-77538094D01*
X96854819Y-77538094D02*
X96854819Y-77157142D01*
X96854819Y-77157142D02*
X96902438Y-77061904D01*
X96902438Y-77061904D02*
X96950057Y-77014285D01*
X96950057Y-77014285D02*
X97045295Y-76966666D01*
X97045295Y-76966666D02*
X97188152Y-76966666D01*
X97188152Y-76966666D02*
X97283390Y-77014285D01*
X97283390Y-77014285D02*
X97331009Y-77061904D01*
X97331009Y-77061904D02*
X97378628Y-77157142D01*
X97378628Y-77157142D02*
X97378628Y-77538094D01*
X97854819Y-76490475D02*
X97854819Y-76299999D01*
X97854819Y-76299999D02*
X97807200Y-76204761D01*
X97807200Y-76204761D02*
X97759580Y-76157142D01*
X97759580Y-76157142D02*
X97616723Y-76061904D01*
X97616723Y-76061904D02*
X97426247Y-76014285D01*
X97426247Y-76014285D02*
X97045295Y-76014285D01*
X97045295Y-76014285D02*
X96950057Y-76061904D01*
X96950057Y-76061904D02*
X96902438Y-76109523D01*
X96902438Y-76109523D02*
X96854819Y-76204761D01*
X96854819Y-76204761D02*
X96854819Y-76395237D01*
X96854819Y-76395237D02*
X96902438Y-76490475D01*
X96902438Y-76490475D02*
X96950057Y-76538094D01*
X96950057Y-76538094D02*
X97045295Y-76585713D01*
X97045295Y-76585713D02*
X97283390Y-76585713D01*
X97283390Y-76585713D02*
X97378628Y-76538094D01*
X97378628Y-76538094D02*
X97426247Y-76490475D01*
X97426247Y-76490475D02*
X97473866Y-76395237D01*
X97473866Y-76395237D02*
X97473866Y-76204761D01*
X97473866Y-76204761D02*
X97426247Y-76109523D01*
X97426247Y-76109523D02*
X97378628Y-76061904D01*
X97378628Y-76061904D02*
X97283390Y-76014285D01*
X113238095Y-63454819D02*
X113238095Y-64264342D01*
X113238095Y-64264342D02*
X113285714Y-64359580D01*
X113285714Y-64359580D02*
X113333333Y-64407200D01*
X113333333Y-64407200D02*
X113428571Y-64454819D01*
X113428571Y-64454819D02*
X113619047Y-64454819D01*
X113619047Y-64454819D02*
X113714285Y-64407200D01*
X113714285Y-64407200D02*
X113761904Y-64359580D01*
X113761904Y-64359580D02*
X113809523Y-64264342D01*
X113809523Y-64264342D02*
X113809523Y-63454819D01*
X114714285Y-63788152D02*
X114714285Y-64454819D01*
X114476190Y-63407200D02*
X114238095Y-64121485D01*
X114238095Y-64121485D02*
X114857142Y-64121485D01*
X105454819Y-103413094D02*
X104454819Y-103413094D01*
X104454819Y-103413094D02*
X104454819Y-103174999D01*
X104454819Y-103174999D02*
X104502438Y-103032142D01*
X104502438Y-103032142D02*
X104597676Y-102936904D01*
X104597676Y-102936904D02*
X104692914Y-102889285D01*
X104692914Y-102889285D02*
X104883390Y-102841666D01*
X104883390Y-102841666D02*
X105026247Y-102841666D01*
X105026247Y-102841666D02*
X105216723Y-102889285D01*
X105216723Y-102889285D02*
X105311961Y-102936904D01*
X105311961Y-102936904D02*
X105407200Y-103032142D01*
X105407200Y-103032142D02*
X105454819Y-103174999D01*
X105454819Y-103174999D02*
X105454819Y-103413094D01*
X104788152Y-101984523D02*
X105454819Y-101984523D01*
X104407200Y-102222618D02*
X105121485Y-102460713D01*
X105121485Y-102460713D02*
X105121485Y-101841666D01*
X107204819Y-103091666D02*
X106728628Y-103424999D01*
X107204819Y-103663094D02*
X106204819Y-103663094D01*
X106204819Y-103663094D02*
X106204819Y-103282142D01*
X106204819Y-103282142D02*
X106252438Y-103186904D01*
X106252438Y-103186904D02*
X106300057Y-103139285D01*
X106300057Y-103139285D02*
X106395295Y-103091666D01*
X106395295Y-103091666D02*
X106538152Y-103091666D01*
X106538152Y-103091666D02*
X106633390Y-103139285D01*
X106633390Y-103139285D02*
X106681009Y-103186904D01*
X106681009Y-103186904D02*
X106728628Y-103282142D01*
X106728628Y-103282142D02*
X106728628Y-103663094D01*
X106538152Y-102234523D02*
X107204819Y-102234523D01*
X106157200Y-102472618D02*
X106871485Y-102710713D01*
X106871485Y-102710713D02*
X106871485Y-102091666D01*
X99857142Y-61359580D02*
X99809523Y-61407200D01*
X99809523Y-61407200D02*
X99666666Y-61454819D01*
X99666666Y-61454819D02*
X99571428Y-61454819D01*
X99571428Y-61454819D02*
X99428571Y-61407200D01*
X99428571Y-61407200D02*
X99333333Y-61311961D01*
X99333333Y-61311961D02*
X99285714Y-61216723D01*
X99285714Y-61216723D02*
X99238095Y-61026247D01*
X99238095Y-61026247D02*
X99238095Y-60883390D01*
X99238095Y-60883390D02*
X99285714Y-60692914D01*
X99285714Y-60692914D02*
X99333333Y-60597676D01*
X99333333Y-60597676D02*
X99428571Y-60502438D01*
X99428571Y-60502438D02*
X99571428Y-60454819D01*
X99571428Y-60454819D02*
X99666666Y-60454819D01*
X99666666Y-60454819D02*
X99809523Y-60502438D01*
X99809523Y-60502438D02*
X99857142Y-60550057D01*
X100809523Y-61454819D02*
X100238095Y-61454819D01*
X100523809Y-61454819D02*
X100523809Y-60454819D01*
X100523809Y-60454819D02*
X100428571Y-60597676D01*
X100428571Y-60597676D02*
X100333333Y-60692914D01*
X100333333Y-60692914D02*
X100238095Y-60740533D01*
X101666666Y-60454819D02*
X101476190Y-60454819D01*
X101476190Y-60454819D02*
X101380952Y-60502438D01*
X101380952Y-60502438D02*
X101333333Y-60550057D01*
X101333333Y-60550057D02*
X101238095Y-60692914D01*
X101238095Y-60692914D02*
X101190476Y-60883390D01*
X101190476Y-60883390D02*
X101190476Y-61264342D01*
X101190476Y-61264342D02*
X101238095Y-61359580D01*
X101238095Y-61359580D02*
X101285714Y-61407200D01*
X101285714Y-61407200D02*
X101380952Y-61454819D01*
X101380952Y-61454819D02*
X101571428Y-61454819D01*
X101571428Y-61454819D02*
X101666666Y-61407200D01*
X101666666Y-61407200D02*
X101714285Y-61359580D01*
X101714285Y-61359580D02*
X101761904Y-61264342D01*
X101761904Y-61264342D02*
X101761904Y-61026247D01*
X101761904Y-61026247D02*
X101714285Y-60931009D01*
X101714285Y-60931009D02*
X101666666Y-60883390D01*
X101666666Y-60883390D02*
X101571428Y-60835771D01*
X101571428Y-60835771D02*
X101380952Y-60835771D01*
X101380952Y-60835771D02*
X101285714Y-60883390D01*
X101285714Y-60883390D02*
X101238095Y-60931009D01*
X101238095Y-60931009D02*
X101190476Y-61026247D01*
X105609580Y-97341666D02*
X105657200Y-97389285D01*
X105657200Y-97389285D02*
X105704819Y-97532142D01*
X105704819Y-97532142D02*
X105704819Y-97627380D01*
X105704819Y-97627380D02*
X105657200Y-97770237D01*
X105657200Y-97770237D02*
X105561961Y-97865475D01*
X105561961Y-97865475D02*
X105466723Y-97913094D01*
X105466723Y-97913094D02*
X105276247Y-97960713D01*
X105276247Y-97960713D02*
X105133390Y-97960713D01*
X105133390Y-97960713D02*
X104942914Y-97913094D01*
X104942914Y-97913094D02*
X104847676Y-97865475D01*
X104847676Y-97865475D02*
X104752438Y-97770237D01*
X104752438Y-97770237D02*
X104704819Y-97627380D01*
X104704819Y-97627380D02*
X104704819Y-97532142D01*
X104704819Y-97532142D02*
X104752438Y-97389285D01*
X104752438Y-97389285D02*
X104800057Y-97341666D01*
X104704819Y-97008332D02*
X104704819Y-96389285D01*
X104704819Y-96389285D02*
X105085771Y-96722618D01*
X105085771Y-96722618D02*
X105085771Y-96579761D01*
X105085771Y-96579761D02*
X105133390Y-96484523D01*
X105133390Y-96484523D02*
X105181009Y-96436904D01*
X105181009Y-96436904D02*
X105276247Y-96389285D01*
X105276247Y-96389285D02*
X105514342Y-96389285D01*
X105514342Y-96389285D02*
X105609580Y-96436904D01*
X105609580Y-96436904D02*
X105657200Y-96484523D01*
X105657200Y-96484523D02*
X105704819Y-96579761D01*
X105704819Y-96579761D02*
X105704819Y-96865475D01*
X105704819Y-96865475D02*
X105657200Y-96960713D01*
X105657200Y-96960713D02*
X105609580Y-97008332D01*
X91357142Y-78054819D02*
X91023809Y-77578628D01*
X90785714Y-78054819D02*
X90785714Y-77054819D01*
X90785714Y-77054819D02*
X91166666Y-77054819D01*
X91166666Y-77054819D02*
X91261904Y-77102438D01*
X91261904Y-77102438D02*
X91309523Y-77150057D01*
X91309523Y-77150057D02*
X91357142Y-77245295D01*
X91357142Y-77245295D02*
X91357142Y-77388152D01*
X91357142Y-77388152D02*
X91309523Y-77483390D01*
X91309523Y-77483390D02*
X91261904Y-77531009D01*
X91261904Y-77531009D02*
X91166666Y-77578628D01*
X91166666Y-77578628D02*
X90785714Y-77578628D01*
X92309523Y-78054819D02*
X91738095Y-78054819D01*
X92023809Y-78054819D02*
X92023809Y-77054819D01*
X92023809Y-77054819D02*
X91928571Y-77197676D01*
X91928571Y-77197676D02*
X91833333Y-77292914D01*
X91833333Y-77292914D02*
X91738095Y-77340533D01*
X92928571Y-77054819D02*
X93023809Y-77054819D01*
X93023809Y-77054819D02*
X93119047Y-77102438D01*
X93119047Y-77102438D02*
X93166666Y-77150057D01*
X93166666Y-77150057D02*
X93214285Y-77245295D01*
X93214285Y-77245295D02*
X93261904Y-77435771D01*
X93261904Y-77435771D02*
X93261904Y-77673866D01*
X93261904Y-77673866D02*
X93214285Y-77864342D01*
X93214285Y-77864342D02*
X93166666Y-77959580D01*
X93166666Y-77959580D02*
X93119047Y-78007200D01*
X93119047Y-78007200D02*
X93023809Y-78054819D01*
X93023809Y-78054819D02*
X92928571Y-78054819D01*
X92928571Y-78054819D02*
X92833333Y-78007200D01*
X92833333Y-78007200D02*
X92785714Y-77959580D01*
X92785714Y-77959580D02*
X92738095Y-77864342D01*
X92738095Y-77864342D02*
X92690476Y-77673866D01*
X92690476Y-77673866D02*
X92690476Y-77435771D01*
X92690476Y-77435771D02*
X92738095Y-77245295D01*
X92738095Y-77245295D02*
X92785714Y-77150057D01*
X92785714Y-77150057D02*
X92833333Y-77102438D01*
X92833333Y-77102438D02*
X92928571Y-77054819D01*
X89433333Y-88809580D02*
X89385714Y-88857200D01*
X89385714Y-88857200D02*
X89242857Y-88904819D01*
X89242857Y-88904819D02*
X89147619Y-88904819D01*
X89147619Y-88904819D02*
X89004762Y-88857200D01*
X89004762Y-88857200D02*
X88909524Y-88761961D01*
X88909524Y-88761961D02*
X88861905Y-88666723D01*
X88861905Y-88666723D02*
X88814286Y-88476247D01*
X88814286Y-88476247D02*
X88814286Y-88333390D01*
X88814286Y-88333390D02*
X88861905Y-88142914D01*
X88861905Y-88142914D02*
X88909524Y-88047676D01*
X88909524Y-88047676D02*
X89004762Y-87952438D01*
X89004762Y-87952438D02*
X89147619Y-87904819D01*
X89147619Y-87904819D02*
X89242857Y-87904819D01*
X89242857Y-87904819D02*
X89385714Y-87952438D01*
X89385714Y-87952438D02*
X89433333Y-88000057D01*
X90290476Y-88238152D02*
X90290476Y-88904819D01*
X90052381Y-87857200D02*
X89814286Y-88571485D01*
X89814286Y-88571485D02*
X90433333Y-88571485D01*
X107757142Y-61159580D02*
X107709523Y-61207200D01*
X107709523Y-61207200D02*
X107566666Y-61254819D01*
X107566666Y-61254819D02*
X107471428Y-61254819D01*
X107471428Y-61254819D02*
X107328571Y-61207200D01*
X107328571Y-61207200D02*
X107233333Y-61111961D01*
X107233333Y-61111961D02*
X107185714Y-61016723D01*
X107185714Y-61016723D02*
X107138095Y-60826247D01*
X107138095Y-60826247D02*
X107138095Y-60683390D01*
X107138095Y-60683390D02*
X107185714Y-60492914D01*
X107185714Y-60492914D02*
X107233333Y-60397676D01*
X107233333Y-60397676D02*
X107328571Y-60302438D01*
X107328571Y-60302438D02*
X107471428Y-60254819D01*
X107471428Y-60254819D02*
X107566666Y-60254819D01*
X107566666Y-60254819D02*
X107709523Y-60302438D01*
X107709523Y-60302438D02*
X107757142Y-60350057D01*
X108138095Y-60350057D02*
X108185714Y-60302438D01*
X108185714Y-60302438D02*
X108280952Y-60254819D01*
X108280952Y-60254819D02*
X108519047Y-60254819D01*
X108519047Y-60254819D02*
X108614285Y-60302438D01*
X108614285Y-60302438D02*
X108661904Y-60350057D01*
X108661904Y-60350057D02*
X108709523Y-60445295D01*
X108709523Y-60445295D02*
X108709523Y-60540533D01*
X108709523Y-60540533D02*
X108661904Y-60683390D01*
X108661904Y-60683390D02*
X108090476Y-61254819D01*
X108090476Y-61254819D02*
X108709523Y-61254819D01*
X109614285Y-60254819D02*
X109138095Y-60254819D01*
X109138095Y-60254819D02*
X109090476Y-60731009D01*
X109090476Y-60731009D02*
X109138095Y-60683390D01*
X109138095Y-60683390D02*
X109233333Y-60635771D01*
X109233333Y-60635771D02*
X109471428Y-60635771D01*
X109471428Y-60635771D02*
X109566666Y-60683390D01*
X109566666Y-60683390D02*
X109614285Y-60731009D01*
X109614285Y-60731009D02*
X109661904Y-60826247D01*
X109661904Y-60826247D02*
X109661904Y-61064342D01*
X109661904Y-61064342D02*
X109614285Y-61159580D01*
X109614285Y-61159580D02*
X109566666Y-61207200D01*
X109566666Y-61207200D02*
X109471428Y-61254819D01*
X109471428Y-61254819D02*
X109233333Y-61254819D01*
X109233333Y-61254819D02*
X109138095Y-61207200D01*
X109138095Y-61207200D02*
X109090476Y-61159580D01*
X86383333Y-67454819D02*
X86050000Y-66978628D01*
X85811905Y-67454819D02*
X85811905Y-66454819D01*
X85811905Y-66454819D02*
X86192857Y-66454819D01*
X86192857Y-66454819D02*
X86288095Y-66502438D01*
X86288095Y-66502438D02*
X86335714Y-66550057D01*
X86335714Y-66550057D02*
X86383333Y-66645295D01*
X86383333Y-66645295D02*
X86383333Y-66788152D01*
X86383333Y-66788152D02*
X86335714Y-66883390D01*
X86335714Y-66883390D02*
X86288095Y-66931009D01*
X86288095Y-66931009D02*
X86192857Y-66978628D01*
X86192857Y-66978628D02*
X85811905Y-66978628D01*
X86764286Y-66550057D02*
X86811905Y-66502438D01*
X86811905Y-66502438D02*
X86907143Y-66454819D01*
X86907143Y-66454819D02*
X87145238Y-66454819D01*
X87145238Y-66454819D02*
X87240476Y-66502438D01*
X87240476Y-66502438D02*
X87288095Y-66550057D01*
X87288095Y-66550057D02*
X87335714Y-66645295D01*
X87335714Y-66645295D02*
X87335714Y-66740533D01*
X87335714Y-66740533D02*
X87288095Y-66883390D01*
X87288095Y-66883390D02*
X86716667Y-67454819D01*
X86716667Y-67454819D02*
X87335714Y-67454819D01*
X113582142Y-84859580D02*
X113534523Y-84907200D01*
X113534523Y-84907200D02*
X113391666Y-84954819D01*
X113391666Y-84954819D02*
X113296428Y-84954819D01*
X113296428Y-84954819D02*
X113153571Y-84907200D01*
X113153571Y-84907200D02*
X113058333Y-84811961D01*
X113058333Y-84811961D02*
X113010714Y-84716723D01*
X113010714Y-84716723D02*
X112963095Y-84526247D01*
X112963095Y-84526247D02*
X112963095Y-84383390D01*
X112963095Y-84383390D02*
X113010714Y-84192914D01*
X113010714Y-84192914D02*
X113058333Y-84097676D01*
X113058333Y-84097676D02*
X113153571Y-84002438D01*
X113153571Y-84002438D02*
X113296428Y-83954819D01*
X113296428Y-83954819D02*
X113391666Y-83954819D01*
X113391666Y-83954819D02*
X113534523Y-84002438D01*
X113534523Y-84002438D02*
X113582142Y-84050057D01*
X114534523Y-84954819D02*
X113963095Y-84954819D01*
X114248809Y-84954819D02*
X114248809Y-83954819D01*
X114248809Y-83954819D02*
X114153571Y-84097676D01*
X114153571Y-84097676D02*
X114058333Y-84192914D01*
X114058333Y-84192914D02*
X113963095Y-84240533D01*
X115010714Y-84954819D02*
X115201190Y-84954819D01*
X115201190Y-84954819D02*
X115296428Y-84907200D01*
X115296428Y-84907200D02*
X115344047Y-84859580D01*
X115344047Y-84859580D02*
X115439285Y-84716723D01*
X115439285Y-84716723D02*
X115486904Y-84526247D01*
X115486904Y-84526247D02*
X115486904Y-84145295D01*
X115486904Y-84145295D02*
X115439285Y-84050057D01*
X115439285Y-84050057D02*
X115391666Y-84002438D01*
X115391666Y-84002438D02*
X115296428Y-83954819D01*
X115296428Y-83954819D02*
X115105952Y-83954819D01*
X115105952Y-83954819D02*
X115010714Y-84002438D01*
X115010714Y-84002438D02*
X114963095Y-84050057D01*
X114963095Y-84050057D02*
X114915476Y-84145295D01*
X114915476Y-84145295D02*
X114915476Y-84383390D01*
X114915476Y-84383390D02*
X114963095Y-84478628D01*
X114963095Y-84478628D02*
X115010714Y-84526247D01*
X115010714Y-84526247D02*
X115105952Y-84573866D01*
X115105952Y-84573866D02*
X115296428Y-84573866D01*
X115296428Y-84573866D02*
X115391666Y-84526247D01*
X115391666Y-84526247D02*
X115439285Y-84478628D01*
X115439285Y-84478628D02*
X115486904Y-84383390D01*
X118986905Y-85204819D02*
X118986905Y-84204819D01*
X118986905Y-84204819D02*
X119225000Y-84204819D01*
X119225000Y-84204819D02*
X119367857Y-84252438D01*
X119367857Y-84252438D02*
X119463095Y-84347676D01*
X119463095Y-84347676D02*
X119510714Y-84442914D01*
X119510714Y-84442914D02*
X119558333Y-84633390D01*
X119558333Y-84633390D02*
X119558333Y-84776247D01*
X119558333Y-84776247D02*
X119510714Y-84966723D01*
X119510714Y-84966723D02*
X119463095Y-85061961D01*
X119463095Y-85061961D02*
X119367857Y-85157200D01*
X119367857Y-85157200D02*
X119225000Y-85204819D01*
X119225000Y-85204819D02*
X118986905Y-85204819D01*
X119939286Y-84300057D02*
X119986905Y-84252438D01*
X119986905Y-84252438D02*
X120082143Y-84204819D01*
X120082143Y-84204819D02*
X120320238Y-84204819D01*
X120320238Y-84204819D02*
X120415476Y-84252438D01*
X120415476Y-84252438D02*
X120463095Y-84300057D01*
X120463095Y-84300057D02*
X120510714Y-84395295D01*
X120510714Y-84395295D02*
X120510714Y-84490533D01*
X120510714Y-84490533D02*
X120463095Y-84633390D01*
X120463095Y-84633390D02*
X119891667Y-85204819D01*
X119891667Y-85204819D02*
X120510714Y-85204819D01*
X115359523Y-109859580D02*
X115311904Y-109907200D01*
X115311904Y-109907200D02*
X115169047Y-109954819D01*
X115169047Y-109954819D02*
X115073809Y-109954819D01*
X115073809Y-109954819D02*
X114930952Y-109907200D01*
X114930952Y-109907200D02*
X114835714Y-109811961D01*
X114835714Y-109811961D02*
X114788095Y-109716723D01*
X114788095Y-109716723D02*
X114740476Y-109526247D01*
X114740476Y-109526247D02*
X114740476Y-109383390D01*
X114740476Y-109383390D02*
X114788095Y-109192914D01*
X114788095Y-109192914D02*
X114835714Y-109097676D01*
X114835714Y-109097676D02*
X114930952Y-109002438D01*
X114930952Y-109002438D02*
X115073809Y-108954819D01*
X115073809Y-108954819D02*
X115169047Y-108954819D01*
X115169047Y-108954819D02*
X115311904Y-109002438D01*
X115311904Y-109002438D02*
X115359523Y-109050057D01*
X115788095Y-109954819D02*
X115788095Y-108954819D01*
X115788095Y-108954819D02*
X116359523Y-109954819D01*
X116359523Y-109954819D02*
X116359523Y-108954819D01*
X116740476Y-108954819D02*
X117359523Y-108954819D01*
X117359523Y-108954819D02*
X117026190Y-109335771D01*
X117026190Y-109335771D02*
X117169047Y-109335771D01*
X117169047Y-109335771D02*
X117264285Y-109383390D01*
X117264285Y-109383390D02*
X117311904Y-109431009D01*
X117311904Y-109431009D02*
X117359523Y-109526247D01*
X117359523Y-109526247D02*
X117359523Y-109764342D01*
X117359523Y-109764342D02*
X117311904Y-109859580D01*
X117311904Y-109859580D02*
X117264285Y-109907200D01*
X117264285Y-109907200D02*
X117169047Y-109954819D01*
X117169047Y-109954819D02*
X116883333Y-109954819D01*
X116883333Y-109954819D02*
X116788095Y-109907200D01*
X116788095Y-109907200D02*
X116740476Y-109859580D01*
X108704819Y-104067857D02*
X108228628Y-104401190D01*
X108704819Y-104639285D02*
X107704819Y-104639285D01*
X107704819Y-104639285D02*
X107704819Y-104258333D01*
X107704819Y-104258333D02*
X107752438Y-104163095D01*
X107752438Y-104163095D02*
X107800057Y-104115476D01*
X107800057Y-104115476D02*
X107895295Y-104067857D01*
X107895295Y-104067857D02*
X108038152Y-104067857D01*
X108038152Y-104067857D02*
X108133390Y-104115476D01*
X108133390Y-104115476D02*
X108181009Y-104163095D01*
X108181009Y-104163095D02*
X108228628Y-104258333D01*
X108228628Y-104258333D02*
X108228628Y-104639285D01*
X108704819Y-103115476D02*
X108704819Y-103686904D01*
X108704819Y-103401190D02*
X107704819Y-103401190D01*
X107704819Y-103401190D02*
X107847676Y-103496428D01*
X107847676Y-103496428D02*
X107942914Y-103591666D01*
X107942914Y-103591666D02*
X107990533Y-103686904D01*
X108038152Y-102258333D02*
X108704819Y-102258333D01*
X107657200Y-102496428D02*
X108371485Y-102734523D01*
X108371485Y-102734523D02*
X108371485Y-102115476D01*
X102054819Y-105166666D02*
X101578628Y-105499999D01*
X102054819Y-105738094D02*
X101054819Y-105738094D01*
X101054819Y-105738094D02*
X101054819Y-105357142D01*
X101054819Y-105357142D02*
X101102438Y-105261904D01*
X101102438Y-105261904D02*
X101150057Y-105214285D01*
X101150057Y-105214285D02*
X101245295Y-105166666D01*
X101245295Y-105166666D02*
X101388152Y-105166666D01*
X101388152Y-105166666D02*
X101483390Y-105214285D01*
X101483390Y-105214285D02*
X101531009Y-105261904D01*
X101531009Y-105261904D02*
X101578628Y-105357142D01*
X101578628Y-105357142D02*
X101578628Y-105738094D01*
X101054819Y-104833332D02*
X101054819Y-104166666D01*
X101054819Y-104166666D02*
X102054819Y-104595237D01*
X93854819Y-99392857D02*
X93378628Y-99726190D01*
X93854819Y-99964285D02*
X92854819Y-99964285D01*
X92854819Y-99964285D02*
X92854819Y-99583333D01*
X92854819Y-99583333D02*
X92902438Y-99488095D01*
X92902438Y-99488095D02*
X92950057Y-99440476D01*
X92950057Y-99440476D02*
X93045295Y-99392857D01*
X93045295Y-99392857D02*
X93188152Y-99392857D01*
X93188152Y-99392857D02*
X93283390Y-99440476D01*
X93283390Y-99440476D02*
X93331009Y-99488095D01*
X93331009Y-99488095D02*
X93378628Y-99583333D01*
X93378628Y-99583333D02*
X93378628Y-99964285D01*
X92950057Y-99011904D02*
X92902438Y-98964285D01*
X92902438Y-98964285D02*
X92854819Y-98869047D01*
X92854819Y-98869047D02*
X92854819Y-98630952D01*
X92854819Y-98630952D02*
X92902438Y-98535714D01*
X92902438Y-98535714D02*
X92950057Y-98488095D01*
X92950057Y-98488095D02*
X93045295Y-98440476D01*
X93045295Y-98440476D02*
X93140533Y-98440476D01*
X93140533Y-98440476D02*
X93283390Y-98488095D01*
X93283390Y-98488095D02*
X93854819Y-99059523D01*
X93854819Y-99059523D02*
X93854819Y-98440476D01*
X92854819Y-97821428D02*
X92854819Y-97726190D01*
X92854819Y-97726190D02*
X92902438Y-97630952D01*
X92902438Y-97630952D02*
X92950057Y-97583333D01*
X92950057Y-97583333D02*
X93045295Y-97535714D01*
X93045295Y-97535714D02*
X93235771Y-97488095D01*
X93235771Y-97488095D02*
X93473866Y-97488095D01*
X93473866Y-97488095D02*
X93664342Y-97535714D01*
X93664342Y-97535714D02*
X93759580Y-97583333D01*
X93759580Y-97583333D02*
X93807200Y-97630952D01*
X93807200Y-97630952D02*
X93854819Y-97726190D01*
X93854819Y-97726190D02*
X93854819Y-97821428D01*
X93854819Y-97821428D02*
X93807200Y-97916666D01*
X93807200Y-97916666D02*
X93759580Y-97964285D01*
X93759580Y-97964285D02*
X93664342Y-98011904D01*
X93664342Y-98011904D02*
X93473866Y-98059523D01*
X93473866Y-98059523D02*
X93235771Y-98059523D01*
X93235771Y-98059523D02*
X93045295Y-98011904D01*
X93045295Y-98011904D02*
X92950057Y-97964285D01*
X92950057Y-97964285D02*
X92902438Y-97916666D01*
X92902438Y-97916666D02*
X92854819Y-97821428D01*
X104207142Y-90709580D02*
X104159523Y-90757200D01*
X104159523Y-90757200D02*
X104016666Y-90804819D01*
X104016666Y-90804819D02*
X103921428Y-90804819D01*
X103921428Y-90804819D02*
X103778571Y-90757200D01*
X103778571Y-90757200D02*
X103683333Y-90661961D01*
X103683333Y-90661961D02*
X103635714Y-90566723D01*
X103635714Y-90566723D02*
X103588095Y-90376247D01*
X103588095Y-90376247D02*
X103588095Y-90233390D01*
X103588095Y-90233390D02*
X103635714Y-90042914D01*
X103635714Y-90042914D02*
X103683333Y-89947676D01*
X103683333Y-89947676D02*
X103778571Y-89852438D01*
X103778571Y-89852438D02*
X103921428Y-89804819D01*
X103921428Y-89804819D02*
X104016666Y-89804819D01*
X104016666Y-89804819D02*
X104159523Y-89852438D01*
X104159523Y-89852438D02*
X104207142Y-89900057D01*
X105159523Y-90804819D02*
X104588095Y-90804819D01*
X104873809Y-90804819D02*
X104873809Y-89804819D01*
X104873809Y-89804819D02*
X104778571Y-89947676D01*
X104778571Y-89947676D02*
X104683333Y-90042914D01*
X104683333Y-90042914D02*
X104588095Y-90090533D01*
X105492857Y-89804819D02*
X106159523Y-89804819D01*
X106159523Y-89804819D02*
X105730952Y-90804819D01*
X98838095Y-78254819D02*
X98838095Y-79064342D01*
X98838095Y-79064342D02*
X98885714Y-79159580D01*
X98885714Y-79159580D02*
X98933333Y-79207200D01*
X98933333Y-79207200D02*
X99028571Y-79254819D01*
X99028571Y-79254819D02*
X99219047Y-79254819D01*
X99219047Y-79254819D02*
X99314285Y-79207200D01*
X99314285Y-79207200D02*
X99361904Y-79159580D01*
X99361904Y-79159580D02*
X99409523Y-79064342D01*
X99409523Y-79064342D02*
X99409523Y-78254819D01*
X99838095Y-78350057D02*
X99885714Y-78302438D01*
X99885714Y-78302438D02*
X99980952Y-78254819D01*
X99980952Y-78254819D02*
X100219047Y-78254819D01*
X100219047Y-78254819D02*
X100314285Y-78302438D01*
X100314285Y-78302438D02*
X100361904Y-78350057D01*
X100361904Y-78350057D02*
X100409523Y-78445295D01*
X100409523Y-78445295D02*
X100409523Y-78540533D01*
X100409523Y-78540533D02*
X100361904Y-78683390D01*
X100361904Y-78683390D02*
X99790476Y-79254819D01*
X99790476Y-79254819D02*
X100409523Y-79254819D01*
X88809580Y-110642857D02*
X88857200Y-110690476D01*
X88857200Y-110690476D02*
X88904819Y-110833333D01*
X88904819Y-110833333D02*
X88904819Y-110928571D01*
X88904819Y-110928571D02*
X88857200Y-111071428D01*
X88857200Y-111071428D02*
X88761961Y-111166666D01*
X88761961Y-111166666D02*
X88666723Y-111214285D01*
X88666723Y-111214285D02*
X88476247Y-111261904D01*
X88476247Y-111261904D02*
X88333390Y-111261904D01*
X88333390Y-111261904D02*
X88142914Y-111214285D01*
X88142914Y-111214285D02*
X88047676Y-111166666D01*
X88047676Y-111166666D02*
X87952438Y-111071428D01*
X87952438Y-111071428D02*
X87904819Y-110928571D01*
X87904819Y-110928571D02*
X87904819Y-110833333D01*
X87904819Y-110833333D02*
X87952438Y-110690476D01*
X87952438Y-110690476D02*
X88000057Y-110642857D01*
X88000057Y-110261904D02*
X87952438Y-110214285D01*
X87952438Y-110214285D02*
X87904819Y-110119047D01*
X87904819Y-110119047D02*
X87904819Y-109880952D01*
X87904819Y-109880952D02*
X87952438Y-109785714D01*
X87952438Y-109785714D02*
X88000057Y-109738095D01*
X88000057Y-109738095D02*
X88095295Y-109690476D01*
X88095295Y-109690476D02*
X88190533Y-109690476D01*
X88190533Y-109690476D02*
X88333390Y-109738095D01*
X88333390Y-109738095D02*
X88904819Y-110309523D01*
X88904819Y-110309523D02*
X88904819Y-109690476D01*
X88238152Y-108833333D02*
X88904819Y-108833333D01*
X87857200Y-109071428D02*
X88571485Y-109309523D01*
X88571485Y-109309523D02*
X88571485Y-108690476D01*
X96488095Y-84404819D02*
X96488095Y-85214342D01*
X96488095Y-85214342D02*
X96535714Y-85309580D01*
X96535714Y-85309580D02*
X96583333Y-85357200D01*
X96583333Y-85357200D02*
X96678571Y-85404819D01*
X96678571Y-85404819D02*
X96869047Y-85404819D01*
X96869047Y-85404819D02*
X96964285Y-85357200D01*
X96964285Y-85357200D02*
X97011904Y-85309580D01*
X97011904Y-85309580D02*
X97059523Y-85214342D01*
X97059523Y-85214342D02*
X97059523Y-84404819D01*
X97440476Y-84404819D02*
X98059523Y-84404819D01*
X98059523Y-84404819D02*
X97726190Y-84785771D01*
X97726190Y-84785771D02*
X97869047Y-84785771D01*
X97869047Y-84785771D02*
X97964285Y-84833390D01*
X97964285Y-84833390D02*
X98011904Y-84881009D01*
X98011904Y-84881009D02*
X98059523Y-84976247D01*
X98059523Y-84976247D02*
X98059523Y-85214342D01*
X98059523Y-85214342D02*
X98011904Y-85309580D01*
X98011904Y-85309580D02*
X97964285Y-85357200D01*
X97964285Y-85357200D02*
X97869047Y-85404819D01*
X97869047Y-85404819D02*
X97583333Y-85404819D01*
X97583333Y-85404819D02*
X97488095Y-85357200D01*
X97488095Y-85357200D02*
X97440476Y-85309580D01*
X97359580Y-97037897D02*
X97407200Y-97085516D01*
X97407200Y-97085516D02*
X97454819Y-97228373D01*
X97454819Y-97228373D02*
X97454819Y-97323611D01*
X97454819Y-97323611D02*
X97407200Y-97466468D01*
X97407200Y-97466468D02*
X97311961Y-97561706D01*
X97311961Y-97561706D02*
X97216723Y-97609325D01*
X97216723Y-97609325D02*
X97026247Y-97656944D01*
X97026247Y-97656944D02*
X96883390Y-97656944D01*
X96883390Y-97656944D02*
X96692914Y-97609325D01*
X96692914Y-97609325D02*
X96597676Y-97561706D01*
X96597676Y-97561706D02*
X96502438Y-97466468D01*
X96502438Y-97466468D02*
X96454819Y-97323611D01*
X96454819Y-97323611D02*
X96454819Y-97228373D01*
X96454819Y-97228373D02*
X96502438Y-97085516D01*
X96502438Y-97085516D02*
X96550057Y-97037897D01*
X96454819Y-96704563D02*
X96454819Y-96037897D01*
X96454819Y-96037897D02*
X97454819Y-96466468D01*
X94357142Y-78054819D02*
X94023809Y-77578628D01*
X93785714Y-78054819D02*
X93785714Y-77054819D01*
X93785714Y-77054819D02*
X94166666Y-77054819D01*
X94166666Y-77054819D02*
X94261904Y-77102438D01*
X94261904Y-77102438D02*
X94309523Y-77150057D01*
X94309523Y-77150057D02*
X94357142Y-77245295D01*
X94357142Y-77245295D02*
X94357142Y-77388152D01*
X94357142Y-77388152D02*
X94309523Y-77483390D01*
X94309523Y-77483390D02*
X94261904Y-77531009D01*
X94261904Y-77531009D02*
X94166666Y-77578628D01*
X94166666Y-77578628D02*
X93785714Y-77578628D01*
X95309523Y-78054819D02*
X94738095Y-78054819D01*
X95023809Y-78054819D02*
X95023809Y-77054819D01*
X95023809Y-77054819D02*
X94928571Y-77197676D01*
X94928571Y-77197676D02*
X94833333Y-77292914D01*
X94833333Y-77292914D02*
X94738095Y-77340533D01*
X96261904Y-78054819D02*
X95690476Y-78054819D01*
X95976190Y-78054819D02*
X95976190Y-77054819D01*
X95976190Y-77054819D02*
X95880952Y-77197676D01*
X95880952Y-77197676D02*
X95785714Y-77292914D01*
X95785714Y-77292914D02*
X95690476Y-77340533D01*
%TO.C,R8*%
D11*
X96477500Y-102237742D02*
X96477500Y-102712258D01*
X97522500Y-102237742D02*
X97522500Y-102712258D01*
%TO.C,C21*%
X99490000Y-102615580D02*
X99490000Y-102334420D01*
X100510000Y-102615580D02*
X100510000Y-102334420D01*
%TO.C,R12*%
X92237258Y-72477500D02*
X91762742Y-72477500D01*
X92237258Y-73522500D02*
X91762742Y-73522500D01*
%TO.C,J3*%
X91500000Y-114750000D02*
X92250000Y-114750000D01*
X92250000Y-111800000D02*
X95300000Y-111800000D01*
X92250000Y-114750000D02*
X92250000Y-111800000D01*
X98150000Y-117300000D02*
X99400000Y-117300000D01*
X98350000Y-111800000D02*
X95300000Y-111800000D01*
X98350000Y-114750000D02*
X98350000Y-111800000D01*
X99100000Y-114750000D02*
X98350000Y-114750000D01*
X99400000Y-117300000D02*
X99400000Y-116050000D01*
X91500000Y-116250000D02*
X93300000Y-116250000D01*
X93300000Y-117000000D01*
X91500000Y-117000000D01*
X91500000Y-116250000D01*
X94800000Y-116250000D02*
X95800000Y-116250000D01*
X95800000Y-117000000D01*
X94800000Y-117000000D01*
X94800000Y-116250000D01*
X97300000Y-116250000D02*
X99100000Y-116250000D01*
X99100000Y-117000000D01*
X97300000Y-117000000D01*
X97300000Y-116250000D01*
X91490000Y-111040000D02*
X99110000Y-111040000D01*
X99110000Y-117010000D01*
X91490000Y-117010000D01*
X91490000Y-111040000D01*
%TO.C,C13*%
X101709420Y-88340000D02*
X101990580Y-88340000D01*
X101709420Y-89360000D02*
X101990580Y-89360000D01*
%TO.C,R5*%
X92337258Y-89427500D02*
X91862742Y-89427500D01*
X92337258Y-90472500D02*
X91862742Y-90472500D01*
%TO.C,C20*%
X114084420Y-82490000D02*
X114365580Y-82490000D01*
X114084420Y-83510000D02*
X114365580Y-83510000D01*
%TO.C,C23*%
X90990000Y-107040580D02*
X90990000Y-106759420D01*
X92010000Y-107040580D02*
X92010000Y-106759420D01*
%TO.C,R6*%
X106527500Y-78962742D02*
X106527500Y-79437258D01*
X107572500Y-78962742D02*
X107572500Y-79437258D01*
%TO.C,C14*%
X89365580Y-64990000D02*
X89084420Y-64990000D01*
X89365580Y-66010000D02*
X89084420Y-66010000D01*
%TO.C,C2*%
X95290000Y-92909420D02*
X95290000Y-93190580D01*
X96310000Y-92909420D02*
X96310000Y-93190580D01*
%TO.C,C1*%
X92240580Y-86440000D02*
X91959420Y-86440000D01*
X92240580Y-87460000D02*
X91959420Y-87460000D01*
%TO.C,C11*%
X95140580Y-75490000D02*
X94859420Y-75490000D01*
X95140580Y-76510000D02*
X94859420Y-76510000D01*
%TO.C,C5*%
X105040000Y-79340580D02*
X105040000Y-79059420D01*
X106060000Y-79340580D02*
X106060000Y-79059420D01*
%TO.C,C15*%
X101709420Y-86840000D02*
X101990580Y-86840000D01*
X101709420Y-87860000D02*
X101990580Y-87860000D01*
%TO.C,R15*%
X97012742Y-61977500D02*
X97487258Y-61977500D01*
X97012742Y-63022500D02*
X97487258Y-63022500D01*
%TO.C,R19*%
X91377500Y-101462742D02*
X91377500Y-101937258D01*
X92422500Y-101462742D02*
X92422500Y-101937258D01*
%TO.C,D1*%
X116915000Y-79140000D02*
X116915000Y-80360000D01*
X116915000Y-79140000D02*
X118225000Y-79140000D01*
X116915000Y-80360000D02*
X118225000Y-80360000D01*
%TO.C,R18*%
X117462258Y-82477500D02*
X116987742Y-82477500D01*
X117462258Y-83522500D02*
X116987742Y-83522500D01*
%TO.C,D3*%
X109390000Y-99865000D02*
X109390000Y-101175000D01*
X110610000Y-99865000D02*
X109390000Y-99865000D01*
X110610000Y-99865000D02*
X110610000Y-101175000D01*
%TO.C,C22*%
X97990000Y-102615580D02*
X97990000Y-102334420D01*
X99010000Y-102615580D02*
X99010000Y-102334420D01*
%TO.C,C6*%
X100990000Y-99615580D02*
X100990000Y-99334420D01*
X102010000Y-99615580D02*
X102010000Y-99334420D01*
%TO.C,FB1*%
X87490000Y-73412779D02*
X87490000Y-73087221D01*
X88510000Y-73412779D02*
X88510000Y-73087221D01*
%TO.C,R3*%
X89462258Y-67977500D02*
X88987742Y-67977500D01*
X89462258Y-69022500D02*
X88987742Y-69022500D01*
%TO.C,C9*%
X102109420Y-80940000D02*
X102390580Y-80940000D01*
X102109420Y-81960000D02*
X102390580Y-81960000D01*
%TO.C,R16*%
X109987258Y-61967500D02*
X109512742Y-61967500D01*
X109987258Y-63012500D02*
X109512742Y-63012500D01*
%TO.C,J2*%
X100250000Y-114750000D02*
X101000000Y-114750000D01*
X101000000Y-111800000D02*
X104050000Y-111800000D01*
X101000000Y-114750000D02*
X101000000Y-111800000D01*
X106900000Y-117300000D02*
X108150000Y-117300000D01*
X107100000Y-111800000D02*
X104050000Y-111800000D01*
X107100000Y-114750000D02*
X107100000Y-111800000D01*
X107850000Y-114750000D02*
X107100000Y-114750000D01*
X108150000Y-117300000D02*
X108150000Y-116050000D01*
X100250000Y-116250000D02*
X102050000Y-116250000D01*
X102050000Y-117000000D01*
X100250000Y-117000000D01*
X100250000Y-116250000D01*
X103550000Y-116250000D02*
X104550000Y-116250000D01*
X104550000Y-117000000D01*
X103550000Y-117000000D01*
X103550000Y-116250000D01*
X106050000Y-116250000D02*
X107850000Y-116250000D01*
X107850000Y-117000000D01*
X106050000Y-117000000D01*
X106050000Y-116250000D01*
X100240000Y-111040000D02*
X107860000Y-111040000D01*
X107860000Y-117010000D01*
X100240000Y-117010000D01*
X100240000Y-111040000D01*
%TO.C,CN2*%
D12*
X111950000Y-88500000D02*
X111950000Y-94500000D01*
X111970000Y-94500000D02*
X111950000Y-94500000D01*
X113570000Y-88500000D02*
X111950000Y-88500000D01*
X117670000Y-94500000D02*
X114030000Y-94500000D01*
X120570000Y-88500000D02*
X115630000Y-88500000D01*
X121270000Y-94500000D02*
X119730000Y-94500000D01*
X124000000Y-88500000D02*
X122630000Y-88500000D01*
X124000000Y-89000000D02*
X126150000Y-89000000D01*
X124000000Y-94000000D02*
X126150000Y-94000000D01*
X124000000Y-94500000D02*
X123330000Y-94500000D01*
X124000000Y-94500000D02*
X124000000Y-88500000D01*
X126150000Y-94000000D02*
X126150000Y-89000000D01*
%TO.C,CN1*%
D11*
X83670000Y-104470000D02*
X83670000Y-71340000D01*
X86430000Y-71340000D02*
X83670000Y-71340000D01*
X86430000Y-104470000D02*
X83670000Y-104470000D01*
X86430000Y-104470000D02*
X86430000Y-71340000D01*
X86430000Y-105740000D02*
X86430000Y-107120000D01*
X86430000Y-107120000D02*
X85050000Y-107120000D01*
%TO.C,C8*%
X89365580Y-69490000D02*
X89084420Y-69490000D01*
X89365580Y-70510000D02*
X89084420Y-70510000D01*
%TO.C,R17*%
X116987742Y-80977500D02*
X117462258Y-80977500D01*
X116987742Y-82022500D02*
X117462258Y-82022500D01*
%TO.C,C10*%
X95140580Y-72490000D02*
X94859420Y-72490000D01*
X95140580Y-73510000D02*
X94859420Y-73510000D01*
%TO.C,R1*%
X92337258Y-84927500D02*
X91862742Y-84927500D01*
X92337258Y-85972500D02*
X91862742Y-85972500D01*
%TO.C,R13*%
X93962258Y-61977500D02*
X93487742Y-61977500D01*
X93962258Y-63022500D02*
X93487742Y-63022500D01*
%TO.C,C12*%
X107740000Y-97315580D02*
X107740000Y-97034420D01*
X108760000Y-97315580D02*
X108760000Y-97034420D01*
%TO.C,C18*%
X106609420Y-61990000D02*
X106890580Y-61990000D01*
X106609420Y-63010000D02*
X106890580Y-63010000D01*
%TO.C,U5*%
X93377500Y-105640000D02*
X96597500Y-105640000D01*
X93377500Y-105690000D02*
X93377500Y-105640000D01*
X93377500Y-108860000D02*
X93377500Y-108810000D01*
X96597500Y-105640000D02*
X96597500Y-105690000D01*
X96597500Y-108810000D02*
X96597500Y-108860000D01*
X96597500Y-108860000D02*
X93377500Y-108860000D01*
X97457500Y-108700000D02*
X97127500Y-108460000D01*
X97457500Y-108220000D01*
X97457500Y-108700000D01*
G36*
X97457500Y-108700000D02*
G01*
X97127500Y-108460000D01*
X97457500Y-108220000D01*
X97457500Y-108700000D01*
G37*
%TO.C,U1*%
D12*
X91225000Y-66500000D02*
X91225000Y-67270000D01*
X91225000Y-66500000D02*
X96225000Y-66500000D01*
X91225000Y-69500000D02*
X91225000Y-68730000D01*
X91225000Y-69500000D02*
X96225000Y-69500000D01*
X96225000Y-66500000D02*
X96225000Y-69500000D01*
X91225000Y-67270000D02*
G75*
G02*
X91229933Y-68729713I-40000J-730000D01*
G01*
D13*
X91345000Y-71000000D02*
G75*
G02*
X91285000Y-71000000I-30000J0D01*
G01*
X91285000Y-71000000D02*
G75*
G02*
X91345000Y-71000000I30000J0D01*
G01*
D14*
X92095000Y-69020000D02*
G75*
G02*
X91795000Y-69020000I-150000J0D01*
G01*
X91795000Y-69020000D02*
G75*
G02*
X92095000Y-69020000I150000J0D01*
G01*
%TO.C,J1*%
D12*
X99050000Y-66000000D02*
X99050000Y-76000000D01*
X99050000Y-76000000D02*
X121550000Y-76000000D01*
X121550000Y-64000000D02*
X121550000Y-66000000D01*
X121550000Y-66000000D02*
X99050000Y-66000000D01*
X121550000Y-76000000D02*
X121550000Y-78000000D01*
X121550000Y-78000000D02*
X124050000Y-78000000D01*
X124050000Y-64000000D02*
X121550000Y-64000000D01*
X124050000Y-65000000D02*
X124550000Y-77000000D01*
X124050000Y-65000000D02*
X133050000Y-65000000D01*
X124050000Y-77000000D02*
X133050000Y-77000000D01*
X124050000Y-78000000D02*
X124050000Y-64000000D01*
D15*
X124050000Y-78000000D02*
X124049999Y-78000000D01*
X124049999Y-78000000D01*
X124049999Y-78000000D01*
X124049999Y-78000000D01*
X124049999Y-78000000D01*
X124049999Y-78000000D01*
X124049999Y-78000000D01*
X124049999Y-77999999D01*
X124049999Y-77999999D01*
X124049999Y-77999999D01*
X124049999Y-77999999D01*
X124049999Y-77999999D01*
X124050000Y-77999999D01*
X124050000Y-77999999D01*
X124050000Y-77999999D01*
X124050000Y-77999999D01*
X124050000Y-77999999D01*
X124050000Y-77999999D01*
X124050000Y-77999999D01*
X124050000Y-77999999D01*
X124050000Y-77999999D01*
X124050000Y-77999999D01*
X124050000Y-77999999D01*
X124050000Y-77999999D01*
X124050001Y-77999999D01*
X124050001Y-77999999D01*
X124050001Y-77999999D01*
X124050001Y-77999999D01*
X124050001Y-77999999D01*
X124050001Y-77999999D01*
X124050001Y-78000000D01*
X124050001Y-78000000D01*
X124050001Y-78000000D01*
X124050001Y-78000000D01*
X124050001Y-78000000D01*
X124050001Y-78000000D01*
X124050001Y-78000000D01*
X124050000Y-78000000D01*
X124050000Y-78000000D02*
X124050001Y-78000000D01*
X124050001Y-78000000D01*
X124050001Y-78000000D01*
X124050001Y-78000000D01*
X124050001Y-78000000D01*
X124050001Y-78000000D01*
X124050001Y-78000001D01*
X124050001Y-78000001D01*
X124050001Y-78000001D01*
X124050001Y-78000001D01*
X124050001Y-78000001D01*
X124050001Y-78000001D01*
X124050001Y-78000001D01*
X124050000Y-78000001D01*
X124050000Y-78000001D01*
X124050000Y-78000001D01*
X124050000Y-78000001D01*
X124050000Y-78000001D01*
X124050000Y-78000001D01*
X124050000Y-78000001D01*
X124050000Y-78000001D01*
X124050000Y-78000001D01*
X124050000Y-78000001D01*
X124050000Y-78000001D01*
X124050000Y-78000001D01*
X124049999Y-78000001D01*
X124049999Y-78000001D01*
X124049999Y-78000001D01*
X124049999Y-78000001D01*
X124049999Y-78000001D01*
X124049999Y-78000001D01*
X124049999Y-78000000D01*
X124049999Y-78000000D01*
X124049999Y-78000000D01*
X124049999Y-78000000D01*
X124049999Y-78000000D01*
X124049999Y-78000000D01*
X124050000Y-78000000D01*
D12*
X124550000Y-65000000D02*
X125050000Y-77000000D01*
X125050000Y-65000000D02*
X125550000Y-77000000D01*
X125550000Y-65000000D02*
X126050000Y-77000000D01*
X126050000Y-65000000D02*
X126550000Y-77000000D01*
X126550000Y-65000000D02*
X127050000Y-77000000D01*
X127050000Y-65000000D02*
X127550000Y-77000000D01*
X127550000Y-65000000D02*
X128050000Y-77000000D01*
X128050000Y-65000000D02*
X128550000Y-77000000D01*
X133050000Y-77000000D02*
X133050000Y-65000000D01*
D13*
X133080000Y-78000000D02*
G75*
G02*
X133020000Y-78000000I-30000J0D01*
G01*
X133020000Y-78000000D02*
G75*
G02*
X133080000Y-78000000I30000J0D01*
G01*
%TO.C,R9*%
D11*
X96752500Y-73512742D02*
X96752500Y-73987258D01*
X97797500Y-73512742D02*
X97797500Y-73987258D01*
%TO.C,U4*%
D10*
X112500000Y-60950000D02*
X115500000Y-60950000D01*
X112500000Y-63050000D02*
X112500000Y-60950000D01*
X115500000Y-60950000D02*
X115500000Y-63050000D01*
X115500000Y-63050000D02*
X112500000Y-63050000D01*
D13*
X112650000Y-61070000D02*
G75*
G02*
X112590000Y-61070000I-30000J0D01*
G01*
X112590000Y-61070000D02*
G75*
G02*
X112650000Y-61070000I30000J0D01*
G01*
D12*
X113100000Y-60550000D02*
G75*
G02*
X112900000Y-60550000I-100000J0D01*
G01*
X112900000Y-60550000D02*
G75*
G02*
X113100000Y-60550000I100000J0D01*
G01*
X113600000Y-62000000D02*
G75*
G02*
X113400000Y-62000000I-100000J0D01*
G01*
X113400000Y-62000000D02*
G75*
G02*
X113600000Y-62000000I100000J0D01*
G01*
%TO.C,D4*%
D11*
X104390000Y-99865000D02*
X104390000Y-101175000D01*
X105610000Y-99865000D02*
X104390000Y-99865000D01*
X105610000Y-99865000D02*
X105610000Y-101175000D01*
%TO.C,R4*%
X106227500Y-99937742D02*
X106227500Y-100412258D01*
X107272500Y-99937742D02*
X107272500Y-100412258D01*
%TO.C,C16*%
X100390580Y-61990000D02*
X100109420Y-61990000D01*
X100390580Y-63010000D02*
X100109420Y-63010000D01*
%TO.C,C3*%
X106240000Y-97315580D02*
X106240000Y-97034420D01*
X107260000Y-97315580D02*
X107260000Y-97034420D01*
%TO.C,R10*%
X92237258Y-73977500D02*
X91762742Y-73977500D01*
X92237258Y-75022500D02*
X91762742Y-75022500D01*
%TO.C,C4*%
X92240580Y-87940000D02*
X91959420Y-87940000D01*
X92240580Y-88960000D02*
X91959420Y-88960000D01*
%TO.C,C25*%
X110090000Y-60140580D02*
X110090000Y-59859420D01*
X111110000Y-60140580D02*
X111110000Y-59859420D01*
%TO.C,R2*%
X88987742Y-66477500D02*
X89462258Y-66477500D01*
X88987742Y-67522500D02*
X89462258Y-67522500D01*
%TO.C,C19*%
X114365580Y-80990000D02*
X114084420Y-80990000D01*
X114365580Y-82010000D02*
X114084420Y-82010000D01*
%TO.C,D2*%
X116915000Y-84140000D02*
X116915000Y-85360000D01*
X116915000Y-84140000D02*
X118225000Y-84140000D01*
X116915000Y-85360000D02*
X118225000Y-85360000D01*
%TO.C,CN3*%
D12*
X111950000Y-102500000D02*
X111950000Y-108500000D01*
X111970000Y-108500000D02*
X111950000Y-108500000D01*
X113570000Y-102500000D02*
X111950000Y-102500000D01*
X117670000Y-108500000D02*
X114030000Y-108500000D01*
X120570000Y-102500000D02*
X115630000Y-102500000D01*
X121270000Y-108500000D02*
X119730000Y-108500000D01*
X124000000Y-102500000D02*
X122630000Y-102500000D01*
X124000000Y-103000000D02*
X126150000Y-103000000D01*
X124000000Y-108000000D02*
X126150000Y-108000000D01*
X124000000Y-108500000D02*
X123330000Y-108500000D01*
X124000000Y-108500000D02*
X124000000Y-102500000D01*
X126150000Y-108000000D02*
X126150000Y-103000000D01*
%TO.C,R14*%
D11*
X107727500Y-99937742D02*
X107727500Y-100412258D01*
X108772500Y-99937742D02*
X108772500Y-100412258D01*
%TO.C,R7*%
X100987500Y-102237742D02*
X100987500Y-102712258D01*
X102032500Y-102237742D02*
X102032500Y-102712258D01*
%TO.C,R20*%
X92877500Y-101937258D02*
X92877500Y-101462742D01*
X93922500Y-101937258D02*
X93922500Y-101462742D01*
%TO.C,C17*%
X101709420Y-89840000D02*
X101990580Y-89840000D01*
X101709420Y-90860000D02*
X101990580Y-90860000D01*
%TO.C,U2*%
X101752500Y-77190000D02*
X103572500Y-77190000D01*
X101752500Y-77240000D02*
X101752500Y-77190000D01*
X101752500Y-79140000D02*
X101752500Y-78360000D01*
X101752500Y-80310000D02*
X101752500Y-80260000D01*
X103572500Y-77190000D02*
X103572500Y-77240000D01*
X103572500Y-80260000D02*
X103572500Y-80310000D01*
X103572500Y-80310000D02*
X101752500Y-80310000D01*
X104352500Y-80590000D02*
X103872500Y-80590000D01*
X104112500Y-80260000D01*
X104352500Y-80590000D01*
G36*
X104352500Y-80590000D02*
G01*
X103872500Y-80590000D01*
X104112500Y-80260000D01*
X104352500Y-80590000D01*
G37*
%TO.C,C24*%
X89490000Y-107040580D02*
X89490000Y-106759420D01*
X90510000Y-107040580D02*
X90510000Y-106759420D01*
%TO.C,U3*%
X95140000Y-86140000D02*
X95515000Y-86140000D01*
X95140000Y-86515000D02*
X95140000Y-86140000D01*
X95140000Y-90360000D02*
X95140000Y-89985000D01*
X95515000Y-90360000D02*
X95140000Y-90360000D01*
X98985000Y-86140000D02*
X99360000Y-86140000D01*
X99360000Y-86140000D02*
X99360000Y-86515000D01*
X99360000Y-89985000D02*
X99360000Y-90360000D01*
X99360000Y-90360000D02*
X98985000Y-90360000D01*
X94640000Y-86900000D02*
X94310000Y-87140000D01*
X94310000Y-86660000D01*
X94640000Y-86900000D01*
G36*
X94640000Y-86900000D02*
G01*
X94310000Y-87140000D01*
X94310000Y-86660000D01*
X94640000Y-86900000D01*
G37*
%TO.C,C7*%
X96490000Y-99615580D02*
X96490000Y-99334420D01*
X97510000Y-99615580D02*
X97510000Y-99334420D01*
%TO.C,R11*%
X94762742Y-73977500D02*
X95237258Y-73977500D01*
X94762742Y-75022500D02*
X95237258Y-75022500D01*
%TD*%
M02*
