%TF.GenerationSoftware,KiCad,Pcbnew,10.0.1*%
%TF.CreationDate,2026-05-19T00:43:51+02:00*%
%TF.ProjectId,ES8390-breakout,45533833-3930-42d6-9272-65616b6f7574,rev?*%
%TF.SameCoordinates,Original*%
%TF.FileFunction,Copper,L3,Inr*%
%TF.FilePolarity,Positive*%
%FSLAX46Y46*%
G04 Gerber Fmt 4.6, Leading zero omitted, Abs format (unit mm)*
G04 Created by KiCad (PCBNEW 10.0.1) date 2026-05-19 00:43:51*
%MOMM*%
%LPD*%
G01*
G04 APERTURE LIST*
G04 Aperture macros list*
%AMRoundRect*
0 Rectangle with rounded corners*
0 $1 Rounding radius*
0 $2 $3 $4 $5 $6 $7 $8 $9 X,Y pos of 4 corners*
0 Add a 4 corners polygon primitive as box body*
4,1,4,$2,$3,$4,$5,$6,$7,$8,$9,$2,$3,0*
0 Add four circle primitives for the rounded corners*
1,1,$1+$1,$2,$3*
1,1,$1+$1,$4,$5*
1,1,$1+$1,$6,$7*
1,1,$1+$1,$8,$9*
0 Add four rect primitives between the rounded corners*
20,1,$1+$1,$2,$3,$4,$5,0*
20,1,$1+$1,$4,$5,$6,$7,0*
20,1,$1+$1,$6,$7,$8,$9,0*
20,1,$1+$1,$8,$9,$2,$3,0*%
G04 Aperture macros list end*
%TA.AperFunction,ComponentPad*%
%ADD10RoundRect,0.250000X0.600000X0.750000X-0.600000X0.750000X-0.600000X-0.750000X0.600000X-0.750000X0*%
%TD*%
%TA.AperFunction,ComponentPad*%
%ADD11O,1.700000X2.000000*%
%TD*%
%TA.AperFunction,ComponentPad*%
%ADD12R,1.700000X1.700000*%
%TD*%
%TA.AperFunction,ComponentPad*%
%ADD13C,1.700000*%
%TD*%
%TA.AperFunction,ComponentPad*%
%ADD14O,3.200000X1.800000*%
%TD*%
%TA.AperFunction,ViaPad*%
%ADD15C,0.600000*%
%TD*%
%TA.AperFunction,ViaPad*%
%ADD16C,0.450000*%
%TD*%
G04 APERTURE END LIST*
D10*
%TO.N,Net-(J3-Pin_1)*%
%TO.C,J3*%
X96550000Y-114550000D03*
D11*
%TO.N,Net-(J3-Pin_2)*%
X94050000Y-114550000D03*
%TD*%
D10*
%TO.N,Net-(J2-Pin_1)*%
%TO.C,J2*%
X105300000Y-114550000D03*
D11*
%TO.N,Net-(J2-Pin_2)*%
X102800000Y-114550000D03*
%TD*%
D12*
%TO.N,GND*%
%TO.C,CN1*%
X85050000Y-105740000D03*
D13*
%TO.N,VAMP*%
X85050000Y-103200000D03*
%TO.N,VLDO*%
X85050000Y-100660000D03*
%TO.N,VIO*%
X85050000Y-98120000D03*
%TO.N,AMP_SHDN*%
X85050000Y-95580000D03*
%TO.N,ADOUT{slash}AD1*%
X85050000Y-93040000D03*
%TO.N,LRCK*%
X85050000Y-90500000D03*
%TO.N,DSDIN*%
X85050000Y-87960000D03*
%TO.N,SCLK*%
X85050000Y-85420000D03*
%TO.N,MCLK*%
X85050000Y-82880000D03*
%TO.N,CCLK*%
X85050000Y-80340000D03*
%TO.N,CDATA*%
X85050000Y-77800000D03*
%TO.N,AD0{slash}DMIC_SCL*%
X85050000Y-75260000D03*
%TO.N,GND*%
X85050000Y-72720000D03*
%TD*%
D14*
%TO.N,GND*%
%TO.C,J1*%
X116450000Y-71000000D03*
%TO.N,unconnected-(J1-Pad3)*%
X108950000Y-68500000D03*
%TO.N,unconnected-(J1-Pad4)*%
X101550000Y-68500000D03*
%TO.N,Net-(C10-Pad1)*%
X101550000Y-73500000D03*
%TD*%
D15*
%TO.N,GND*%
X87550000Y-68500000D03*
X121000000Y-95000000D03*
X97300000Y-75500000D03*
X123000000Y-102000000D03*
D16*
X98050000Y-89150000D03*
D15*
X123000000Y-89250000D03*
X115000000Y-95000000D03*
D16*
X97250000Y-87350000D03*
D15*
X109400000Y-59200000D03*
X90000000Y-60000000D03*
X91500000Y-105250000D03*
X110000000Y-95000000D03*
X103550000Y-88850000D03*
D16*
X94500000Y-107250000D03*
D15*
X121000000Y-96250000D03*
X120000000Y-100000000D03*
X121000000Y-93750000D03*
D16*
X97250000Y-89150000D03*
D15*
X96500000Y-109250000D03*
D16*
X96350000Y-89150000D03*
D15*
X100000000Y-70000000D03*
X110000000Y-110000000D03*
D16*
X95500000Y-107950000D03*
D15*
X90000000Y-100000000D03*
D16*
X95500000Y-107250000D03*
D15*
X90400000Y-88450000D03*
X105000000Y-99650000D03*
X110000000Y-99650000D03*
X103550000Y-90350000D03*
X120000000Y-75000000D03*
X90000000Y-110000000D03*
X115000000Y-80000000D03*
X115000000Y-115000000D03*
D16*
X98050000Y-88250000D03*
X95000000Y-107250000D03*
D15*
X115000000Y-75000000D03*
X115950000Y-61475000D03*
D16*
X96350000Y-88250000D03*
D15*
X116750000Y-84750000D03*
X90000000Y-115000000D03*
X110000000Y-65000000D03*
X103950000Y-81450000D03*
X121000000Y-110250000D03*
X87550000Y-70000000D03*
X90000000Y-105250000D03*
X105000000Y-90000000D03*
X90400000Y-86950000D03*
D16*
X95000000Y-106550000D03*
X98050000Y-87350000D03*
D15*
X85000000Y-70000000D03*
X120000000Y-65000000D03*
X123000000Y-86750000D03*
X100000000Y-65000000D03*
X116750000Y-79750000D03*
X85000000Y-110000000D03*
X95800000Y-94750000D03*
X95000000Y-95000000D03*
X98500000Y-100700000D03*
X110000000Y-90000000D03*
X102650000Y-78800000D03*
X105550000Y-77450000D03*
X103550000Y-87350000D03*
D16*
X95500000Y-106550000D03*
D15*
X85000000Y-65000000D03*
X105000000Y-110000000D03*
X123000000Y-88000000D03*
D16*
X97250000Y-88250000D03*
X95000000Y-107950000D03*
X94500000Y-107950000D03*
D15*
X96300000Y-70700000D03*
X120000000Y-70000000D03*
X87550000Y-65500000D03*
X110000000Y-115000000D03*
D16*
X96350000Y-87350000D03*
D15*
X105000000Y-105000000D03*
X115950000Y-62525000D03*
X121000000Y-107750000D03*
X100000000Y-100700000D03*
D16*
X94500000Y-106550000D03*
D15*
X115000000Y-70000000D03*
X123000000Y-100750000D03*
X115000000Y-65000000D03*
X121000000Y-109000000D03*
X123000000Y-103250000D03*
X93400000Y-103450000D03*
%TO.N,Net-(U1B--)*%
X91150000Y-72000000D03*
X94350000Y-66900000D03*
D16*
%TO.N,Net-(J3-Pin_1)*%
X92400000Y-106450000D03*
%TO.N,Net-(J3-Pin_2)*%
X92400000Y-107100003D03*
%TO.N,VLDO*%
X90200000Y-83850000D03*
X88100000Y-84250000D03*
X87500000Y-94100000D03*
D15*
%TO.N,VDDA*%
X100300000Y-81450000D03*
X101050000Y-91400000D03*
D16*
%TO.N,Net-(U5-GAIN)*%
X94500000Y-100900000D03*
X97600000Y-106650000D03*
%TO.N,Net-(U3-LOUTN)*%
X97900000Y-91750000D03*
X97700000Y-94200000D03*
%TO.N,AMP_SHDN*%
X103100000Y-102650000D03*
X88250000Y-95550000D03*
%TO.N,ADOUT{slash}AD1*%
X94650000Y-90450000D03*
%TO.N,LRCK*%
X94100000Y-89900000D03*
%TO.N,DSDIN*%
X94000000Y-89050000D03*
%TO.N,SCLK*%
X94350000Y-88450000D03*
%TO.N,MCLK*%
X94050000Y-86600000D03*
%TO.N,CCLK*%
X94350000Y-85750000D03*
%TO.N,CDATA*%
X95800000Y-85250000D03*
%TO.N,AD0{slash}DMIC_SCL*%
X96550000Y-85150000D03*
%TO.N,Net-(U3-RIN2)*%
X112350000Y-81800000D03*
X110300000Y-83850000D03*
%TO.N,Net-(U3-ROUTN)*%
X98600000Y-92400000D03*
X97000000Y-97100000D03*
%TD*%
%TA.AperFunction,Conductor*%
%TO.N,GND*%
G36*
X121554043Y-58000765D02*
G01*
X121802895Y-58017075D01*
X121818953Y-58019190D01*
X122026105Y-58060395D01*
X122059535Y-58067045D01*
X122075202Y-58071243D01*
X122244947Y-58128863D01*
X122307481Y-58150091D01*
X122322458Y-58156294D01*
X122531799Y-58259529D01*
X122542460Y-58264787D01*
X122556506Y-58272897D01*
X122760460Y-58409174D01*
X122773329Y-58419048D01*
X122957749Y-58580781D01*
X122969218Y-58592250D01*
X123019425Y-58649500D01*
X123102253Y-58743947D01*
X123130951Y-58776670D01*
X123140825Y-58789539D01*
X123277102Y-58993493D01*
X123285212Y-59007539D01*
X123393702Y-59227534D01*
X123399909Y-59242520D01*
X123478756Y-59474797D01*
X123482954Y-59490464D01*
X123530807Y-59731035D01*
X123532925Y-59747116D01*
X123549235Y-59995956D01*
X123549500Y-60004066D01*
X123549500Y-114995933D01*
X123549235Y-115004043D01*
X123532925Y-115252883D01*
X123530807Y-115268964D01*
X123482954Y-115509535D01*
X123478756Y-115525202D01*
X123399909Y-115757479D01*
X123393702Y-115772465D01*
X123285212Y-115992460D01*
X123277102Y-116006506D01*
X123140825Y-116210460D01*
X123130951Y-116223329D01*
X122969218Y-116407749D01*
X122957749Y-116419218D01*
X122773329Y-116580951D01*
X122760460Y-116590825D01*
X122556506Y-116727102D01*
X122542460Y-116735212D01*
X122322465Y-116843702D01*
X122307479Y-116849909D01*
X122075202Y-116928756D01*
X122059535Y-116932954D01*
X121818964Y-116980807D01*
X121802883Y-116982925D01*
X121554043Y-116999235D01*
X121545933Y-116999500D01*
X86054067Y-116999500D01*
X86045957Y-116999235D01*
X85797116Y-116982925D01*
X85781035Y-116980807D01*
X85540464Y-116932954D01*
X85524797Y-116928756D01*
X85292520Y-116849909D01*
X85277534Y-116843702D01*
X85057539Y-116735212D01*
X85043493Y-116727102D01*
X84839539Y-116590825D01*
X84826670Y-116580951D01*
X84642250Y-116419218D01*
X84630781Y-116407749D01*
X84497747Y-116256054D01*
X84469045Y-116223325D01*
X84459174Y-116210460D01*
X84322897Y-116006506D01*
X84314787Y-115992460D01*
X84266363Y-115894266D01*
X84206294Y-115772458D01*
X84200090Y-115757479D01*
X84190797Y-115730104D01*
X84151344Y-115613878D01*
X84121243Y-115525202D01*
X84117045Y-115509535D01*
X84105759Y-115452795D01*
X84069190Y-115268953D01*
X84067075Y-115252895D01*
X84050765Y-115004043D01*
X84050500Y-114995933D01*
X84050500Y-114378711D01*
X84699500Y-114378711D01*
X84699500Y-114621288D01*
X84731161Y-114861785D01*
X84793947Y-115096104D01*
X84819275Y-115157250D01*
X84886776Y-115320212D01*
X85008064Y-115530289D01*
X85008066Y-115530292D01*
X85008067Y-115530293D01*
X85155733Y-115722736D01*
X85155739Y-115722743D01*
X85327256Y-115894260D01*
X85327263Y-115894266D01*
X85440321Y-115981018D01*
X85519711Y-116041936D01*
X85729788Y-116163224D01*
X85953900Y-116256054D01*
X86188211Y-116318838D01*
X86368586Y-116342584D01*
X86428711Y-116350500D01*
X86428712Y-116350500D01*
X86671289Y-116350500D01*
X86719388Y-116344167D01*
X86911789Y-116318838D01*
X87146100Y-116256054D01*
X87370212Y-116163224D01*
X87580289Y-116041936D01*
X87772738Y-115894265D01*
X87944265Y-115722738D01*
X88091936Y-115530289D01*
X88213224Y-115320212D01*
X88306054Y-115096100D01*
X88368838Y-114861789D01*
X88400500Y-114621288D01*
X88400500Y-114378712D01*
X88389310Y-114293713D01*
X92699500Y-114293713D01*
X92699500Y-114806286D01*
X92730821Y-115004043D01*
X92732754Y-115016243D01*
X92778570Y-115157250D01*
X92798444Y-115218414D01*
X92894951Y-115407820D01*
X93019890Y-115579786D01*
X93170213Y-115730109D01*
X93342179Y-115855048D01*
X93342181Y-115855049D01*
X93342184Y-115855051D01*
X93531588Y-115951557D01*
X93733757Y-116017246D01*
X93943713Y-116050500D01*
X93943714Y-116050500D01*
X94156286Y-116050500D01*
X94156287Y-116050500D01*
X94366243Y-116017246D01*
X94568412Y-115951557D01*
X94757816Y-115855051D01*
X94929792Y-115730104D01*
X95068604Y-115591291D01*
X95129923Y-115557809D01*
X95199615Y-115562793D01*
X95255549Y-115604664D01*
X95261821Y-115613878D01*
X95265185Y-115619333D01*
X95265186Y-115619334D01*
X95357288Y-115768656D01*
X95481344Y-115892712D01*
X95630666Y-115984814D01*
X95797203Y-116039999D01*
X95899991Y-116050500D01*
X97200008Y-116050499D01*
X97302797Y-116039999D01*
X97469334Y-115984814D01*
X97618656Y-115892712D01*
X97742712Y-115768656D01*
X97834814Y-115619334D01*
X97889999Y-115452797D01*
X97900500Y-115350009D01*
X97900499Y-114293713D01*
X101449500Y-114293713D01*
X101449500Y-114806286D01*
X101480821Y-115004043D01*
X101482754Y-115016243D01*
X101528570Y-115157250D01*
X101548444Y-115218414D01*
X101644951Y-115407820D01*
X101769890Y-115579786D01*
X101920213Y-115730109D01*
X102092179Y-115855048D01*
X102092181Y-115855049D01*
X102092184Y-115855051D01*
X102281588Y-115951557D01*
X102483757Y-116017246D01*
X102693713Y-116050500D01*
X102693714Y-116050500D01*
X102906286Y-116050500D01*
X102906287Y-116050500D01*
X103116243Y-116017246D01*
X103318412Y-115951557D01*
X103507816Y-115855051D01*
X103679792Y-115730104D01*
X103818604Y-115591291D01*
X103879923Y-115557809D01*
X103949615Y-115562793D01*
X104005549Y-115604664D01*
X104011821Y-115613878D01*
X104015185Y-115619333D01*
X104015186Y-115619334D01*
X104107288Y-115768656D01*
X104231344Y-115892712D01*
X104380666Y-115984814D01*
X104547203Y-116039999D01*
X104649991Y-116050500D01*
X105950008Y-116050499D01*
X106052797Y-116039999D01*
X106219334Y-115984814D01*
X106368656Y-115892712D01*
X106492712Y-115768656D01*
X106584814Y-115619334D01*
X106639999Y-115452797D01*
X106650500Y-115350009D01*
X106650499Y-114378711D01*
X119199500Y-114378711D01*
X119199500Y-114621288D01*
X119231161Y-114861785D01*
X119293947Y-115096104D01*
X119319275Y-115157250D01*
X119386776Y-115320212D01*
X119508064Y-115530289D01*
X119508066Y-115530292D01*
X119508067Y-115530293D01*
X119655733Y-115722736D01*
X119655739Y-115722743D01*
X119827256Y-115894260D01*
X119827263Y-115894266D01*
X119940321Y-115981018D01*
X120019711Y-116041936D01*
X120229788Y-116163224D01*
X120453900Y-116256054D01*
X120688211Y-116318838D01*
X120868586Y-116342584D01*
X120928711Y-116350500D01*
X120928712Y-116350500D01*
X121171289Y-116350500D01*
X121219388Y-116344167D01*
X121411789Y-116318838D01*
X121646100Y-116256054D01*
X121870212Y-116163224D01*
X122080289Y-116041936D01*
X122272738Y-115894265D01*
X122444265Y-115722738D01*
X122591936Y-115530289D01*
X122713224Y-115320212D01*
X122806054Y-115096100D01*
X122868838Y-114861789D01*
X122900500Y-114621288D01*
X122900500Y-114378712D01*
X122868838Y-114138211D01*
X122806054Y-113903900D01*
X122713224Y-113679788D01*
X122591936Y-113469711D01*
X122515341Y-113369890D01*
X122444266Y-113277263D01*
X122444260Y-113277256D01*
X122272743Y-113105739D01*
X122272736Y-113105733D01*
X122080293Y-112958067D01*
X122080292Y-112958066D01*
X122080289Y-112958064D01*
X121870212Y-112836776D01*
X121870205Y-112836773D01*
X121646104Y-112743947D01*
X121411785Y-112681161D01*
X121171289Y-112649500D01*
X121171288Y-112649500D01*
X120928712Y-112649500D01*
X120928711Y-112649500D01*
X120688214Y-112681161D01*
X120453895Y-112743947D01*
X120229794Y-112836773D01*
X120229785Y-112836777D01*
X120019706Y-112958067D01*
X119827263Y-113105733D01*
X119827256Y-113105739D01*
X119655739Y-113277256D01*
X119655733Y-113277263D01*
X119508067Y-113469706D01*
X119386777Y-113679785D01*
X119386773Y-113679794D01*
X119293947Y-113903895D01*
X119231161Y-114138214D01*
X119199500Y-114378711D01*
X106650499Y-114378711D01*
X106650499Y-113749992D01*
X106639999Y-113647203D01*
X106584814Y-113480666D01*
X106492712Y-113331344D01*
X106368656Y-113207288D01*
X106219334Y-113115186D01*
X106052797Y-113060001D01*
X106052795Y-113060000D01*
X105950010Y-113049500D01*
X104649998Y-113049500D01*
X104649981Y-113049501D01*
X104547203Y-113060000D01*
X104547200Y-113060001D01*
X104380668Y-113115185D01*
X104380663Y-113115187D01*
X104231342Y-113207289D01*
X104107289Y-113331342D01*
X104011821Y-113486121D01*
X103959873Y-113532845D01*
X103890910Y-113544068D01*
X103826828Y-113516224D01*
X103818601Y-113508705D01*
X103679786Y-113369890D01*
X103507820Y-113244951D01*
X103318414Y-113148444D01*
X103318413Y-113148443D01*
X103318412Y-113148443D01*
X103116243Y-113082754D01*
X103116241Y-113082753D01*
X103116240Y-113082753D01*
X102954957Y-113057208D01*
X102906287Y-113049500D01*
X102693713Y-113049500D01*
X102645042Y-113057208D01*
X102483760Y-113082753D01*
X102281585Y-113148444D01*
X102092179Y-113244951D01*
X101920213Y-113369890D01*
X101769890Y-113520213D01*
X101644951Y-113692179D01*
X101548444Y-113881585D01*
X101482753Y-114083760D01*
X101449500Y-114293713D01*
X97900499Y-114293713D01*
X97900499Y-113749992D01*
X97889999Y-113647203D01*
X97834814Y-113480666D01*
X97742712Y-113331344D01*
X97618656Y-113207288D01*
X97469334Y-113115186D01*
X97302797Y-113060001D01*
X97302795Y-113060000D01*
X97200010Y-113049500D01*
X95899998Y-113049500D01*
X95899981Y-113049501D01*
X95797203Y-113060000D01*
X95797200Y-113060001D01*
X95630668Y-113115185D01*
X95630663Y-113115187D01*
X95481342Y-113207289D01*
X95357289Y-113331342D01*
X95261821Y-113486121D01*
X95209873Y-113532845D01*
X95140910Y-113544068D01*
X95076828Y-113516224D01*
X95068601Y-113508705D01*
X94929786Y-113369890D01*
X94757820Y-113244951D01*
X94568414Y-113148444D01*
X94568413Y-113148443D01*
X94568412Y-113148443D01*
X94366243Y-113082754D01*
X94366241Y-113082753D01*
X94366240Y-113082753D01*
X94204957Y-113057208D01*
X94156287Y-113049500D01*
X93943713Y-113049500D01*
X93895042Y-113057208D01*
X93733760Y-113082753D01*
X93531585Y-113148444D01*
X93342179Y-113244951D01*
X93170213Y-113369890D01*
X93019890Y-113520213D01*
X92894951Y-113692179D01*
X92798444Y-113881585D01*
X92732753Y-114083760D01*
X92699500Y-114293713D01*
X88389310Y-114293713D01*
X88368838Y-114138211D01*
X88306054Y-113903900D01*
X88213224Y-113679788D01*
X88091936Y-113469711D01*
X88015341Y-113369890D01*
X87944266Y-113277263D01*
X87944260Y-113277256D01*
X87772743Y-113105739D01*
X87772736Y-113105733D01*
X87580293Y-112958067D01*
X87580292Y-112958066D01*
X87580289Y-112958064D01*
X87370212Y-112836776D01*
X87370205Y-112836773D01*
X87146104Y-112743947D01*
X86911785Y-112681161D01*
X86671289Y-112649500D01*
X86671288Y-112649500D01*
X86428712Y-112649500D01*
X86428711Y-112649500D01*
X86188214Y-112681161D01*
X85953895Y-112743947D01*
X85729794Y-112836773D01*
X85729785Y-112836777D01*
X85519706Y-112958067D01*
X85327263Y-113105733D01*
X85327256Y-113105739D01*
X85155739Y-113277256D01*
X85155733Y-113277263D01*
X85008067Y-113469706D01*
X84886777Y-113679785D01*
X84886773Y-113679794D01*
X84793947Y-113903895D01*
X84731161Y-114138214D01*
X84699500Y-114378711D01*
X84050500Y-114378711D01*
X84050500Y-106521457D01*
X91674499Y-106521457D01*
X91702379Y-106661614D01*
X91702382Y-106661624D01*
X91729689Y-106727549D01*
X91737158Y-106797018D01*
X91729690Y-106822452D01*
X91702381Y-106888383D01*
X91702380Y-106888386D01*
X91702380Y-106888387D01*
X91702379Y-106888388D01*
X91674500Y-107028545D01*
X91674500Y-107028548D01*
X91674500Y-107171458D01*
X91674500Y-107171460D01*
X91674499Y-107171460D01*
X91702379Y-107311617D01*
X91702381Y-107311623D01*
X91757069Y-107443653D01*
X91757074Y-107443662D01*
X91836467Y-107562481D01*
X91836470Y-107562485D01*
X91937517Y-107663532D01*
X91937521Y-107663535D01*
X92056340Y-107742928D01*
X92056346Y-107742931D01*
X92056347Y-107742932D01*
X92188380Y-107797622D01*
X92188384Y-107797622D01*
X92188385Y-107797623D01*
X92328542Y-107825503D01*
X92328545Y-107825503D01*
X92471457Y-107825503D01*
X92565751Y-107806745D01*
X92611620Y-107797622D01*
X92743653Y-107742932D01*
X92862479Y-107663535D01*
X92963532Y-107562482D01*
X93042929Y-107443656D01*
X93097619Y-107311623D01*
X93117131Y-107213532D01*
X93125500Y-107171460D01*
X93125500Y-107028545D01*
X93097620Y-106888388D01*
X93097619Y-106888387D01*
X93097619Y-106888383D01*
X93070310Y-106822453D01*
X93067788Y-106799002D01*
X93060879Y-106776448D01*
X93063758Y-106761517D01*
X93062841Y-106752985D01*
X93065494Y-106741457D01*
X93067487Y-106734361D01*
X93072832Y-106721457D01*
X96874499Y-106721457D01*
X96902379Y-106861614D01*
X96902381Y-106861620D01*
X96957069Y-106993650D01*
X96957074Y-106993659D01*
X97036467Y-107112478D01*
X97036470Y-107112482D01*
X97137517Y-107213529D01*
X97137521Y-107213532D01*
X97256340Y-107292925D01*
X97256346Y-107292928D01*
X97256347Y-107292929D01*
X97388380Y-107347619D01*
X97388384Y-107347619D01*
X97388385Y-107347620D01*
X97528542Y-107375500D01*
X97528545Y-107375500D01*
X97671457Y-107375500D01*
X97765751Y-107356742D01*
X97811620Y-107347619D01*
X97943653Y-107292929D01*
X98062479Y-107213532D01*
X98163532Y-107112479D01*
X98242929Y-106993653D01*
X98297619Y-106861620D01*
X98319228Y-106752985D01*
X98325500Y-106721457D01*
X98325500Y-106578542D01*
X98297620Y-106438385D01*
X98297619Y-106438384D01*
X98297619Y-106438380D01*
X98242929Y-106306347D01*
X98242928Y-106306346D01*
X98242925Y-106306340D01*
X98163532Y-106187521D01*
X98163529Y-106187517D01*
X98062482Y-106086470D01*
X98062478Y-106086467D01*
X97943659Y-106007074D01*
X97943650Y-106007069D01*
X97811620Y-105952381D01*
X97811614Y-105952379D01*
X97671457Y-105924500D01*
X97671455Y-105924500D01*
X97528545Y-105924500D01*
X97528543Y-105924500D01*
X97388385Y-105952379D01*
X97388379Y-105952381D01*
X97256349Y-106007069D01*
X97256340Y-106007074D01*
X97137521Y-106086467D01*
X97137517Y-106086470D01*
X97036470Y-106187517D01*
X97036467Y-106187521D01*
X96957074Y-106306340D01*
X96957069Y-106306349D01*
X96902381Y-106438379D01*
X96902379Y-106438385D01*
X96874500Y-106578542D01*
X96874500Y-106578545D01*
X96874500Y-106721455D01*
X96874500Y-106721457D01*
X96874499Y-106721457D01*
X93072832Y-106721457D01*
X93097619Y-106661620D01*
X93125500Y-106521455D01*
X93125500Y-106378545D01*
X93125500Y-106378542D01*
X93097620Y-106238385D01*
X93097619Y-106238384D01*
X93097619Y-106238380D01*
X93042929Y-106106347D01*
X93042928Y-106106346D01*
X93042925Y-106106340D01*
X92963532Y-105987521D01*
X92963529Y-105987517D01*
X92862482Y-105886470D01*
X92862478Y-105886467D01*
X92743659Y-105807074D01*
X92743650Y-105807069D01*
X92611620Y-105752381D01*
X92611614Y-105752379D01*
X92471457Y-105724500D01*
X92471455Y-105724500D01*
X92328545Y-105724500D01*
X92328543Y-105724500D01*
X92188385Y-105752379D01*
X92188379Y-105752381D01*
X92056349Y-105807069D01*
X92056340Y-105807074D01*
X91937521Y-105886467D01*
X91937517Y-105886470D01*
X91836470Y-105987517D01*
X91836467Y-105987521D01*
X91757074Y-106106340D01*
X91757069Y-106106349D01*
X91702381Y-106238379D01*
X91702379Y-106238385D01*
X91674500Y-106378542D01*
X91674500Y-106378545D01*
X91674500Y-106521455D01*
X91674500Y-106521457D01*
X91674499Y-106521457D01*
X84050500Y-106521457D01*
X84050500Y-105416228D01*
X114149500Y-105416228D01*
X114149500Y-105583771D01*
X114182182Y-105748074D01*
X114182184Y-105748082D01*
X114246295Y-105902860D01*
X114339373Y-106042162D01*
X114457837Y-106160626D01*
X114550494Y-106222537D01*
X114597137Y-106253703D01*
X114751918Y-106317816D01*
X114916228Y-106350499D01*
X114916232Y-106350500D01*
X114916233Y-106350500D01*
X115083768Y-106350500D01*
X115083769Y-106350499D01*
X115248082Y-106317816D01*
X115402863Y-106253703D01*
X115542162Y-106160626D01*
X115660626Y-106042162D01*
X115753703Y-105902863D01*
X115817816Y-105748082D01*
X115850500Y-105583767D01*
X115850500Y-105416233D01*
X115850499Y-105416228D01*
X120149500Y-105416228D01*
X120149500Y-105583771D01*
X120182182Y-105748074D01*
X120182184Y-105748082D01*
X120246295Y-105902860D01*
X120339373Y-106042162D01*
X120457837Y-106160626D01*
X120550494Y-106222537D01*
X120597137Y-106253703D01*
X120751918Y-106317816D01*
X120916228Y-106350499D01*
X120916232Y-106350500D01*
X120916233Y-106350500D01*
X121083768Y-106350500D01*
X121083769Y-106350499D01*
X121248082Y-106317816D01*
X121402863Y-106253703D01*
X121542162Y-106160626D01*
X121660626Y-106042162D01*
X121753703Y-105902863D01*
X121817816Y-105748082D01*
X121850500Y-105583767D01*
X121850500Y-105416233D01*
X121817816Y-105251918D01*
X121753703Y-105097137D01*
X121722537Y-105050494D01*
X121660626Y-104957837D01*
X121542162Y-104839373D01*
X121402860Y-104746295D01*
X121248082Y-104682184D01*
X121248074Y-104682182D01*
X121083771Y-104649500D01*
X121083767Y-104649500D01*
X120916233Y-104649500D01*
X120916228Y-104649500D01*
X120751925Y-104682182D01*
X120751917Y-104682184D01*
X120597139Y-104746295D01*
X120457837Y-104839373D01*
X120339373Y-104957837D01*
X120246295Y-105097139D01*
X120182184Y-105251917D01*
X120182182Y-105251925D01*
X120149500Y-105416228D01*
X115850499Y-105416228D01*
X115817816Y-105251918D01*
X115753703Y-105097137D01*
X115722537Y-105050494D01*
X115660626Y-104957837D01*
X115542162Y-104839373D01*
X115402860Y-104746295D01*
X115248082Y-104682184D01*
X115248074Y-104682182D01*
X115083771Y-104649500D01*
X115083767Y-104649500D01*
X114916233Y-104649500D01*
X114916228Y-104649500D01*
X114751925Y-104682182D01*
X114751917Y-104682184D01*
X114597139Y-104746295D01*
X114457837Y-104839373D01*
X114339373Y-104957837D01*
X114246295Y-105097139D01*
X114182184Y-105251917D01*
X114182182Y-105251925D01*
X114149500Y-105416228D01*
X84050500Y-105416228D01*
X84050500Y-104386494D01*
X84070185Y-104319455D01*
X84122989Y-104273700D01*
X84192147Y-104263756D01*
X84247385Y-104286176D01*
X84342184Y-104355051D01*
X84531588Y-104451557D01*
X84733757Y-104517246D01*
X84943713Y-104550500D01*
X84943714Y-104550500D01*
X85156286Y-104550500D01*
X85156287Y-104550500D01*
X85366243Y-104517246D01*
X85568412Y-104451557D01*
X85757816Y-104355051D01*
X85883474Y-104263756D01*
X85929786Y-104230109D01*
X85929788Y-104230106D01*
X85929792Y-104230104D01*
X86080104Y-104079792D01*
X86080106Y-104079788D01*
X86080109Y-104079786D01*
X86205048Y-103907820D01*
X86205047Y-103907820D01*
X86205051Y-103907816D01*
X86301557Y-103718412D01*
X86367246Y-103516243D01*
X86400500Y-103306287D01*
X86400500Y-103093713D01*
X86367246Y-102883757D01*
X86314511Y-102721457D01*
X102374499Y-102721457D01*
X102402379Y-102861614D01*
X102402381Y-102861620D01*
X102457069Y-102993650D01*
X102457074Y-102993659D01*
X102536467Y-103112478D01*
X102536470Y-103112482D01*
X102637517Y-103213529D01*
X102637521Y-103213532D01*
X102756340Y-103292925D01*
X102756346Y-103292928D01*
X102756347Y-103292929D01*
X102888380Y-103347619D01*
X102888384Y-103347619D01*
X102888385Y-103347620D01*
X103028542Y-103375500D01*
X103028545Y-103375500D01*
X103171457Y-103375500D01*
X103265751Y-103356742D01*
X103311620Y-103347619D01*
X103443653Y-103292929D01*
X103562479Y-103213532D01*
X103663532Y-103112479D01*
X103742929Y-102993653D01*
X103797619Y-102861620D01*
X103825500Y-102721455D01*
X103825500Y-102578545D01*
X103825500Y-102578542D01*
X103797620Y-102438385D01*
X103797619Y-102438384D01*
X103797619Y-102438380D01*
X103748673Y-102320213D01*
X103742930Y-102306349D01*
X103742925Y-102306340D01*
X103663532Y-102187521D01*
X103663529Y-102187517D01*
X103562482Y-102086470D01*
X103562478Y-102086467D01*
X103443659Y-102007074D01*
X103443650Y-102007069D01*
X103311620Y-101952381D01*
X103311614Y-101952379D01*
X103171457Y-101924500D01*
X103171455Y-101924500D01*
X103028545Y-101924500D01*
X103028543Y-101924500D01*
X102888385Y-101952379D01*
X102888379Y-101952381D01*
X102756349Y-102007069D01*
X102756340Y-102007074D01*
X102637521Y-102086467D01*
X102637517Y-102086470D01*
X102536470Y-102187517D01*
X102536467Y-102187521D01*
X102457074Y-102306340D01*
X102457069Y-102306349D01*
X102402381Y-102438379D01*
X102402379Y-102438385D01*
X102374500Y-102578542D01*
X102374500Y-102578545D01*
X102374500Y-102721455D01*
X102374500Y-102721457D01*
X102374499Y-102721457D01*
X86314511Y-102721457D01*
X86301557Y-102681588D01*
X86205051Y-102492184D01*
X86165964Y-102438385D01*
X86080109Y-102320213D01*
X85929786Y-102169890D01*
X85757820Y-102044951D01*
X85757115Y-102044591D01*
X85749054Y-102040485D01*
X85698259Y-101992512D01*
X85681463Y-101924692D01*
X85703999Y-101858556D01*
X85749054Y-101819515D01*
X85757816Y-101815051D01*
X85779789Y-101799086D01*
X85929786Y-101690109D01*
X85929788Y-101690106D01*
X85929792Y-101690104D01*
X86080104Y-101539792D01*
X86080106Y-101539788D01*
X86080109Y-101539786D01*
X86205048Y-101367820D01*
X86205047Y-101367820D01*
X86205051Y-101367816D01*
X86301557Y-101178412D01*
X86367246Y-100976243D01*
X86368004Y-100971457D01*
X93774499Y-100971457D01*
X93802379Y-101111614D01*
X93802381Y-101111620D01*
X93857069Y-101243650D01*
X93857074Y-101243659D01*
X93936467Y-101362478D01*
X93936470Y-101362482D01*
X94037517Y-101463529D01*
X94037521Y-101463532D01*
X94156340Y-101542925D01*
X94156346Y-101542928D01*
X94156347Y-101542929D01*
X94288380Y-101597619D01*
X94288384Y-101597619D01*
X94288385Y-101597620D01*
X94428542Y-101625500D01*
X94428545Y-101625500D01*
X94571457Y-101625500D01*
X94665751Y-101606742D01*
X94711620Y-101597619D01*
X94843653Y-101542929D01*
X94962479Y-101463532D01*
X95063532Y-101362479D01*
X95142929Y-101243653D01*
X95197619Y-101111620D01*
X95224548Y-100976243D01*
X95225500Y-100971457D01*
X95225500Y-100828542D01*
X95197620Y-100688385D01*
X95197619Y-100688384D01*
X95197619Y-100688380D01*
X95142929Y-100556347D01*
X95142928Y-100556346D01*
X95142925Y-100556340D01*
X95063532Y-100437521D01*
X95063529Y-100437517D01*
X94962482Y-100336470D01*
X94962478Y-100336467D01*
X94843659Y-100257074D01*
X94843650Y-100257069D01*
X94711620Y-100202381D01*
X94711614Y-100202379D01*
X94571457Y-100174500D01*
X94571455Y-100174500D01*
X94428545Y-100174500D01*
X94428543Y-100174500D01*
X94288385Y-100202379D01*
X94288379Y-100202381D01*
X94156349Y-100257069D01*
X94156340Y-100257074D01*
X94037521Y-100336467D01*
X94037517Y-100336470D01*
X93936470Y-100437517D01*
X93936467Y-100437521D01*
X93857074Y-100556340D01*
X93857069Y-100556349D01*
X93802381Y-100688379D01*
X93802379Y-100688385D01*
X93774500Y-100828542D01*
X93774500Y-100828545D01*
X93774500Y-100971455D01*
X93774500Y-100971457D01*
X93774499Y-100971457D01*
X86368004Y-100971457D01*
X86400500Y-100766287D01*
X86400500Y-100553713D01*
X86367246Y-100343757D01*
X86301557Y-100141588D01*
X86205051Y-99952184D01*
X86205049Y-99952181D01*
X86205048Y-99952179D01*
X86080109Y-99780213D01*
X85929786Y-99629890D01*
X85757820Y-99504951D01*
X85757115Y-99504591D01*
X85749054Y-99500485D01*
X85698259Y-99452512D01*
X85681463Y-99384692D01*
X85703999Y-99318556D01*
X85749054Y-99279515D01*
X85757816Y-99275051D01*
X85779789Y-99259086D01*
X85929786Y-99150109D01*
X85929788Y-99150106D01*
X85929792Y-99150104D01*
X86080104Y-98999792D01*
X86080106Y-98999788D01*
X86080109Y-98999786D01*
X86205048Y-98827820D01*
X86205047Y-98827820D01*
X86205051Y-98827816D01*
X86301557Y-98638412D01*
X86367246Y-98436243D01*
X86400500Y-98226287D01*
X86400500Y-98013713D01*
X86367246Y-97803757D01*
X86301557Y-97601588D01*
X86205051Y-97412184D01*
X86205049Y-97412181D01*
X86205048Y-97412179D01*
X86080109Y-97240213D01*
X86011353Y-97171457D01*
X96274499Y-97171457D01*
X96302379Y-97311614D01*
X96302381Y-97311620D01*
X96357069Y-97443650D01*
X96357074Y-97443659D01*
X96436467Y-97562478D01*
X96436470Y-97562482D01*
X96537517Y-97663529D01*
X96537521Y-97663532D01*
X96656340Y-97742925D01*
X96656346Y-97742928D01*
X96656347Y-97742929D01*
X96788380Y-97797619D01*
X96788384Y-97797619D01*
X96788385Y-97797620D01*
X96928542Y-97825500D01*
X96928545Y-97825500D01*
X97071457Y-97825500D01*
X97165751Y-97806742D01*
X97211620Y-97797619D01*
X97343653Y-97742929D01*
X97462479Y-97663532D01*
X97563532Y-97562479D01*
X97642929Y-97443653D01*
X97697619Y-97311620D01*
X97725500Y-97171455D01*
X97725500Y-97028545D01*
X97725500Y-97028542D01*
X97697620Y-96888385D01*
X97697619Y-96888384D01*
X97697619Y-96888380D01*
X97642929Y-96756347D01*
X97642928Y-96756346D01*
X97642925Y-96756340D01*
X97563532Y-96637521D01*
X97563529Y-96637517D01*
X97462482Y-96536470D01*
X97462478Y-96536467D01*
X97343659Y-96457074D01*
X97343650Y-96457069D01*
X97211620Y-96402381D01*
X97211614Y-96402379D01*
X97071457Y-96374500D01*
X97071455Y-96374500D01*
X96928545Y-96374500D01*
X96928543Y-96374500D01*
X96788385Y-96402379D01*
X96788379Y-96402381D01*
X96656349Y-96457069D01*
X96656340Y-96457074D01*
X96537521Y-96536467D01*
X96537517Y-96536470D01*
X96436470Y-96637517D01*
X96436467Y-96637521D01*
X96357074Y-96756340D01*
X96357069Y-96756349D01*
X96302381Y-96888379D01*
X96302379Y-96888385D01*
X96274500Y-97028542D01*
X96274500Y-97028545D01*
X96274500Y-97171455D01*
X96274500Y-97171457D01*
X96274499Y-97171457D01*
X86011353Y-97171457D01*
X85929786Y-97089890D01*
X85757820Y-96964951D01*
X85757115Y-96964591D01*
X85749054Y-96960485D01*
X85698259Y-96912512D01*
X85681463Y-96844692D01*
X85703999Y-96778556D01*
X85749054Y-96739515D01*
X85757816Y-96735051D01*
X85779789Y-96719086D01*
X85929786Y-96610109D01*
X85929788Y-96610106D01*
X85929792Y-96610104D01*
X86080104Y-96459792D01*
X86080106Y-96459788D01*
X86080109Y-96459786D01*
X86205048Y-96287820D01*
X86205047Y-96287820D01*
X86205051Y-96287816D01*
X86301557Y-96098412D01*
X86367246Y-95896243D01*
X86400500Y-95686287D01*
X86400500Y-95473713D01*
X86367246Y-95263757D01*
X86301557Y-95061588D01*
X86205051Y-94872184D01*
X86205049Y-94872181D01*
X86205048Y-94872179D01*
X86080109Y-94700213D01*
X85929786Y-94549890D01*
X85757820Y-94424951D01*
X85757115Y-94424591D01*
X85749054Y-94420485D01*
X85698259Y-94372512D01*
X85681463Y-94304692D01*
X85703999Y-94238556D01*
X85749054Y-94199515D01*
X85757816Y-94195051D01*
X85790290Y-94171457D01*
X86774499Y-94171457D01*
X86802379Y-94311614D01*
X86802381Y-94311620D01*
X86857069Y-94443650D01*
X86857074Y-94443659D01*
X86936467Y-94562478D01*
X86936470Y-94562482D01*
X87037517Y-94663529D01*
X87037521Y-94663532D01*
X87156340Y-94742925D01*
X87156346Y-94742928D01*
X87156347Y-94742929D01*
X87288380Y-94797619D01*
X87288384Y-94797619D01*
X87288385Y-94797620D01*
X87428542Y-94825500D01*
X87428545Y-94825500D01*
X87571456Y-94825500D01*
X87609883Y-94817856D01*
X87641187Y-94811629D01*
X87710778Y-94817856D01*
X87765956Y-94860718D01*
X87789201Y-94926608D01*
X87773134Y-94994605D01*
X87753061Y-95020927D01*
X87686467Y-95087521D01*
X87607074Y-95206340D01*
X87607069Y-95206349D01*
X87552381Y-95338379D01*
X87552379Y-95338385D01*
X87524500Y-95478542D01*
X87524500Y-95478545D01*
X87524500Y-95621455D01*
X87524500Y-95621457D01*
X87524499Y-95621457D01*
X87552379Y-95761614D01*
X87552381Y-95761620D01*
X87607069Y-95893650D01*
X87607074Y-95893659D01*
X87686467Y-96012478D01*
X87686470Y-96012482D01*
X87787517Y-96113529D01*
X87787521Y-96113532D01*
X87906340Y-96192925D01*
X87906346Y-96192928D01*
X87906347Y-96192929D01*
X88038380Y-96247619D01*
X88038384Y-96247619D01*
X88038385Y-96247620D01*
X88178542Y-96275500D01*
X88178545Y-96275500D01*
X88321457Y-96275500D01*
X88415751Y-96256742D01*
X88461620Y-96247619D01*
X88593653Y-96192929D01*
X88712479Y-96113532D01*
X88813532Y-96012479D01*
X88892929Y-95893653D01*
X88947619Y-95761620D01*
X88975500Y-95621455D01*
X88975500Y-95478545D01*
X88975500Y-95478542D01*
X88947620Y-95338385D01*
X88947619Y-95338384D01*
X88947619Y-95338380D01*
X88892929Y-95206347D01*
X88892928Y-95206346D01*
X88892925Y-95206340D01*
X88813532Y-95087521D01*
X88813529Y-95087517D01*
X88712482Y-94986470D01*
X88712478Y-94986467D01*
X88593659Y-94907074D01*
X88593650Y-94907069D01*
X88461620Y-94852381D01*
X88461614Y-94852379D01*
X88321457Y-94824500D01*
X88321455Y-94824500D01*
X88178545Y-94824500D01*
X88178540Y-94824500D01*
X88108811Y-94838370D01*
X88039219Y-94832143D01*
X87984042Y-94789279D01*
X87960798Y-94723390D01*
X87976866Y-94655393D01*
X87996935Y-94629075D01*
X88063532Y-94562479D01*
X88142929Y-94443653D01*
X88197619Y-94311620D01*
X88205608Y-94271457D01*
X96974499Y-94271457D01*
X97002379Y-94411614D01*
X97002381Y-94411620D01*
X97057069Y-94543650D01*
X97057074Y-94543659D01*
X97136467Y-94662478D01*
X97136470Y-94662482D01*
X97237517Y-94763529D01*
X97237521Y-94763532D01*
X97356340Y-94842925D01*
X97356346Y-94842928D01*
X97356347Y-94842929D01*
X97488380Y-94897619D01*
X97488384Y-94897619D01*
X97488385Y-94897620D01*
X97628542Y-94925500D01*
X97628545Y-94925500D01*
X97771457Y-94925500D01*
X97865751Y-94906742D01*
X97911620Y-94897619D01*
X98043653Y-94842929D01*
X98162479Y-94763532D01*
X98263532Y-94662479D01*
X98342929Y-94543653D01*
X98397619Y-94411620D01*
X98418889Y-94304692D01*
X98425500Y-94271457D01*
X98425500Y-94128542D01*
X98397620Y-93988385D01*
X98397619Y-93988384D01*
X98397619Y-93988380D01*
X98342929Y-93856347D01*
X98342928Y-93856346D01*
X98342925Y-93856340D01*
X98263532Y-93737521D01*
X98263529Y-93737517D01*
X98162482Y-93636470D01*
X98162478Y-93636467D01*
X98043659Y-93557074D01*
X98043650Y-93557069D01*
X97911620Y-93502381D01*
X97911614Y-93502379D01*
X97771457Y-93474500D01*
X97771455Y-93474500D01*
X97628545Y-93474500D01*
X97628543Y-93474500D01*
X97488385Y-93502379D01*
X97488379Y-93502381D01*
X97356349Y-93557069D01*
X97356340Y-93557074D01*
X97237521Y-93636467D01*
X97237517Y-93636470D01*
X97136470Y-93737517D01*
X97136467Y-93737521D01*
X97057074Y-93856340D01*
X97057069Y-93856349D01*
X97002381Y-93988379D01*
X97002379Y-93988385D01*
X96974500Y-94128542D01*
X96974500Y-94128545D01*
X96974500Y-94271455D01*
X96974500Y-94271457D01*
X96974499Y-94271457D01*
X88205608Y-94271457D01*
X88219919Y-94199514D01*
X88225500Y-94171457D01*
X88225500Y-94028542D01*
X88197620Y-93888385D01*
X88197619Y-93888384D01*
X88197619Y-93888380D01*
X88142929Y-93756347D01*
X88142928Y-93756346D01*
X88142925Y-93756340D01*
X88063532Y-93637521D01*
X88063529Y-93637517D01*
X87962482Y-93536470D01*
X87962478Y-93536467D01*
X87843659Y-93457074D01*
X87843650Y-93457069D01*
X87711620Y-93402381D01*
X87711614Y-93402379D01*
X87571457Y-93374500D01*
X87571455Y-93374500D01*
X87428545Y-93374500D01*
X87428543Y-93374500D01*
X87288385Y-93402379D01*
X87288379Y-93402381D01*
X87156349Y-93457069D01*
X87156340Y-93457074D01*
X87037521Y-93536467D01*
X87037517Y-93536470D01*
X86936470Y-93637517D01*
X86936467Y-93637521D01*
X86857074Y-93756340D01*
X86857069Y-93756349D01*
X86802381Y-93888379D01*
X86802379Y-93888385D01*
X86774500Y-94028542D01*
X86774500Y-94028545D01*
X86774500Y-94171455D01*
X86774500Y-94171457D01*
X86774499Y-94171457D01*
X85790290Y-94171457D01*
X85790293Y-94171455D01*
X85929786Y-94070109D01*
X85929788Y-94070106D01*
X85929792Y-94070104D01*
X86080104Y-93919792D01*
X86080106Y-93919788D01*
X86080109Y-93919786D01*
X86205048Y-93747820D01*
X86205047Y-93747820D01*
X86205051Y-93747816D01*
X86301557Y-93558412D01*
X86367246Y-93356243D01*
X86400500Y-93146287D01*
X86400500Y-92933713D01*
X86367246Y-92723757D01*
X86301557Y-92521588D01*
X86205051Y-92332184D01*
X86205049Y-92332181D01*
X86205048Y-92332179D01*
X86080109Y-92160213D01*
X85929786Y-92009890D01*
X85757820Y-91884951D01*
X85757115Y-91884591D01*
X85749054Y-91880485D01*
X85746221Y-91877808D01*
X85742439Y-91876857D01*
X85721023Y-91854011D01*
X85698259Y-91832512D01*
X85697321Y-91828726D01*
X85694655Y-91825882D01*
X85693841Y-91821457D01*
X97174499Y-91821457D01*
X97202379Y-91961614D01*
X97202381Y-91961620D01*
X97257069Y-92093650D01*
X97257074Y-92093659D01*
X97336467Y-92212478D01*
X97336470Y-92212482D01*
X97437517Y-92313529D01*
X97437521Y-92313532D01*
X97556340Y-92392925D01*
X97556346Y-92392928D01*
X97556347Y-92392929D01*
X97688380Y-92447619D01*
X97795969Y-92469020D01*
X97857880Y-92501404D01*
X97892454Y-92562120D01*
X97893395Y-92566446D01*
X97902379Y-92611612D01*
X97902381Y-92611620D01*
X97957069Y-92743650D01*
X97957074Y-92743659D01*
X98036467Y-92862478D01*
X98036470Y-92862482D01*
X98137517Y-92963529D01*
X98137521Y-92963532D01*
X98256340Y-93042925D01*
X98256346Y-93042928D01*
X98256347Y-93042929D01*
X98388380Y-93097619D01*
X98388384Y-93097619D01*
X98388385Y-93097620D01*
X98528542Y-93125500D01*
X98528545Y-93125500D01*
X98671457Y-93125500D01*
X98765751Y-93106742D01*
X98811620Y-93097619D01*
X98943653Y-93042929D01*
X99062479Y-92963532D01*
X99163532Y-92862479D01*
X99242929Y-92743653D01*
X99297619Y-92611620D01*
X99315528Y-92521588D01*
X99325500Y-92471457D01*
X99325500Y-92328542D01*
X99297620Y-92188385D01*
X99297619Y-92188384D01*
X99297619Y-92188380D01*
X99242929Y-92056347D01*
X99242928Y-92056346D01*
X99242925Y-92056340D01*
X99163532Y-91937521D01*
X99163529Y-91937517D01*
X99062482Y-91836470D01*
X99062478Y-91836467D01*
X98943659Y-91757074D01*
X98943650Y-91757069D01*
X98811620Y-91702381D01*
X98811614Y-91702379D01*
X98704029Y-91680979D01*
X98642118Y-91648594D01*
X98607544Y-91587878D01*
X98606615Y-91583609D01*
X98597619Y-91538380D01*
X98542929Y-91406347D01*
X98542928Y-91406346D01*
X98542925Y-91406340D01*
X98527969Y-91383957D01*
X98486004Y-91321153D01*
X100249500Y-91321153D01*
X100249500Y-91478846D01*
X100280261Y-91633489D01*
X100280264Y-91633501D01*
X100340602Y-91779172D01*
X100340609Y-91779185D01*
X100428210Y-91910288D01*
X100428213Y-91910292D01*
X100539707Y-92021786D01*
X100539711Y-92021789D01*
X100670814Y-92109390D01*
X100670827Y-92109397D01*
X100793510Y-92160213D01*
X100816503Y-92169737D01*
X100971153Y-92200499D01*
X100971156Y-92200500D01*
X100971158Y-92200500D01*
X101128844Y-92200500D01*
X101128845Y-92200499D01*
X101283497Y-92169737D01*
X101429179Y-92109394D01*
X101560289Y-92021789D01*
X101671789Y-91910289D01*
X101759394Y-91779179D01*
X101819737Y-91633497D01*
X101850500Y-91478842D01*
X101850500Y-91416228D01*
X114149500Y-91416228D01*
X114149500Y-91583771D01*
X114182182Y-91748074D01*
X114182184Y-91748082D01*
X114246295Y-91902860D01*
X114339373Y-92042162D01*
X114457837Y-92160626D01*
X114499382Y-92188385D01*
X114597137Y-92253703D01*
X114751918Y-92317816D01*
X114916228Y-92350499D01*
X114916232Y-92350500D01*
X114916233Y-92350500D01*
X115083768Y-92350500D01*
X115083769Y-92350499D01*
X115248082Y-92317816D01*
X115402863Y-92253703D01*
X115542162Y-92160626D01*
X115660626Y-92042162D01*
X115753703Y-91902863D01*
X115817816Y-91748082D01*
X115850500Y-91583767D01*
X115850500Y-91416233D01*
X115850499Y-91416228D01*
X120149500Y-91416228D01*
X120149500Y-91583771D01*
X120182182Y-91748074D01*
X120182184Y-91748082D01*
X120246295Y-91902860D01*
X120339373Y-92042162D01*
X120457837Y-92160626D01*
X120499382Y-92188385D01*
X120597137Y-92253703D01*
X120751918Y-92317816D01*
X120916228Y-92350499D01*
X120916232Y-92350500D01*
X120916233Y-92350500D01*
X121083768Y-92350500D01*
X121083769Y-92350499D01*
X121248082Y-92317816D01*
X121402863Y-92253703D01*
X121542162Y-92160626D01*
X121660626Y-92042162D01*
X121753703Y-91902863D01*
X121817816Y-91748082D01*
X121850500Y-91583767D01*
X121850500Y-91416233D01*
X121817816Y-91251918D01*
X121753703Y-91097137D01*
X121702710Y-91020821D01*
X121660626Y-90957837D01*
X121542162Y-90839373D01*
X121402860Y-90746295D01*
X121248082Y-90682184D01*
X121248074Y-90682182D01*
X121083771Y-90649500D01*
X121083767Y-90649500D01*
X120916233Y-90649500D01*
X120916228Y-90649500D01*
X120751925Y-90682182D01*
X120751917Y-90682184D01*
X120597139Y-90746295D01*
X120457837Y-90839373D01*
X120339373Y-90957837D01*
X120246295Y-91097139D01*
X120182184Y-91251917D01*
X120182182Y-91251925D01*
X120149500Y-91416228D01*
X115850499Y-91416228D01*
X115817816Y-91251918D01*
X115753703Y-91097137D01*
X115702710Y-91020821D01*
X115660626Y-90957837D01*
X115542162Y-90839373D01*
X115402860Y-90746295D01*
X115248082Y-90682184D01*
X115248074Y-90682182D01*
X115083771Y-90649500D01*
X115083767Y-90649500D01*
X114916233Y-90649500D01*
X114916228Y-90649500D01*
X114751925Y-90682182D01*
X114751917Y-90682184D01*
X114597139Y-90746295D01*
X114457837Y-90839373D01*
X114339373Y-90957837D01*
X114246295Y-91097139D01*
X114182184Y-91251917D01*
X114182182Y-91251925D01*
X114149500Y-91416228D01*
X101850500Y-91416228D01*
X101850500Y-91321158D01*
X101850500Y-91321155D01*
X101850499Y-91321153D01*
X101843808Y-91287517D01*
X101819737Y-91166503D01*
X101819735Y-91166498D01*
X101759397Y-91020827D01*
X101759390Y-91020814D01*
X101671789Y-90889711D01*
X101671786Y-90889707D01*
X101560292Y-90778213D01*
X101560288Y-90778210D01*
X101429185Y-90690609D01*
X101429172Y-90690602D01*
X101283501Y-90630264D01*
X101283489Y-90630261D01*
X101128845Y-90599500D01*
X101128842Y-90599500D01*
X100971158Y-90599500D01*
X100971155Y-90599500D01*
X100816510Y-90630261D01*
X100816498Y-90630264D01*
X100670827Y-90690602D01*
X100670814Y-90690609D01*
X100539711Y-90778210D01*
X100539707Y-90778213D01*
X100428213Y-90889707D01*
X100428210Y-90889711D01*
X100340609Y-91020814D01*
X100340602Y-91020827D01*
X100280264Y-91166498D01*
X100280261Y-91166510D01*
X100249500Y-91321153D01*
X98486004Y-91321153D01*
X98463532Y-91287521D01*
X98463529Y-91287517D01*
X98362482Y-91186470D01*
X98362478Y-91186467D01*
X98243659Y-91107074D01*
X98243650Y-91107069D01*
X98111620Y-91052381D01*
X98111614Y-91052379D01*
X97971457Y-91024500D01*
X97971455Y-91024500D01*
X97828545Y-91024500D01*
X97828543Y-91024500D01*
X97688385Y-91052379D01*
X97688379Y-91052381D01*
X97556349Y-91107069D01*
X97556340Y-91107074D01*
X97437521Y-91186467D01*
X97437517Y-91186470D01*
X97336470Y-91287517D01*
X97336467Y-91287521D01*
X97257074Y-91406340D01*
X97257069Y-91406349D01*
X97202381Y-91538379D01*
X97202379Y-91538385D01*
X97174500Y-91678542D01*
X97174500Y-91678545D01*
X97174500Y-91821455D01*
X97174500Y-91821457D01*
X97174499Y-91821457D01*
X85693841Y-91821457D01*
X85688990Y-91795086D01*
X85681463Y-91764692D01*
X85682720Y-91761001D01*
X85682015Y-91757165D01*
X85693900Y-91728193D01*
X85703999Y-91698556D01*
X85707481Y-91695086D01*
X85708533Y-91692523D01*
X85716876Y-91685726D01*
X85734283Y-91668385D01*
X85741358Y-91663436D01*
X85757816Y-91655051D01*
X85929792Y-91530104D01*
X86080104Y-91379792D01*
X86080106Y-91379788D01*
X86080109Y-91379786D01*
X86205048Y-91207820D01*
X86205047Y-91207820D01*
X86205051Y-91207816D01*
X86301557Y-91018412D01*
X86367246Y-90816243D01*
X86400500Y-90606287D01*
X86400500Y-90393713D01*
X86367246Y-90183757D01*
X86301557Y-89981588D01*
X86205051Y-89792184D01*
X86205049Y-89792181D01*
X86205048Y-89792179D01*
X86080109Y-89620213D01*
X85929786Y-89469890D01*
X85757820Y-89344951D01*
X85757115Y-89344591D01*
X85749054Y-89340485D01*
X85698259Y-89292512D01*
X85681463Y-89224692D01*
X85703999Y-89158556D01*
X85746813Y-89121457D01*
X93274499Y-89121457D01*
X93302379Y-89261614D01*
X93302381Y-89261620D01*
X93357069Y-89393650D01*
X93357074Y-89393659D01*
X93423580Y-89493192D01*
X93444458Y-89559870D01*
X93435039Y-89609535D01*
X93402382Y-89688375D01*
X93402379Y-89688385D01*
X93374500Y-89828542D01*
X93374500Y-89828545D01*
X93374500Y-89971455D01*
X93374500Y-89971457D01*
X93374499Y-89971457D01*
X93402379Y-90111614D01*
X93402381Y-90111620D01*
X93457069Y-90243650D01*
X93457074Y-90243659D01*
X93536467Y-90362478D01*
X93536470Y-90362482D01*
X93637517Y-90463529D01*
X93637521Y-90463532D01*
X93756340Y-90542925D01*
X93756353Y-90542932D01*
X93818749Y-90568777D01*
X93886183Y-90596709D01*
X93940586Y-90640548D01*
X93953291Y-90663817D01*
X94007067Y-90793646D01*
X94007074Y-90793659D01*
X94086467Y-90912478D01*
X94086470Y-90912482D01*
X94187517Y-91013529D01*
X94187521Y-91013532D01*
X94306340Y-91092925D01*
X94306346Y-91092928D01*
X94306347Y-91092929D01*
X94438380Y-91147619D01*
X94438384Y-91147619D01*
X94438385Y-91147620D01*
X94578542Y-91175500D01*
X94578545Y-91175500D01*
X94721457Y-91175500D01*
X94815751Y-91156742D01*
X94861620Y-91147619D01*
X94993653Y-91092929D01*
X95112479Y-91013532D01*
X95213532Y-90912479D01*
X95292929Y-90793653D01*
X95347619Y-90661620D01*
X95371228Y-90542932D01*
X95375500Y-90521457D01*
X95375500Y-90378542D01*
X95347620Y-90238385D01*
X95347619Y-90238384D01*
X95347619Y-90238380D01*
X95292929Y-90106347D01*
X95292928Y-90106346D01*
X95292925Y-90106340D01*
X95213532Y-89987521D01*
X95213529Y-89987517D01*
X95112482Y-89886470D01*
X95112478Y-89886467D01*
X94993659Y-89807074D01*
X94993646Y-89807067D01*
X94863817Y-89753291D01*
X94809413Y-89709450D01*
X94796710Y-89686186D01*
X94756705Y-89589604D01*
X94742932Y-89556353D01*
X94742925Y-89556340D01*
X94676419Y-89456807D01*
X94655541Y-89390129D01*
X94664958Y-89340468D01*
X94697619Y-89261620D01*
X94725500Y-89121455D01*
X94726689Y-89115480D01*
X94729266Y-89115992D01*
X94751105Y-89061791D01*
X94779508Y-89035562D01*
X94812479Y-89013532D01*
X94913532Y-88912479D01*
X94992929Y-88793653D01*
X95047619Y-88661620D01*
X95056742Y-88615751D01*
X95075500Y-88521457D01*
X95075500Y-88378542D01*
X95047620Y-88238385D01*
X95047619Y-88238384D01*
X95047619Y-88238380D01*
X94992929Y-88106347D01*
X94992928Y-88106346D01*
X94992925Y-88106340D01*
X94913532Y-87987521D01*
X94913529Y-87987517D01*
X94812482Y-87886470D01*
X94812478Y-87886467D01*
X94693659Y-87807074D01*
X94693650Y-87807069D01*
X94561620Y-87752381D01*
X94561614Y-87752379D01*
X94421457Y-87724500D01*
X94421455Y-87724500D01*
X94278545Y-87724500D01*
X94278543Y-87724500D01*
X94138385Y-87752379D01*
X94138379Y-87752381D01*
X94006349Y-87807069D01*
X94006340Y-87807074D01*
X93887521Y-87886467D01*
X93887517Y-87886470D01*
X93786470Y-87987517D01*
X93786467Y-87987521D01*
X93707074Y-88106340D01*
X93707069Y-88106349D01*
X93652381Y-88238379D01*
X93652379Y-88238385D01*
X93623311Y-88384520D01*
X93620760Y-88384012D01*
X93598804Y-88438321D01*
X93570486Y-88464440D01*
X93537523Y-88486465D01*
X93537517Y-88486470D01*
X93436470Y-88587517D01*
X93436467Y-88587521D01*
X93357074Y-88706340D01*
X93357069Y-88706349D01*
X93302381Y-88838379D01*
X93302379Y-88838385D01*
X93274500Y-88978542D01*
X93274500Y-88978545D01*
X93274500Y-89121455D01*
X93274500Y-89121457D01*
X93274499Y-89121457D01*
X85746813Y-89121457D01*
X85749054Y-89119515D01*
X85757816Y-89115051D01*
X85867234Y-89035555D01*
X85929786Y-88990109D01*
X85929788Y-88990106D01*
X85929792Y-88990104D01*
X86080104Y-88839792D01*
X86080106Y-88839788D01*
X86080109Y-88839786D01*
X86205048Y-88667820D01*
X86205047Y-88667820D01*
X86205051Y-88667816D01*
X86301557Y-88478412D01*
X86367246Y-88276243D01*
X86400500Y-88066287D01*
X86400500Y-87853713D01*
X86367246Y-87643757D01*
X86301557Y-87441588D01*
X86205051Y-87252184D01*
X86205049Y-87252181D01*
X86205048Y-87252179D01*
X86080109Y-87080213D01*
X85929786Y-86929890D01*
X85757820Y-86804951D01*
X85757115Y-86804591D01*
X85749054Y-86800485D01*
X85698259Y-86752512D01*
X85681463Y-86684692D01*
X85685973Y-86671457D01*
X93324499Y-86671457D01*
X93352379Y-86811614D01*
X93352381Y-86811620D01*
X93407069Y-86943650D01*
X93407074Y-86943659D01*
X93486467Y-87062478D01*
X93486470Y-87062482D01*
X93587517Y-87163529D01*
X93587521Y-87163532D01*
X93706340Y-87242925D01*
X93706346Y-87242928D01*
X93706347Y-87242929D01*
X93838380Y-87297619D01*
X93838384Y-87297619D01*
X93838385Y-87297620D01*
X93978542Y-87325500D01*
X93978545Y-87325500D01*
X94121457Y-87325500D01*
X94215751Y-87306742D01*
X94261620Y-87297619D01*
X94393653Y-87242929D01*
X94512479Y-87163532D01*
X94613532Y-87062479D01*
X94692929Y-86943653D01*
X94747619Y-86811620D01*
X94775500Y-86671455D01*
X94775500Y-86528545D01*
X94775500Y-86528542D01*
X94758251Y-86441829D01*
X94764478Y-86372237D01*
X94807341Y-86317060D01*
X94810957Y-86314548D01*
X94812479Y-86313532D01*
X94913532Y-86212479D01*
X94992929Y-86093653D01*
X95047619Y-85961620D01*
X95075028Y-85823828D01*
X95107413Y-85761917D01*
X95168128Y-85727343D01*
X95237898Y-85731082D01*
X95284326Y-85760338D01*
X95337517Y-85813529D01*
X95337521Y-85813532D01*
X95456340Y-85892925D01*
X95456346Y-85892928D01*
X95456347Y-85892929D01*
X95588380Y-85947619D01*
X95588384Y-85947619D01*
X95588385Y-85947620D01*
X95728542Y-85975500D01*
X95728545Y-85975500D01*
X95871457Y-85975500D01*
X95965751Y-85956742D01*
X96011620Y-85947619D01*
X96143653Y-85892929D01*
X96204922Y-85851989D01*
X96271598Y-85831111D01*
X96321265Y-85840529D01*
X96338380Y-85847619D01*
X96338384Y-85847619D01*
X96338385Y-85847620D01*
X96478542Y-85875500D01*
X96478545Y-85875500D01*
X96621457Y-85875500D01*
X96715751Y-85856742D01*
X96761620Y-85847619D01*
X96893653Y-85792929D01*
X97012479Y-85713532D01*
X97113532Y-85612479D01*
X97192929Y-85493653D01*
X97247619Y-85361620D01*
X97257148Y-85313713D01*
X97275500Y-85221457D01*
X97275500Y-85078542D01*
X97247620Y-84938385D01*
X97247619Y-84938384D01*
X97247619Y-84938380D01*
X97192929Y-84806347D01*
X97192928Y-84806346D01*
X97192925Y-84806340D01*
X97113532Y-84687521D01*
X97113529Y-84687517D01*
X97012482Y-84586470D01*
X97012478Y-84586467D01*
X96893659Y-84507074D01*
X96893650Y-84507069D01*
X96761620Y-84452381D01*
X96761614Y-84452379D01*
X96621457Y-84424500D01*
X96621455Y-84424500D01*
X96478545Y-84424500D01*
X96478543Y-84424500D01*
X96338385Y-84452379D01*
X96338379Y-84452381D01*
X96206348Y-84507070D01*
X96145075Y-84548011D01*
X96078397Y-84568888D01*
X96028735Y-84559470D01*
X96011621Y-84552381D01*
X96011613Y-84552379D01*
X95871457Y-84524500D01*
X95871455Y-84524500D01*
X95728545Y-84524500D01*
X95728543Y-84524500D01*
X95588385Y-84552379D01*
X95588379Y-84552381D01*
X95456349Y-84607069D01*
X95456340Y-84607074D01*
X95337521Y-84686467D01*
X95337517Y-84686470D01*
X95236470Y-84787517D01*
X95236467Y-84787521D01*
X95157074Y-84906340D01*
X95157069Y-84906349D01*
X95102381Y-85038379D01*
X95102379Y-85038385D01*
X95074971Y-85176172D01*
X95042586Y-85238083D01*
X94981870Y-85272657D01*
X94912100Y-85268916D01*
X94865673Y-85239661D01*
X94812482Y-85186470D01*
X94812478Y-85186467D01*
X94693659Y-85107074D01*
X94693650Y-85107069D01*
X94561620Y-85052381D01*
X94561614Y-85052379D01*
X94421457Y-85024500D01*
X94421455Y-85024500D01*
X94278545Y-85024500D01*
X94278543Y-85024500D01*
X94138385Y-85052379D01*
X94138379Y-85052381D01*
X94006349Y-85107069D01*
X94006340Y-85107074D01*
X93887521Y-85186467D01*
X93887517Y-85186470D01*
X93786470Y-85287517D01*
X93786467Y-85287521D01*
X93707074Y-85406340D01*
X93707069Y-85406349D01*
X93652381Y-85538379D01*
X93652379Y-85538385D01*
X93624500Y-85678542D01*
X93624500Y-85821459D01*
X93641748Y-85908172D01*
X93635521Y-85977764D01*
X93592657Y-86032941D01*
X93589030Y-86035460D01*
X93587519Y-86036469D01*
X93587514Y-86036474D01*
X93486470Y-86137517D01*
X93486467Y-86137521D01*
X93407074Y-86256340D01*
X93407069Y-86256349D01*
X93352381Y-86388379D01*
X93352379Y-86388385D01*
X93324500Y-86528542D01*
X93324500Y-86528545D01*
X93324500Y-86671455D01*
X93324500Y-86671457D01*
X93324499Y-86671457D01*
X85685973Y-86671457D01*
X85703999Y-86618556D01*
X85749054Y-86579515D01*
X85757816Y-86575051D01*
X85779789Y-86559086D01*
X85929786Y-86450109D01*
X85929788Y-86450106D01*
X85929792Y-86450104D01*
X86080104Y-86299792D01*
X86080106Y-86299788D01*
X86080109Y-86299786D01*
X86205048Y-86127820D01*
X86205047Y-86127820D01*
X86205051Y-86127816D01*
X86301557Y-85938412D01*
X86367246Y-85736243D01*
X86400500Y-85526287D01*
X86400500Y-85313713D01*
X86367246Y-85103757D01*
X86301557Y-84901588D01*
X86205051Y-84712184D01*
X86205049Y-84712181D01*
X86205048Y-84712179D01*
X86080109Y-84540213D01*
X85929786Y-84389890D01*
X85835595Y-84321457D01*
X87374499Y-84321457D01*
X87402379Y-84461614D01*
X87402381Y-84461620D01*
X87457069Y-84593650D01*
X87457074Y-84593659D01*
X87536467Y-84712478D01*
X87536470Y-84712482D01*
X87637517Y-84813529D01*
X87637521Y-84813532D01*
X87756340Y-84892925D01*
X87756349Y-84892930D01*
X87786258Y-84905318D01*
X87888380Y-84947619D01*
X87888384Y-84947619D01*
X87888385Y-84947620D01*
X88028542Y-84975500D01*
X88028545Y-84975500D01*
X88171457Y-84975500D01*
X88265751Y-84956742D01*
X88311620Y-84947619D01*
X88443653Y-84892929D01*
X88562479Y-84813532D01*
X88663532Y-84712479D01*
X88742929Y-84593653D01*
X88797619Y-84461620D01*
X88825500Y-84321455D01*
X88825500Y-84178545D01*
X88825500Y-84178542D01*
X88797620Y-84038385D01*
X88797619Y-84038384D01*
X88797619Y-84038380D01*
X88749188Y-83921457D01*
X89474499Y-83921457D01*
X89502379Y-84061614D01*
X89502381Y-84061620D01*
X89557069Y-84193650D01*
X89557074Y-84193659D01*
X89636467Y-84312478D01*
X89636470Y-84312482D01*
X89737517Y-84413529D01*
X89737521Y-84413532D01*
X89856340Y-84492925D01*
X89856346Y-84492928D01*
X89856347Y-84492929D01*
X89988380Y-84547619D01*
X89988384Y-84547619D01*
X89988385Y-84547620D01*
X90128542Y-84575500D01*
X90128545Y-84575500D01*
X90271457Y-84575500D01*
X90387690Y-84552379D01*
X90411620Y-84547619D01*
X90543653Y-84492929D01*
X90662479Y-84413532D01*
X90763532Y-84312479D01*
X90842929Y-84193653D01*
X90897619Y-84061620D01*
X90925500Y-83921457D01*
X109574499Y-83921457D01*
X109602379Y-84061614D01*
X109602381Y-84061620D01*
X109657069Y-84193650D01*
X109657074Y-84193659D01*
X109736467Y-84312478D01*
X109736470Y-84312482D01*
X109837517Y-84413529D01*
X109837521Y-84413532D01*
X109956340Y-84492925D01*
X109956346Y-84492928D01*
X109956347Y-84492929D01*
X110088380Y-84547619D01*
X110088384Y-84547619D01*
X110088385Y-84547620D01*
X110228542Y-84575500D01*
X110228545Y-84575500D01*
X110371457Y-84575500D01*
X110487690Y-84552379D01*
X110511620Y-84547619D01*
X110643653Y-84492929D01*
X110762479Y-84413532D01*
X110863532Y-84312479D01*
X110942929Y-84193653D01*
X110997619Y-84061620D01*
X111025500Y-83921455D01*
X111025500Y-83778545D01*
X111025500Y-83778542D01*
X110997620Y-83638385D01*
X110997619Y-83638384D01*
X110997619Y-83638380D01*
X110942929Y-83506347D01*
X110942928Y-83506346D01*
X110942925Y-83506340D01*
X110863532Y-83387521D01*
X110863529Y-83387517D01*
X110762482Y-83286470D01*
X110762478Y-83286467D01*
X110643659Y-83207074D01*
X110643650Y-83207069D01*
X110511620Y-83152381D01*
X110511614Y-83152379D01*
X110371457Y-83124500D01*
X110371455Y-83124500D01*
X110228545Y-83124500D01*
X110228543Y-83124500D01*
X110088385Y-83152379D01*
X110088379Y-83152381D01*
X109956349Y-83207069D01*
X109956340Y-83207074D01*
X109837521Y-83286467D01*
X109837517Y-83286470D01*
X109736470Y-83387517D01*
X109736467Y-83387521D01*
X109657074Y-83506340D01*
X109657069Y-83506349D01*
X109602381Y-83638379D01*
X109602379Y-83638385D01*
X109574500Y-83778542D01*
X109574500Y-83778545D01*
X109574500Y-83921455D01*
X109574500Y-83921457D01*
X109574499Y-83921457D01*
X90925500Y-83921457D01*
X90925500Y-83921455D01*
X90925500Y-83778545D01*
X90925500Y-83778542D01*
X90897620Y-83638385D01*
X90897619Y-83638384D01*
X90897619Y-83638380D01*
X90842929Y-83506347D01*
X90842928Y-83506346D01*
X90842925Y-83506340D01*
X90763532Y-83387521D01*
X90763529Y-83387517D01*
X90662482Y-83286470D01*
X90662478Y-83286467D01*
X90543659Y-83207074D01*
X90543650Y-83207069D01*
X90411620Y-83152381D01*
X90411614Y-83152379D01*
X90271457Y-83124500D01*
X90271455Y-83124500D01*
X90128545Y-83124500D01*
X90128543Y-83124500D01*
X89988385Y-83152379D01*
X89988379Y-83152381D01*
X89856349Y-83207069D01*
X89856340Y-83207074D01*
X89737521Y-83286467D01*
X89737517Y-83286470D01*
X89636470Y-83387517D01*
X89636467Y-83387521D01*
X89557074Y-83506340D01*
X89557069Y-83506349D01*
X89502381Y-83638379D01*
X89502379Y-83638385D01*
X89474500Y-83778542D01*
X89474500Y-83778545D01*
X89474500Y-83921455D01*
X89474500Y-83921457D01*
X89474499Y-83921457D01*
X88749188Y-83921457D01*
X88742929Y-83906347D01*
X88742928Y-83906346D01*
X88742925Y-83906340D01*
X88699496Y-83841344D01*
X88663532Y-83787521D01*
X88663529Y-83787517D01*
X88562482Y-83686470D01*
X88562478Y-83686467D01*
X88443659Y-83607074D01*
X88443650Y-83607069D01*
X88311620Y-83552381D01*
X88311614Y-83552379D01*
X88171457Y-83524500D01*
X88171455Y-83524500D01*
X88028545Y-83524500D01*
X88028543Y-83524500D01*
X87888385Y-83552379D01*
X87888379Y-83552381D01*
X87756349Y-83607069D01*
X87756340Y-83607074D01*
X87637521Y-83686467D01*
X87637517Y-83686470D01*
X87536470Y-83787517D01*
X87536467Y-83787521D01*
X87457074Y-83906340D01*
X87457069Y-83906349D01*
X87402381Y-84038379D01*
X87402379Y-84038385D01*
X87374500Y-84178542D01*
X87374500Y-84178545D01*
X87374500Y-84321455D01*
X87374500Y-84321457D01*
X87374499Y-84321457D01*
X85835595Y-84321457D01*
X85772209Y-84275405D01*
X85772198Y-84275398D01*
X85757816Y-84264949D01*
X85744355Y-84258090D01*
X85739884Y-84255311D01*
X85719980Y-84233025D01*
X85698259Y-84212512D01*
X85696954Y-84207246D01*
X85693341Y-84203200D01*
X85688645Y-84173692D01*
X85681463Y-84144692D01*
X85683212Y-84139556D01*
X85682360Y-84134198D01*
X85694362Y-84106835D01*
X85703999Y-84078556D01*
X85708465Y-84074685D01*
X85710427Y-84070214D01*
X85724122Y-84061118D01*
X85749054Y-84039515D01*
X85757816Y-84035051D01*
X85779789Y-84019086D01*
X85929786Y-83910109D01*
X85929788Y-83910106D01*
X85929792Y-83910104D01*
X86080104Y-83759792D01*
X86080106Y-83759788D01*
X86080109Y-83759786D01*
X86205048Y-83587820D01*
X86205047Y-83587820D01*
X86205051Y-83587816D01*
X86301557Y-83398412D01*
X86367246Y-83196243D01*
X86400500Y-82986287D01*
X86400500Y-82773713D01*
X86367246Y-82563757D01*
X86301557Y-82361588D01*
X86205051Y-82172184D01*
X86205049Y-82172181D01*
X86205048Y-82172179D01*
X86080109Y-82000213D01*
X85929786Y-81849890D01*
X85757820Y-81724951D01*
X85757115Y-81724591D01*
X85749054Y-81720485D01*
X85698259Y-81672512D01*
X85681463Y-81604692D01*
X85703999Y-81538556D01*
X85749054Y-81499515D01*
X85757816Y-81495051D01*
X85811088Y-81456347D01*
X85928349Y-81371153D01*
X99499500Y-81371153D01*
X99499500Y-81528846D01*
X99530261Y-81683489D01*
X99530264Y-81683501D01*
X99590602Y-81829172D01*
X99590609Y-81829185D01*
X99678210Y-81960288D01*
X99678213Y-81960292D01*
X99789707Y-82071786D01*
X99789711Y-82071789D01*
X99920814Y-82159390D01*
X99920827Y-82159397D01*
X100066498Y-82219735D01*
X100066503Y-82219737D01*
X100221153Y-82250499D01*
X100221156Y-82250500D01*
X100221158Y-82250500D01*
X100378844Y-82250500D01*
X100378845Y-82250499D01*
X100533497Y-82219737D01*
X100679179Y-82159394D01*
X100810289Y-82071789D01*
X100921789Y-81960289D01*
X100981145Y-81871457D01*
X111624499Y-81871457D01*
X111652379Y-82011614D01*
X111652381Y-82011620D01*
X111707069Y-82143650D01*
X111707074Y-82143659D01*
X111786467Y-82262478D01*
X111786470Y-82262482D01*
X111887517Y-82363529D01*
X111887521Y-82363532D01*
X112006340Y-82442925D01*
X112006346Y-82442928D01*
X112006347Y-82442929D01*
X112138380Y-82497619D01*
X112138384Y-82497619D01*
X112138385Y-82497620D01*
X112278542Y-82525500D01*
X112278545Y-82525500D01*
X112421457Y-82525500D01*
X112515751Y-82506742D01*
X112561620Y-82497619D01*
X112693653Y-82442929D01*
X112812479Y-82363532D01*
X112913532Y-82262479D01*
X112992929Y-82143653D01*
X113047619Y-82011620D01*
X113075500Y-81871455D01*
X113075500Y-81728545D01*
X113075500Y-81728542D01*
X113047620Y-81588385D01*
X113047619Y-81588384D01*
X113047619Y-81588380D01*
X112992929Y-81456347D01*
X112992928Y-81456346D01*
X112992925Y-81456340D01*
X112913532Y-81337521D01*
X112913529Y-81337517D01*
X112812482Y-81236470D01*
X112812478Y-81236467D01*
X112693659Y-81157074D01*
X112693650Y-81157069D01*
X112561620Y-81102381D01*
X112561614Y-81102379D01*
X112421457Y-81074500D01*
X112421455Y-81074500D01*
X112278545Y-81074500D01*
X112278543Y-81074500D01*
X112138385Y-81102379D01*
X112138379Y-81102381D01*
X112006349Y-81157069D01*
X112006340Y-81157074D01*
X111887521Y-81236467D01*
X111887517Y-81236470D01*
X111786470Y-81337517D01*
X111786467Y-81337521D01*
X111707074Y-81456340D01*
X111707069Y-81456349D01*
X111652381Y-81588379D01*
X111652379Y-81588385D01*
X111624500Y-81728542D01*
X111624500Y-81728545D01*
X111624500Y-81871455D01*
X111624500Y-81871457D01*
X111624499Y-81871457D01*
X100981145Y-81871457D01*
X101009394Y-81829179D01*
X101069737Y-81683497D01*
X101100500Y-81528842D01*
X101100500Y-81371158D01*
X101100500Y-81371155D01*
X101100499Y-81371153D01*
X101081847Y-81277385D01*
X101069737Y-81216503D01*
X101045119Y-81157069D01*
X101009397Y-81070827D01*
X101009390Y-81070814D01*
X100921789Y-80939711D01*
X100921786Y-80939707D01*
X100810292Y-80828213D01*
X100810288Y-80828210D01*
X100679185Y-80740609D01*
X100679172Y-80740602D01*
X100533501Y-80680264D01*
X100533489Y-80680261D01*
X100378845Y-80649500D01*
X100378842Y-80649500D01*
X100221158Y-80649500D01*
X100221155Y-80649500D01*
X100066510Y-80680261D01*
X100066498Y-80680264D01*
X99920827Y-80740602D01*
X99920814Y-80740609D01*
X99789711Y-80828210D01*
X99789707Y-80828213D01*
X99678213Y-80939707D01*
X99678210Y-80939711D01*
X99590609Y-81070814D01*
X99590602Y-81070827D01*
X99530264Y-81216498D01*
X99530261Y-81216510D01*
X99499500Y-81371153D01*
X85928349Y-81371153D01*
X85929786Y-81370109D01*
X85929788Y-81370106D01*
X85929792Y-81370104D01*
X86080104Y-81219792D01*
X86080106Y-81219788D01*
X86080109Y-81219786D01*
X86205048Y-81047820D01*
X86205047Y-81047820D01*
X86205051Y-81047816D01*
X86301557Y-80858412D01*
X86367246Y-80656243D01*
X86400500Y-80446287D01*
X86400500Y-80233713D01*
X86367246Y-80023757D01*
X86301557Y-79821588D01*
X86205051Y-79632184D01*
X86205049Y-79632181D01*
X86205048Y-79632179D01*
X86080109Y-79460213D01*
X85929786Y-79309890D01*
X85757820Y-79184951D01*
X85757115Y-79184591D01*
X85749054Y-79180485D01*
X85698259Y-79132512D01*
X85681463Y-79064692D01*
X85703999Y-78998556D01*
X85749054Y-78959515D01*
X85757816Y-78955051D01*
X85779789Y-78939086D01*
X85929786Y-78830109D01*
X85929788Y-78830106D01*
X85929792Y-78830104D01*
X86080104Y-78679792D01*
X86080106Y-78679788D01*
X86080109Y-78679786D01*
X86205048Y-78507820D01*
X86205047Y-78507820D01*
X86205051Y-78507816D01*
X86301557Y-78318412D01*
X86367246Y-78116243D01*
X86400500Y-77906287D01*
X86400500Y-77693713D01*
X86367246Y-77483757D01*
X86301557Y-77281588D01*
X86205051Y-77092184D01*
X86205049Y-77092181D01*
X86205048Y-77092179D01*
X86080109Y-76920213D01*
X85929786Y-76769890D01*
X85757820Y-76644951D01*
X85757115Y-76644591D01*
X85749054Y-76640485D01*
X85698259Y-76592512D01*
X85681463Y-76524692D01*
X85703999Y-76458556D01*
X85749054Y-76419515D01*
X85757816Y-76415051D01*
X85779789Y-76399086D01*
X85929786Y-76290109D01*
X85929788Y-76290106D01*
X85929792Y-76290104D01*
X86080104Y-76139792D01*
X86080106Y-76139788D01*
X86080109Y-76139786D01*
X86205048Y-75967820D01*
X86205047Y-75967820D01*
X86205051Y-75967816D01*
X86301557Y-75778412D01*
X86367246Y-75576243D01*
X86400500Y-75366287D01*
X86400500Y-75153713D01*
X86367246Y-74943757D01*
X86301557Y-74741588D01*
X86205051Y-74552184D01*
X86205049Y-74552181D01*
X86205048Y-74552179D01*
X86080109Y-74380213D01*
X85929786Y-74229890D01*
X85757820Y-74104951D01*
X85568414Y-74008444D01*
X85568413Y-74008443D01*
X85568412Y-74008443D01*
X85366243Y-73942754D01*
X85366241Y-73942753D01*
X85366240Y-73942753D01*
X85204957Y-73917208D01*
X85156287Y-73909500D01*
X84943713Y-73909500D01*
X84895042Y-73917208D01*
X84733760Y-73942753D01*
X84531585Y-74008444D01*
X84342179Y-74104951D01*
X84247385Y-74173823D01*
X84181578Y-74197303D01*
X84113525Y-74181477D01*
X84064830Y-74131371D01*
X84050500Y-74073505D01*
X84050500Y-73389778D01*
X99449500Y-73389778D01*
X99449500Y-73610221D01*
X99483985Y-73827952D01*
X99552103Y-74037603D01*
X99552104Y-74037606D01*
X99652187Y-74234025D01*
X99781752Y-74412358D01*
X99781756Y-74412363D01*
X99937636Y-74568243D01*
X99937641Y-74568247D01*
X100093192Y-74681260D01*
X100115978Y-74697815D01*
X100244375Y-74763237D01*
X100312393Y-74797895D01*
X100312396Y-74797896D01*
X100417221Y-74831955D01*
X100522049Y-74866015D01*
X100739778Y-74900500D01*
X100739779Y-74900500D01*
X102360221Y-74900500D01*
X102360222Y-74900500D01*
X102577951Y-74866015D01*
X102787606Y-74797895D01*
X102984022Y-74697815D01*
X103162365Y-74568242D01*
X103318242Y-74412365D01*
X103447815Y-74234022D01*
X103547895Y-74037606D01*
X103616015Y-73827951D01*
X103650500Y-73610222D01*
X103650500Y-73389778D01*
X103616015Y-73172049D01*
X103547895Y-72962394D01*
X103547895Y-72962393D01*
X103513237Y-72894375D01*
X103447815Y-72765978D01*
X103406702Y-72709390D01*
X103318247Y-72587641D01*
X103318243Y-72587636D01*
X103162363Y-72431756D01*
X103162358Y-72431752D01*
X102984025Y-72302187D01*
X102984024Y-72302186D01*
X102984022Y-72302185D01*
X102921096Y-72270122D01*
X102787606Y-72202104D01*
X102787603Y-72202103D01*
X102577952Y-72133985D01*
X102469086Y-72116742D01*
X102360222Y-72099500D01*
X100739778Y-72099500D01*
X100667201Y-72110995D01*
X100522047Y-72133985D01*
X100312396Y-72202103D01*
X100312393Y-72202104D01*
X100115974Y-72302187D01*
X99937641Y-72431752D01*
X99937636Y-72431756D01*
X99781756Y-72587636D01*
X99781752Y-72587641D01*
X99652187Y-72765974D01*
X99552104Y-72962393D01*
X99552103Y-72962396D01*
X99483985Y-73172047D01*
X99449500Y-73389778D01*
X84050500Y-73389778D01*
X84050500Y-71921153D01*
X90349500Y-71921153D01*
X90349500Y-72078846D01*
X90380261Y-72233489D01*
X90380264Y-72233501D01*
X90440602Y-72379172D01*
X90440609Y-72379185D01*
X90528210Y-72510288D01*
X90528213Y-72510292D01*
X90639707Y-72621786D01*
X90639711Y-72621789D01*
X90770814Y-72709390D01*
X90770827Y-72709397D01*
X90907418Y-72765974D01*
X90916503Y-72769737D01*
X91071153Y-72800499D01*
X91071156Y-72800500D01*
X91071158Y-72800500D01*
X91228844Y-72800500D01*
X91228845Y-72800499D01*
X91383497Y-72769737D01*
X91529179Y-72709394D01*
X91660289Y-72621789D01*
X91771789Y-72510289D01*
X91859394Y-72379179D01*
X91919737Y-72233497D01*
X91950500Y-72078842D01*
X91950500Y-71921158D01*
X91950500Y-71921155D01*
X91950499Y-71921153D01*
X91919738Y-71766510D01*
X91919737Y-71766503D01*
X91919735Y-71766498D01*
X91859397Y-71620827D01*
X91859390Y-71620814D01*
X91771789Y-71489711D01*
X91771786Y-71489707D01*
X91660292Y-71378213D01*
X91660288Y-71378210D01*
X91529185Y-71290609D01*
X91529172Y-71290602D01*
X91383501Y-71230264D01*
X91383489Y-71230261D01*
X91228845Y-71199500D01*
X91228842Y-71199500D01*
X91071158Y-71199500D01*
X91071155Y-71199500D01*
X90916510Y-71230261D01*
X90916498Y-71230264D01*
X90770827Y-71290602D01*
X90770814Y-71290609D01*
X90639711Y-71378210D01*
X90639707Y-71378213D01*
X90528213Y-71489707D01*
X90528210Y-71489711D01*
X90440609Y-71620814D01*
X90440602Y-71620827D01*
X90380264Y-71766498D01*
X90380261Y-71766510D01*
X90349500Y-71921153D01*
X84050500Y-71921153D01*
X84050500Y-68389778D01*
X99449500Y-68389778D01*
X99449500Y-68610221D01*
X99483985Y-68827952D01*
X99552103Y-69037603D01*
X99552104Y-69037606D01*
X99652187Y-69234025D01*
X99781752Y-69412358D01*
X99781756Y-69412363D01*
X99937636Y-69568243D01*
X99937641Y-69568247D01*
X100093192Y-69681260D01*
X100115978Y-69697815D01*
X100244375Y-69763237D01*
X100312393Y-69797895D01*
X100312396Y-69797896D01*
X100417221Y-69831955D01*
X100522049Y-69866015D01*
X100739778Y-69900500D01*
X100739779Y-69900500D01*
X102360221Y-69900500D01*
X102360222Y-69900500D01*
X102577951Y-69866015D01*
X102787606Y-69797895D01*
X102984022Y-69697815D01*
X103162365Y-69568242D01*
X103318242Y-69412365D01*
X103447815Y-69234022D01*
X103547895Y-69037606D01*
X103616015Y-68827951D01*
X103650500Y-68610222D01*
X103650500Y-68389778D01*
X106849500Y-68389778D01*
X106849500Y-68610221D01*
X106883985Y-68827952D01*
X106952103Y-69037603D01*
X106952104Y-69037606D01*
X107052187Y-69234025D01*
X107181752Y-69412358D01*
X107181756Y-69412363D01*
X107337636Y-69568243D01*
X107337641Y-69568247D01*
X107493192Y-69681260D01*
X107515978Y-69697815D01*
X107644375Y-69763237D01*
X107712393Y-69797895D01*
X107712396Y-69797896D01*
X107817221Y-69831955D01*
X107922049Y-69866015D01*
X108139778Y-69900500D01*
X108139779Y-69900500D01*
X109760221Y-69900500D01*
X109760222Y-69900500D01*
X109977951Y-69866015D01*
X110187606Y-69797895D01*
X110384022Y-69697815D01*
X110562365Y-69568242D01*
X110718242Y-69412365D01*
X110847815Y-69234022D01*
X110947895Y-69037606D01*
X111016015Y-68827951D01*
X111050500Y-68610222D01*
X111050500Y-68389778D01*
X111016015Y-68172049D01*
X110947895Y-67962394D01*
X110947895Y-67962393D01*
X110913237Y-67894375D01*
X110847815Y-67765978D01*
X110777893Y-67669738D01*
X110718247Y-67587641D01*
X110718243Y-67587636D01*
X110562363Y-67431756D01*
X110562358Y-67431752D01*
X110384025Y-67302187D01*
X110384024Y-67302186D01*
X110384022Y-67302185D01*
X110321096Y-67270122D01*
X110187606Y-67202104D01*
X110187603Y-67202103D01*
X109977952Y-67133985D01*
X109869086Y-67116742D01*
X109760222Y-67099500D01*
X108139778Y-67099500D01*
X108067201Y-67110995D01*
X107922047Y-67133985D01*
X107712396Y-67202103D01*
X107712393Y-67202104D01*
X107515974Y-67302187D01*
X107337641Y-67431752D01*
X107337636Y-67431756D01*
X107181756Y-67587636D01*
X107181752Y-67587641D01*
X107052187Y-67765974D01*
X106952104Y-67962393D01*
X106952103Y-67962396D01*
X106883985Y-68172047D01*
X106849500Y-68389778D01*
X103650500Y-68389778D01*
X103616015Y-68172049D01*
X103547895Y-67962394D01*
X103547895Y-67962393D01*
X103513237Y-67894375D01*
X103447815Y-67765978D01*
X103377893Y-67669738D01*
X103318247Y-67587641D01*
X103318243Y-67587636D01*
X103162363Y-67431756D01*
X103162358Y-67431752D01*
X102984025Y-67302187D01*
X102984024Y-67302186D01*
X102984022Y-67302185D01*
X102921096Y-67270122D01*
X102787606Y-67202104D01*
X102787603Y-67202103D01*
X102577952Y-67133985D01*
X102469086Y-67116742D01*
X102360222Y-67099500D01*
X100739778Y-67099500D01*
X100667201Y-67110995D01*
X100522047Y-67133985D01*
X100312396Y-67202103D01*
X100312393Y-67202104D01*
X100115974Y-67302187D01*
X99937641Y-67431752D01*
X99937636Y-67431756D01*
X99781756Y-67587636D01*
X99781752Y-67587641D01*
X99652187Y-67765974D01*
X99552104Y-67962393D01*
X99552103Y-67962396D01*
X99483985Y-68172047D01*
X99449500Y-68389778D01*
X84050500Y-68389778D01*
X84050500Y-66821153D01*
X93549500Y-66821153D01*
X93549500Y-66978846D01*
X93580261Y-67133489D01*
X93580264Y-67133501D01*
X93640602Y-67279172D01*
X93640609Y-67279185D01*
X93728210Y-67410288D01*
X93728213Y-67410292D01*
X93839707Y-67521786D01*
X93839711Y-67521789D01*
X93970814Y-67609390D01*
X93970827Y-67609397D01*
X94116498Y-67669735D01*
X94116503Y-67669737D01*
X94271153Y-67700499D01*
X94271156Y-67700500D01*
X94271158Y-67700500D01*
X94428844Y-67700500D01*
X94428845Y-67700499D01*
X94583497Y-67669737D01*
X94729179Y-67609394D01*
X94860289Y-67521789D01*
X94971789Y-67410289D01*
X95059394Y-67279179D01*
X95119737Y-67133497D01*
X95150500Y-66978842D01*
X95150500Y-66821158D01*
X95150500Y-66821155D01*
X95150499Y-66821153D01*
X95119738Y-66666510D01*
X95119737Y-66666503D01*
X95119735Y-66666498D01*
X95059397Y-66520827D01*
X95059390Y-66520814D01*
X94971789Y-66389711D01*
X94971786Y-66389707D01*
X94860292Y-66278213D01*
X94860288Y-66278210D01*
X94729185Y-66190609D01*
X94729172Y-66190602D01*
X94583501Y-66130264D01*
X94583489Y-66130261D01*
X94428845Y-66099500D01*
X94428842Y-66099500D01*
X94271158Y-66099500D01*
X94271155Y-66099500D01*
X94116510Y-66130261D01*
X94116498Y-66130264D01*
X93970827Y-66190602D01*
X93970814Y-66190609D01*
X93839711Y-66278210D01*
X93839707Y-66278213D01*
X93728213Y-66389707D01*
X93728210Y-66389711D01*
X93640609Y-66520814D01*
X93640602Y-66520827D01*
X93580264Y-66666498D01*
X93580261Y-66666510D01*
X93549500Y-66821153D01*
X84050500Y-66821153D01*
X84050500Y-60378711D01*
X84699500Y-60378711D01*
X84699500Y-60621288D01*
X84731161Y-60861785D01*
X84793947Y-61096104D01*
X84886773Y-61320205D01*
X84886776Y-61320212D01*
X85008064Y-61530289D01*
X85008066Y-61530292D01*
X85008067Y-61530293D01*
X85155733Y-61722736D01*
X85155739Y-61722743D01*
X85327256Y-61894260D01*
X85327262Y-61894265D01*
X85519711Y-62041936D01*
X85729788Y-62163224D01*
X85953900Y-62256054D01*
X86188211Y-62318838D01*
X86368586Y-62342584D01*
X86428711Y-62350500D01*
X86428712Y-62350500D01*
X86671289Y-62350500D01*
X86719388Y-62344167D01*
X86911789Y-62318838D01*
X87146100Y-62256054D01*
X87370212Y-62163224D01*
X87580289Y-62041936D01*
X87772738Y-61894265D01*
X87944265Y-61722738D01*
X88091936Y-61530289D01*
X88213224Y-61320212D01*
X88306054Y-61096100D01*
X88368838Y-60861789D01*
X88400500Y-60621288D01*
X88400500Y-60378712D01*
X88400500Y-60378711D01*
X119199500Y-60378711D01*
X119199500Y-60621288D01*
X119231161Y-60861785D01*
X119293947Y-61096104D01*
X119386773Y-61320205D01*
X119386776Y-61320212D01*
X119508064Y-61530289D01*
X119508066Y-61530292D01*
X119508067Y-61530293D01*
X119655733Y-61722736D01*
X119655739Y-61722743D01*
X119827256Y-61894260D01*
X119827262Y-61894265D01*
X120019711Y-62041936D01*
X120229788Y-62163224D01*
X120453900Y-62256054D01*
X120688211Y-62318838D01*
X120868586Y-62342584D01*
X120928711Y-62350500D01*
X120928712Y-62350500D01*
X121171289Y-62350500D01*
X121219388Y-62344167D01*
X121411789Y-62318838D01*
X121646100Y-62256054D01*
X121870212Y-62163224D01*
X122080289Y-62041936D01*
X122272738Y-61894265D01*
X122444265Y-61722738D01*
X122591936Y-61530289D01*
X122713224Y-61320212D01*
X122806054Y-61096100D01*
X122868838Y-60861789D01*
X122900500Y-60621288D01*
X122900500Y-60378712D01*
X122868838Y-60138211D01*
X122806054Y-59903900D01*
X122713224Y-59679788D01*
X122591936Y-59469711D01*
X122444265Y-59277262D01*
X122444260Y-59277256D01*
X122272743Y-59105739D01*
X122272736Y-59105733D01*
X122080293Y-58958067D01*
X122080292Y-58958066D01*
X122080289Y-58958064D01*
X121870212Y-58836776D01*
X121756172Y-58789539D01*
X121646104Y-58743947D01*
X121411785Y-58681161D01*
X121171289Y-58649500D01*
X121171288Y-58649500D01*
X120928712Y-58649500D01*
X120928711Y-58649500D01*
X120688214Y-58681161D01*
X120453895Y-58743947D01*
X120229794Y-58836773D01*
X120229785Y-58836777D01*
X120019706Y-58958067D01*
X119827263Y-59105733D01*
X119827256Y-59105739D01*
X119655739Y-59277256D01*
X119655733Y-59277263D01*
X119508067Y-59469706D01*
X119508064Y-59469710D01*
X119508064Y-59469711D01*
X119496082Y-59490464D01*
X119386777Y-59679785D01*
X119386773Y-59679794D01*
X119293947Y-59903895D01*
X119231161Y-60138214D01*
X119199500Y-60378711D01*
X88400500Y-60378711D01*
X88368838Y-60138211D01*
X88306054Y-59903900D01*
X88213224Y-59679788D01*
X88091936Y-59469711D01*
X87944265Y-59277262D01*
X87944260Y-59277256D01*
X87772743Y-59105739D01*
X87772736Y-59105733D01*
X87580293Y-58958067D01*
X87580292Y-58958066D01*
X87580289Y-58958064D01*
X87370212Y-58836776D01*
X87256172Y-58789539D01*
X87146104Y-58743947D01*
X86911785Y-58681161D01*
X86671289Y-58649500D01*
X86671288Y-58649500D01*
X86428712Y-58649500D01*
X86428711Y-58649500D01*
X86188214Y-58681161D01*
X85953895Y-58743947D01*
X85729794Y-58836773D01*
X85729785Y-58836777D01*
X85519706Y-58958067D01*
X85327263Y-59105733D01*
X85327256Y-59105739D01*
X85155739Y-59277256D01*
X85155733Y-59277263D01*
X85008067Y-59469706D01*
X85008064Y-59469710D01*
X85008064Y-59469711D01*
X84996082Y-59490464D01*
X84886777Y-59679785D01*
X84886773Y-59679794D01*
X84793947Y-59903895D01*
X84731161Y-60138214D01*
X84699500Y-60378711D01*
X84050500Y-60378711D01*
X84050500Y-60004066D01*
X84050765Y-59995956D01*
X84054819Y-59934108D01*
X84067075Y-59747102D01*
X84069190Y-59731048D01*
X84117045Y-59490462D01*
X84121243Y-59474797D01*
X84144337Y-59406762D01*
X84200093Y-59242512D01*
X84206291Y-59227547D01*
X84314790Y-59007533D01*
X84322897Y-58993493D01*
X84427611Y-58836777D01*
X84459177Y-58789534D01*
X84469039Y-58776681D01*
X84630786Y-58592244D01*
X84642244Y-58580786D01*
X84826681Y-58419039D01*
X84839534Y-58409177D01*
X85043493Y-58272897D01*
X85057533Y-58264790D01*
X85277547Y-58156291D01*
X85292512Y-58150093D01*
X85456762Y-58094337D01*
X85524797Y-58071243D01*
X85540464Y-58067045D01*
X85781048Y-58019190D01*
X85797102Y-58017075D01*
X86045957Y-58000765D01*
X86054067Y-58000500D01*
X86115892Y-58000500D01*
X121484108Y-58000500D01*
X121545933Y-58000500D01*
X121554043Y-58000765D01*
G37*
%TD.AperFunction*%
%TD*%
M02*
